<?xml version="1.0" encoding="utf-8"?>
<!-- Generator: Adobe Illustrator 22.1.0, SVG Export Plug-In . SVG Version: 6.00 Build 0)  -->
<svg version="1.1" id="Layer_1" xmlns="http://www.w3.org/2000/svg" xmlns:xlink="http://www.w3.org/1999/xlink" x="0px" y="0px"
	 viewBox="0 0 145 145" style="enable-background:new 0 0 145 145;" xml:space="preserve">
<path d="M94,86.2c-4.3,0-7.8,3.5-7.8,7.8v15.7c0,4.3,3.5,7.8,7.8,7.8c1.6,0,3.1-0.5,4.4-1.4l-7.3-7.3l5.5-5.5l5.2,5.2V94.1
	C101.8,89.7,98.3,86.2,94,86.2z M51,27.4h-7.9v31.3H51c4.3,0,7.7-3.5,7.8-7.8V35.3C58.8,31,55.3,27.5,51,27.4z M0,0v145h145V0H0z
	 M66.6,86.2H54.9v31.3h11.8v7.8H35.3v-7.8H47V86.2H35.3v-7.8h31.4L66.6,86.2L66.6,86.2z M66.6,51c0,8.6-7,15.6-15.6,15.7H35.3v-47
	H51c8.6,0,15.6,7,15.6,15.6C66.6,35.3,66.6,51,66.6,51z M78.4,53c0-7.6,6.1-13.7,13.7-13.8H96c3.2,0,5.9-2.6,5.9-5.9
	c0-3.2-2.6-5.9-5.9-5.9H78.4v-7.8H96c7.6,0.4,13.4,6.8,13.1,14.3c-0.3,7.1-6,12.7-13.1,13.1h-3.9c-3.2,0-5.9,2.6-5.9,5.9v5.9h23.5
	v7.8H78.3C78.3,66.6,78.4,53,78.4,53z M109.9,127.8l-5.9-5.9c-6.7,5.5-16.6,4.6-22.1-2.1c-2.3-2.8-3.6-6.3-3.6-10V94.1
	c0.2-8.7,7.4-15.5,16.1-15.3c8.3,0.2,15.1,6.9,15.3,15.3v15.7c0,1.9-0.3,3.8-1,5.6l6.8,6.8C115.5,122.2,109.9,127.8,109.9,127.8z"/>
</svg>
