<svg width="24" height="24" viewBox="0 0 24 24" xmlns="http://www.w3.org/2000/svg">
    <defs>
        <linearGradient x1="50%" y1="3.49%" x2="50%" y2="95.642%" id="a">
            <stop stop-color="#FFF" stop-opacity=".6" offset="0%"/>
            <stop stop-color="#FFF" stop-opacity=".4" offset="100%"/>
        </linearGradient>
        <linearGradient x1="50%" y1="6.251%" x2="50%" y2="94.899%" id="b">
            <stop stop-color="#FFF" offset="0%"/>
            <stop stop-color="#FFF" stop-opacity=".8" offset="100%"/>
        </linearGradient>
    </defs>
    <g fill="none" fill-rule="evenodd">
        <rect fill="url(#a)" x="13" y="13" width="9" height="9" rx="1"/>
        <path d="M11 12v8.993c0 .556-.446 1.007-.998 1.007H2.998C2.447 22 2 21.55 2 20.993V3.007C2 2.45 2.446 2 2.998 2h7.004c.551 0 .998.45.998 1.007V12zm2-9.002c0-.551.446-.998.998-.998h7.004c.551 0 .998.446.998.998v7.004c0 .551-.446.998-.998.998h-7.004a.997.997 0 0 1-.998-.998V2.998z" fill="url(#b)"/>
    </g>
</svg>
