<svg width="24" height="24" viewBox="0 0 24 24" xmlns="http://www.w3.org/2000/svg">
    <defs>
        <linearGradient x1="50%" y1="3.49%" x2="50%" y2="97.401%" id="a">
            <stop stop-color="#9351E5" stop-opacity=".2" offset="0%"/>
            <stop stop-color="#9351E5" stop-opacity=".4" offset="100%"/>
        </linearGradient>
        <linearGradient x1="50%" y1="96.106%" x2="50%" y2="6.251%" id="b">
            <stop stop-color="#9351E5" offset="0%"/>
            <stop stop-color="#9351E5" stop-opacity=".6" offset="100%"/>
        </linearGradient>
    </defs>
    <g fill="none" fill-rule="evenodd">
        <path d="M12 18a6 6 0 1 0 0-12 6 6 0 0 0 0 12zm0-2a4 4 0 1 0 0-8 4 4 0 0 0 0 8z" fill="url(#a)"/>
        <path d="M19.035 8.189l1.389-1.914c.327-.451.277-1.13-.111-1.518l-1.07-1.07c-.379-.38-1.068-.438-1.518-.11L15.81 4.964a7.95 7.95 0 0 0-1.531-.635l-.372-2.334C13.821 1.445 13.305 1 12.756 1h-1.512c-.536 0-1.065.446-1.152.996L9.72 4.33a7.95 7.95 0 0 0-1.531.635L6.275 3.576c-.451-.327-1.13-.277-1.518.111l-1.07 1.07c-.38.379-.438 1.068-.11 1.518L4.964 8.19A7.95 7.95 0 0 0 4.33 9.72l-2.334.372c-.551.087-.996.603-.996 1.152v1.512c0 .536.446 1.065.996 1.152l2.334.372a7.95 7.95 0 0 0 .635 1.531l-1.389 1.914c-.327.451-.277 1.13.111 1.518l1.07 1.07c.379.38 1.068.438 1.518.11l1.914-1.388a7.95 7.95 0 0 0 1.531.635l.372 2.334c.087.551.603.996 1.152.996h1.512c.536 0 1.065-.446 1.152-.996l.372-2.334a7.95 7.95 0 0 0 1.531-.635l1.914 1.389c.451.327 1.13.277 1.518-.111l1.07-1.07c.38-.379.438-1.068.11-1.518l-1.388-1.914a7.95 7.95 0 0 0 .635-1.531l2.334-.372c.551-.087.996-.603.996-1.152v-1.512c0-.536-.446-1.065-.996-1.152L19.67 9.72a7.95 7.95 0 0 0-.635-1.531zM12 18a6 6 0 1 0 0-12 6 6 0 0 0 0 12zm0-2a4 4 0 1 0 0-8 4 4 0 0 0 0 8zm0-2a2 2 0 1 0 0-4 2 2 0 0 0 0 4z" fill="url(#b)"/>
    </g>
</svg>
