<svg width="24" height="24" viewBox="0 0 24 24" xmlns="http://www.w3.org/2000/svg">
    <defs>
        <linearGradient x1="50%" y1="3.49%" x2="50%" y2="95.642%" id="a">
            <stop stop-color="#FFF" stop-opacity=".6" offset="0%"/>
            <stop stop-color="#FFF" stop-opacity=".4" offset="100%"/>
        </linearGradient>
        <linearGradient x1="50%" y1="6.251%" x2="50%" y2="94.899%" id="b">
            <stop stop-color="#FFF" offset="0%"/>
            <stop stop-color="#FFF" stop-opacity=".8" offset="100%"/>
        </linearGradient>
    </defs>
    <g fill="none" fill-rule="evenodd">
        <path d="M22 5.057v14.952c0 1.1-.898 1.991-1.99 1.991H3.99C2.892 22 2 21.102 2 20.01V9.7c3.454 1.222 2.523 6.808 6.554 6.808C13.081 16.508 14.38 5 21.063 5c.326 0 .638.02.937.057z" fill="url(#a)"/>
        <path d="M22 5.057V3.99C22 2.898 21.109 2 20.01 2H3.99C2.899 2 2 2.891 2 3.99V9.7c3.454 1.222 2.523 6.808 6.554 6.808C13.081 16.508 14.38 5 21.063 5c.326 0 .638.02.937.057z" fill="url(#b)"/>
    </g>
</svg>
