<svg width="24" height="24" viewBox="0 0 24 24" xmlns="http://www.w3.org/2000/svg">
    <defs>
        <linearGradient x1="50%" y1="0%" x2="50%" y2="100%" id="a">
            <stop stop-color="#9779FF" stop-opacity=".4" offset="0%"/>
            <stop stop-color="#7D58FF" stop-opacity=".4" offset="100%"/>
        </linearGradient>
        <linearGradient x1="50%" y1="0%" x2="50%" y2="100%" id="b">
            <stop stop-color="#9779FF" offset="0%"/>
            <stop stop-color="#7D58FF" offset="100%"/>
        </linearGradient>
    </defs>
    <g fill-rule="nonzero" fill="none">
        <path d="M21.192 21.192c-2.733 2.734-9.065.835-14.142-4.242S.074 5.54 2.808 2.808C5.54.074 11.873 1.973 16.95 7.05s6.976 11.409 4.242 14.142zm-1.414-1.414c1.716-1.716.157-6.914-4.242-11.314-4.4-4.399-9.598-5.958-11.314-4.242-1.716 1.716-.157 6.914 4.242 11.314 4.4 4.399 9.598 5.958 11.314 4.242z" fill="url(#a)"/>
        <path d="M2.808 21.192C.074 18.46 1.973 12.127 7.05 7.05S18.46.074 21.192 2.808c2.734 2.733.835 9.065-4.242 14.142S5.54 23.926 2.808 21.192zm1.414-1.414c1.716 1.716 6.914.157 11.314-4.242 4.399-4.4 5.958-9.598 4.242-11.314-1.716-1.716-6.914-.157-11.314 4.242-4.399 4.4-5.958 9.598-4.242 11.314zM12 15a3 3 0 1 1 0-6 3 3 0 0 1 0 6z" fill="url(#b)"/>
    </g>
</svg>
