<svg width="24" height="24" viewBox="0 0 24 24" xmlns="http://www.w3.org/2000/svg">
    <defs>
        <linearGradient x1="50%" y1="0%" x2="50%" y2="100%" id="a">
            <stop stop-color="#9779FF" stop-opacity=".4" offset="0%"/>
            <stop stop-color="#7D58FF" stop-opacity=".4" offset="100%"/>
        </linearGradient>
        <linearGradient x1="50%" y1="0%" x2="50%" y2="100%" id="b">
            <stop stop-color="#9779FF" offset="0%"/>
            <stop stop-color="#7D58FF" offset="100%"/>
        </linearGradient>
    </defs>
    <g fill="none" fill-rule="evenodd">
        <path d="M17 17.703V18h5v-4.297C20.262 12.058 17.549 11 14.5 11c-.177 0-.354.004-.529.01A4.5 4.5 0 0 1 9.5 15c3.049 0 5.762 1.058 7.5 2.703zM10.024 6.03a4.5 4.5 0 1 1 3.952 4.94 4.5 4.5 0 0 0-3.952-4.94z" fill="url(#a)"/>
        <path d="M17 17.703V22H2v-4.297C3.738 16.058 6.451 15 9.5 15c3.049 0 5.762 1.058 7.5 2.703zM9.5 15a4.5 4.5 0 1 1 0-9 4.5 4.5 0 0 1 0 9z" fill="url(#b)"/>
    </g>
</svg>
