<svg width="24" height="24" viewBox="0 0 24 24" xmlns="http://www.w3.org/2000/svg">
    <defs>
        <linearGradient x1="50%" y1="3.49%" x2="50%" y2="95.642%" id="a">
            <stop stop-color="#FFF" stop-opacity=".6" offset="0%"/>
            <stop stop-color="#FFF" stop-opacity=".4" offset="100%"/>
        </linearGradient>
        <linearGradient x1="50%" y1="6.251%" x2="50%" y2="94.899%" id="b">
            <stop stop-color="#FFF" offset="0%"/>
            <stop stop-color="#FFF" stop-opacity=".8" offset="100%"/>
        </linearGradient>
    </defs>
    <g fill="none" fill-rule="evenodd">
        <path d="M13 11v2h-2v-2h2zm0-8V1h-2v2h2zm0 18v2h-2v-2h2zM6 5h2v2H6V5zm0 10h2v2H6v-2zM3 5h2v2H3V5zm0 10h2v2H3v-2z" fill="url(#a)"/>
        <path d="M1 13.997c0-.55.44-.997 1.002-.997h19.996c.553 0 1.002.453 1.002.997v6.006c0 .55-.44.997-1.002.997H2.002A1.004 1.004 0 0 1 1 20.003v-6.006zm0-10C1 3.447 1.44 3 2.002 3h19.996C22.55 3 23 3.453 23 3.997v6.006c0 .55-.44.997-1.002.997H2.002A1.004 1.004 0 0 1 1 10.003V3.997zM6 5h2v2H6V5zm0 10h2v2H6v-2zM3 5h2v2H3V5zm0 10h2v2H3v-2z" fill="url(#b)"/>
    </g>
</svg>
