<svg width="24" height="24" viewBox="0 0 24 24" xmlns="http://www.w3.org/2000/svg">
    <defs>
        <linearGradient x1="50%" y1="100%" x2="50%" y2="0%" id="a">
            <stop stop-color="#FFF" stop-opacity=".4" offset="0%"/>
            <stop stop-color="#FFF" stop-opacity=".6" offset="100%"/>
        </linearGradient>
        <linearGradient x1="50%" y1="0%" x2="50%" y2="100%" id="b">
            <stop stop-color="#FFF" offset="0%"/>
            <stop stop-color="#FFF" stop-opacity=".8" offset="100%"/>
        </linearGradient>
    </defs>
    <g fill="none" fill-rule="evenodd">
        <path d="M12 9C6.477 9 2 7.21 2 5s4.477-4 10-4 10 1.79 10 4-4.477 4-10 4zm10 2.75v2.115c-1.688 1.802-5.542 2.885-10 2.885s-8.312-1.083-10-2.885V11.75c0 2.21 4.477 4 10 4s10-1.79 10-4z" fill="url(#a)"/>
        <path d="M22 5v14c0 2.21-4.477 4-10 4S2 21.21 2 19V5c0 2.21 4.477 4 10 4s10-1.79 10-4zm0 6.75c0 2.21-4.477 4-10 4s-10-1.79-10-4v2.115c1.688 1.802 5.542 2.885 10 2.885s8.312-1.083 10-2.885V11.75z" fill="url(#b)"/>
    </g>
</svg>
