<svg width="24" height="24" viewBox="0 0 24 24" xmlns="http://www.w3.org/2000/svg">
    <path d="M4.25 21.163c4.716 3.996 11.787 3.77 16.235-.678 4.448-4.448 4.674-11.52.678-16.234l.03-.03-1.415-1.413-.029.029C15.034-1.16 7.963-.933 3.515 3.515c-4.448 4.448-4.674 11.52-.678 16.234l-.03.03 1.415 1.413.029-.029zm.007-2.834c-3.219-3.928-2.995-9.733.672-13.4 3.667-3.667 9.472-3.89 13.4-.672L4.257 18.329zM19.743 5.671c3.219 3.928 2.995 9.733-.672 13.4-3.667 3.667-9.472 3.89-13.4.672L19.743 5.671z" fill-rule="evenodd"/>
</svg>
