<svg width="24" height="24" viewBox="0 0 24 24" xmlns="http://www.w3.org/2000/svg">
    <path d="M2.991 1a2.003 2.003 0 0 0-1.99 2.006v4.988C1 9.103 1.89 10 2.99 10h1.01v2.002c0 .743.336 1.162.835 1.162.24 0 .516-.096.811-.3L9.801 10h3.208A2.003 2.003 0 0 0 15 7.994V3.006A1.998 1.998 0 0 0 13.01 1H2.99zM13.01 8H9.18l-.513.353L6 10.191V8l-3-.006L2.991 3H13.01v5zM5 6h6v1H5V6zm0-2h6v1H5V4zm16.01 7c1.092 0 1.99.898 1.99 2.006v4.988A1.998 1.998 0 0 1 21.01 20H20v2.002c0 .743-.337 1.162-.836 1.162-.239 0-.516-.096-.81-.3L14.198 20h-3.208a2.003 2.003 0 0 1-1.99-2.006v-4.988C9 11.897 9.89 11 10.99 11H21.01zM10.99 18h3.83l.513.353L18 20.191V18l3-.006.01-4.994H10.99v5zM19 16h-6v1h6v-1zm0-2h-6v1h6v-1z" fill-rule="evenodd"/>
</svg>
