<svg width="24" height="24" viewBox="0 0 24 24" xmlns="http://www.w3.org/2000/svg">
    <g fill-rule="evenodd">
        <path fill-opacity=".15" d="M3 3h18v3H3z"/>
        <path d="M1 2.991C1 1.891 1.89 1 2.991 1H21.01C22.109 1 23 1.89 23 2.991V21.01c0 1.1-.89 1.991-1.991 1.991H2.99A1.99 1.99 0 0 1 1 21.009V2.99zm2 0V21.01c0-.004-.005-.009-.009-.009H21.01c-.004 0-.009.005-.009.009V2.99c0 .004.005.009.009.009H2.99C2.995 3 3 2.995 3 2.991zM13 15v-1H9v1h4zm-5.854-2.146v-.708l-2.5 2.5.708.708 2.5-2.5a.5.5 0 0 0 0-.708l-2.5-2.5-.708.708 2.5 2.5zM4 4h1v1H4V4zm2 0h1v1H6V4zm2 0h1v1H8V4zM3 6h18v1H3V6z"/>
    </g>
</svg>
