<svg width="24" height="24" viewBox="0 0 24 24" xmlns="http://www.w3.org/2000/svg">
    <g fill-rule="evenodd">
        <rect fill-opacity=".2" x="6" y="6" width="12" height="12" rx="1"/>
        <path d="M6 16H5v1h1c.001.545.448.999 1 1v1h1v-1h2v1h1v-1h2v1h1v-1h2v1h1v-1c.546-.001 1-.45 1-1.002V7.002c0-.545-.447-1-1-1.002V5h-1v1h-2V5h-1v1h-2V5h-1v1H8V5H7v1a1.007 1.007 0 0 0-1 1H5v1h1v2H5v1h1v2H5v1h1v2zM1 2.991C1 1.891 1.89 1 2.991 1H21.01C22.109 1 23 1.89 23 2.991V21.01c0 1.1-.89 1.991-1.991 1.991H2.99A1.99 1.99 0 0 1 1 21.009V2.99zm2 0V21.01c0-.004-.005-.009-.009-.009H21.01c-.004 0-.009.005-.009.009V2.99c0 .004.005.009.009.009H2.99C2.995 3 3 2.995 3 2.991zM18 13h1v1h-1v-1zm0-3h1v1h-1v-1zm0-3h1v1h-1V7zm0 9h1v1h-1v-1zM7 7h10v10H7V7z"/>
    </g>
</svg>
