<svg width="24" height="24" viewBox="0 0 24 24" xmlns="http://www.w3.org/2000/svg">
    <path d="M12 6C7.062 6 3 4.781 3 4c0-.781 4.062-2 9-2s9 1.219 9 2c0 .781-4.062 2-9 2zm9 3.739c-1.273.947-4.831 1.761-9 1.761s-7.727-.814-9-1.761V6.44C4.985 7.448 8.261 8 12 8s7.015-.552 9-1.56v3.299zm0 5c-1.273.947-4.831 1.761-9 1.761s-7.727-.814-9-1.761v-3.861c1.835 1.013 5.172 1.622 9 1.622 3.828 0 7.165-.609 9-1.622v3.861zM21 19c0 .781-4.062 2-9 2s-9-1.219-9-2v-3.122c1.835 1.013 5.172 1.622 9 1.622 3.828 0 7.165-.609 9-1.622V19zM12 0C5.893 0 1 1.468 1 4v15c0 2.532 4.893 4 11 4s11-1.468 11-4V4c0-2.532-4.893-4-11-4z" fill-rule="evenodd"/>
</svg>
