<svg width="24" height="24" viewBox="0 0 24 24" xmlns="http://www.w3.org/2000/svg">
    <g fill-rule="evenodd">
        <path d="M9.962 10a2 2 0 1 1 4 0 2 2 0 0 1-4 0zm5.46 7H8.503a.509.509 0 0 1-.498-.588 4.001 4.001 0 0 1 7.914 0 .507.507 0 0 1-.497.588z" fill-opacity=".15"/>
        <path d="M22 7v1c.552 0 1 .443 1 .999v1.002A.997.997 0 0 1 22 11v1c.552 0 1 .443 1 .999v1.002A.997.997 0 0 1 22 15v1c.552 0 1 .443 1 .999v1.002A.997.997 0 0 1 22 19v2.998c0 .553-.455 1.002-.992 1.002H2.992A.991.991 0 0 1 2 21.998V20H1v-1h1v-2H1v-1h1v-2H1v-1h1v-2H1v-1h1V8H1V7h1V5H1V4h1V2.002C2 1.45 2.455 1 2.992 1h18.016c.548 0 .992.44.992 1.002V4c.552 0 1 .443 1 .999v1.002A.997.997 0 0 1 22 7zM4 19v-2h1v-1H4v-2h1v-1H4v-2h1v-1H4V8h1V7H4V5h1V4H4V3h16v18H4v-1h1v-1H4zm12.91-2.733c-.266-1.798-1.499-3.263-3.116-3.908A2.984 2.984 0 0 0 14.962 10c0-1.654-1.345-3-3-3-1.654 0-3 1.346-3 3 0 .962.463 1.809 1.17 2.359-1.619.645-2.85 2.11-3.116 3.908-.065.437.064.879.352 1.213a1.5 1.5 0 0 0 1.135.52h6.92c.435 0 .848-.19 1.134-.52.288-.334.416-.776.352-1.213zM9.961 10a2 2 0 1 1 4 0 2 2 0 0 1-4 0zm5.46 7H8.503a.509.509 0 0 1-.498-.588 4.001 4.001 0 0 1 7.914 0 .507.507 0 0 1-.497.588zM14 16h1v1h-1v-1zm-5 0h1v1H9v-1z"/>
    </g>
</svg>
