<svg width="24" height="24" viewBox="0 0 24 24" xmlns="http://www.w3.org/2000/svg">
    <path d="M4.707 18.84C2.273 17.208.574 14.78.12 12 .951 6.912 5.954 3 12 3c.606 0 1.203.04 1.785.115l-1.1 1.905C12.46 5.007 12.23 5 12 5c-4.835 0-9.002 2.987-9.845 7 .432 2.057 1.738 3.844 3.559 5.098L4.707 18.84zm5.732 2.072c.51.058 1.032.088 1.56.088 6.046 0 11.049-3.912 11.88-9-.443-2.713-2.073-5.092-4.414-6.722l-1.007 1.745c1.731 1.246 2.968 2.985 3.387 4.977-.843 4.013-5.01 7-9.845 7-.152 0-.302-.003-.452-.009l-1.11 1.921zm2.62-4.537a4.502 4.502 0 0 0 3.259-5.646l-3.26 5.646zm-1.844-8.807a4.501 4.501 0 0 0-3.446 5.968l3.446-5.968zm6.037-6.457a1 1 0 1 1 1.732 1L6.988 22.889a1 1 0 1 1-1.732-1L17.252 1.111z" fill-rule="evenodd"/>
</svg>
