<svg width="24" height="24" viewBox="0 0 24 24" xmlns="http://www.w3.org/2000/svg">
    <g fill-rule="evenodd">
        <path d="M6.335 7l4.662 6.061V20l1.6-1.2c.191-.144.4-.559.4-.795v-4.944L17.66 7H6.335z" fill-opacity=".15"/>
        <path d="M6 6.565L4.027 4h15.94L18 6.557V6H6v.565zM6.335 7l4.662 6.061V20l1.6-1.2c.191-.144.4-.559.4-.795v-4.944L17.66 7H6.335zm4.05 15.567c-.207 0-.41-.046-.6-.142-.501-.251-.788-.773-.788-1.432V13.74L1.814 4.403c-.575-.746-.365-1.379-.248-1.616.246-.5.764-.787 1.42-.787h18.02c.642 0 1.171.295 1.416.791.248.503.16 1.091-.242 1.612l-7.182 9.337v4.265c0 .866-.506 1.874-1.2 2.394L11.396 22.2c-.325.243-.674.367-1.011.367z"/>
    </g>
</svg>
