<svg width="24" height="24" viewBox="0 0 24 24" xmlns="http://www.w3.org/2000/svg">
    <g fill-rule="evenodd">
        <path d="M10.375 13.11c-3.174.429-5.954 2.1-7.835 4.506A10.995 10.995 0 0 0 12 23c4.023 0 7.542-2.16 9.46-5.384a11.988 11.988 0 0 0-7.835-4.507c.227.886.375 1.707.375 2.343.002.795-.288 1.532-.79 2.024-.353.343-.77.524-1.21.524-1.103 0-2-1.144-2-2.55 0-.634.148-1.454.375-2.34z" fill-opacity=".15"/>
        <path d="M12 0C5.372 0 0 5.372 0 12c0 6.627 5.372 12 12 12 6.627 0 12-5.373 12-12 0-6.628-5.373-12-12-12zm0 22a9.995 9.995 0 0 1-8.762-5.182 11.975 11.975 0 0 1 6.058-3.487c-.18.79-.296 1.52-.296 2.12C9 17.406 10.345 19 12 19c.705 0 1.364-.28 1.907-.809.696-.68 1.095-1.679 1.093-2.742 0-.6-.117-1.33-.297-2.119a11.975 11.975 0 0 1 6.058 3.487A9.995 9.995 0 0 1 12.001 22zm2.428-9.745c-.55-1.944-1.38-4.054-1.967-5.449l-.004-.008h-.915l-.003.008c-.587 1.396-1.419 3.506-1.968 5.45a12.959 12.959 0 0 0-6.798 3.603A9.974 9.974 0 0 1 2 12C2 6.477 6.477 2 12 2c5.522 0 10 4.477 10 10a9.975 9.975 0 0 1-.774 3.86 12.959 12.959 0 0 0-6.798-3.605zM14 15.452c.002.795-.288 1.532-.79 2.024-.353.343-.77.524-1.21.524-1.103 0-2-1.144-2-2.55 0-1.79 1.174-5.056 2-7.13.824 2.072 1.998 5.335 2 7.132zM11 14h2v2h-2v-2zm2.735-10.45l-.415 1.548.966.26.415-1.55a8.629 8.629 0 0 0-.966-.258zm-4.453.259l.414 1.549.967-.26-.416-1.547a8.612 8.612 0 0 0-.965.258zm9.148 2.45l-1.135 1.134-.707-.707 1.133-1.135c.25.222.487.458.709.708zm-12.875.002l1.133 1.132.707-.707-1.132-1.132a8.911 8.911 0 0 0-.708.707zm14.883 3.983l-1.555.417-.26-.966 1.556-.417c.104.314.191.636.259.966zm-16.888.001l1.551.416.258-.966-1.55-.416a8.422 8.422 0 0 0-.259.966z"/>
    </g>
</svg>
