<svg width="24" height="24" viewBox="0 0 24 24" xmlns="http://www.w3.org/2000/svg">
    <path d="M12 9c-1.654 0-3 1.346-3 3s1.346 3 3 3 3-1.346 3-3-1.346-3-3-3zm0 7c-2.206 0-4-1.794-4-4s1.794-4 4-4 4 1.794 4 4-1.794 4-4 4zm-4.309 2.179l.602.343a7.47 7.47 0 0 0 1.717.711l.668.184.228 2.497c.002.03.058.086.103.086h1.982c.051 0 .1-.053.103-.085l.228-2.498.668-.184a7.43 7.43 0 0 0 1.717-.712l.603-.342 1.926 1.605c.023.02.103.019.135-.013l1.4-1.4c.037-.037.035-.11.014-.134l-1.607-1.928.344-.603a7.435 7.435 0 0 0 .71-1.715l.184-.669 2.498-.228c.03-.002.086-.058.086-.103v-1.982c0-.051-.053-.1-.085-.103l-2.499-.228-.184-.669a7.435 7.435 0 0 0-.71-1.715l-.344-.603 1.606-1.927c.02-.023.02-.102-.013-.134l-1.4-1.401c-.037-.038-.111-.034-.136-.013L16.31 5.821l-.603-.342a7.43 7.43 0 0 0-1.717-.712l-.668-.184-.228-2.497c-.002-.03-.058-.086-.103-.086h-1.982c-.051 0-.1.054-.103.086l-.228 2.497-.668.184a7.47 7.47 0 0 0-1.717.711l-.602.343-1.927-1.605c-.024-.02-.103-.02-.134.012L4.229 5.629c-.037.037-.034.109-.013.134l1.605 1.928-.343.602a7.47 7.47 0 0 0-.711 1.717l-.184.668-2.497.228c-.03.002-.086.058-.086.103v1.982c0 .051.054.1.086.103l2.497.228.184.668a7.47 7.47 0 0 0 .711 1.717l.343.602-1.605 1.927c-.019.023-.02.102.012.134l1.401 1.401c.037.036.109.034.134.013l1.928-1.605zm5.3 5.821h-1.982a2.115 2.115 0 0 1-2.095-1.905l-.104-1.144a9.593 9.593 0 0 1-.883-.366l-.883.736a2.116 2.116 0 0 1-2.829-.135l-1.401-1.401a2.115 2.115 0 0 1-.134-2.829l.735-.883a9.593 9.593 0 0 1-.366-.883l-1.144-.104A2.115 2.115 0 0 1 0 12.991v-1.982C0 9.931.837 9.01 1.906 8.914l1.143-.104c.107-.301.23-.595.366-.883l-.736-.883a2.117 2.117 0 0 1 .135-2.829l1.401-1.401a2.114 2.114 0 0 1 2.829-.134l.883.735c.288-.136.582-.259.883-.366l.104-1.144A2.115 2.115 0 0 1 11.009 0h1.982c1.078 0 1.999.837 2.095 1.906l.104 1.143c.3.107.595.229.883.366l.882-.735a2.117 2.117 0 0 1 2.83.134l1.401 1.401c.761.762.822 2.004.135 2.828l-.736.884c.137.288.259.582.365.883l1.146.104A2.115 2.115 0 0 1 24 11.009v1.982a2.115 2.115 0 0 1-1.905 2.095l-1.145.104a9.059 9.059 0 0 1-.365.883l.736.883a2.116 2.116 0 0 1-.135 2.829l-1.401 1.401a2.115 2.115 0 0 1-2.83.134l-.882-.735a9.432 9.432 0 0 1-.883.366l-.104 1.145A2.115 2.115 0 0 1 12.991 24z" fill-rule="evenodd"/>
</svg>
