<svg width="24" height="24" viewBox="0 0 24 24" xmlns="http://www.w3.org/2000/svg">
    <defs>
        <linearGradient x1="50%" y1="0%" x2="50%" y2="100%" id="a">
            <stop stop-color="#FFF" offset="0%"/>
            <stop stop-color="#E3E4E5" offset="100%"/>
        </linearGradient>
    </defs>
    <g fill="url(#a)" fill-rule="evenodd">
        <path d="M4.087 7.71L2.679 5.738c-.32-.447-.265-1.124.135-1.524l1.401-1.4c.394-.395 1.078-.454 1.524-.136l1.97 1.408a8.944 8.944 0 0 1 1.73-.717L9.835.982C9.926.44 10.443 0 11.01 0h1.982c.557 0 1.083.441 1.173.982l.398 2.388c.605.18 1.184.42 1.729.717l1.97-1.408c.447-.32 1.124-.265 1.524.135l1.4 1.401c.395.394.454 1.078.136 1.524l-1.408 1.97c.296.545.538 1.124.717 1.73l2.388.397c.542.09.982.607.982 1.173v1.982c0 .557-.441 1.083-.982 1.173l-2.388.398a8.944 8.944 0 0 1-.717 1.729l1.408 1.97c.32.447.265 1.124-.135 1.524l-1.401 1.4c-.394.395-1.078.454-1.524.136l-1.97-1.408a8.944 8.944 0 0 1-1.73.717l-.397 2.388c-.09.542-.607.982-1.173.982h-1.982c-.557 0-1.083-.441-1.173-.982l-.398-2.388a8.944 8.944 0 0 1-1.729-.717l-1.97 1.408c-.447.32-1.124.265-1.524-.135l-1.4-1.401c-.395-.394-.454-1.078-.136-1.524l1.408-1.97a8.944 8.944 0 0 1-.717-1.73l-2.388-.397C.44 14.074 0 13.557 0 12.99v-1.982c0-.557.441-1.083.982-1.173l2.388-.398c.18-.605.42-1.184.717-1.729zM12 19a7 7 0 1 0 0-14 7 7 0 0 0 0 14zm0-2a5 5 0 1 0 0-10 5 5 0 0 0 0 10zm0-2a3 3 0 1 0 0-6 3 3 0 0 0 0 6z"/>
        <path d="M12 19a7 7 0 1 0 0-14 7 7 0 0 0 0 14zm0-4a3 3 0 1 0 0-6 3 3 0 0 0 0 6z" fill-opacity=".5"/>
    </g>
</svg>
