<svg width="24" height="24" viewBox="0 0 24 24" xmlns="http://www.w3.org/2000/svg">
    <path d="M18.957 20.31a2.5 2.5 0 1 1-1.914-4.618 2.5 2.5 0 0 1 1.914 4.618zm-7.225-7.08l-.525.258a5.3 5.3 0 0 1-.596.248l-.552.188-.358 1.91c-.013.072-.127.166-.2.166H8.499c-.07 0-.187-.097-.2-.166l-.358-1.91-.552-.188a5.3 5.3 0 0 1-.596-.248l-.524-.258-1.605 1.098c-.06.04-.208.029-.26-.024l-.707-.708c-.05-.05-.064-.201-.025-.26l1.098-1.604-.258-.525a4.914 4.914 0 0 1-.246-.594l-.188-.554L2.165 9.7C2.095 9.688 2 9.574 2 9.5V8.499c0-.07.097-.187.165-.2l1.913-.358.188-.553c.069-.205.152-.403.246-.595l.258-.524-1.098-1.606c-.041-.06-.027-.207.024-.258l.709-.71c.049-.048.202-.062.258-.023L6.269 4.77l.524-.258c.192-.094.39-.177.594-.246l.554-.188.358-1.913c.013-.07.128-.165.2-.165H9.5c.07 0 .188.097.2.165l.358 1.913.554.188c.204.069.403.152.594.246l.525.258 1.605-1.098c.062-.041.207-.027.259.024l.708.709c.05.049.064.2.025.258l-1.1 1.606.259.524a5.3 5.3 0 0 1 .248.596l.188.552 1.91.358c.072.013.166.128.166.2V9.5c0 .07-.097.188-.166.2l-1.91.358-.188.552a5.3 5.3 0 0 1-.248.596l-.258.525 1.098 1.604c.04.06.028.208-.024.26l-.708.708c-.05.05-.202.063-.258.025l-1.606-1.1zm11.764 6.053l-1.244-.737a4.284 4.284 0 0 0 0-1.091l1.244-.737a.51.51 0 0 0 .21-.622l-.325-.784a.507.507 0 0 0-.588-.291l-1.401.358a4.263 4.263 0 0 0-.771-.771l.358-1.401a.509.509 0 0 0-.291-.588l-.784-.324a.507.507 0 0 0-.622.209l-.736 1.245a4.291 4.291 0 0 0-1.092-.001l-.736-1.244a.51.51 0 0 0-.622-.21l-.055.024c-.022-.036-.037-.075-.061-.11l-.303-.442.525-.1C17.21 11.48 18 10.527 18 9.502V8.499a2.232 2.232 0 0 0-1.797-2.166l-.526-.098.304-.443c.578-.846.463-2.077-.263-2.801l-.708-.71a2.234 2.234 0 0 0-2.802-.26l-.442.303-.1-.527C11.479.789 10.527 0 9.502 0H8.499a2.233 2.233 0 0 0-2.166 1.797l-.098.527-.442-.303c-.847-.58-2.077-.464-2.802.26l-.71.71a2.232 2.232 0 0 0-.26 2.8l.303.444-.527.098C.789 6.522 0 7.473 0 8.499V9.5c0 1.043.773 1.974 1.797 2.166l.527.099-.303.442c-.578.846-.464 2.076.26 2.802l.71.708c.736.736 1.94.85 2.802.262l.442-.303.098.525C6.522 17.21 7.473 18 8.499 18H9.5a2.232 2.232 0 0 0 2.166-1.797l.099-.526.443.304c.034.023.073.039.108.06l-.023.055a.508.508 0 0 0 .21.622l1.245.737a4.23 4.23 0 0 0-.001 1.09l-1.244.737a.51.51 0 0 0-.21.622l.325.784a.507.507 0 0 0 .588.292l1.4-.36c.226.293.486.55.773.772l-.36 1.402a.51.51 0 0 0 .292.587l.784.325a.508.508 0 0 0 .622-.21l.737-1.244a4.23 4.23 0 0 0 1.09 0l.737 1.244a.51.51 0 0 0 .622.21l.784-.325a.508.508 0 0 0 .292-.588l-.36-1.401c.293-.225.55-.485.772-.771l1.402.359a.51.51 0 0 0 .587-.291l.325-.785a.507.507 0 0 0-.21-.621zM9 11a2 2 0 1 1 0-4 2 2 0 0 1 0 4zm0-5a3 3 0 1 0 0 6 3 3 0 0 0 0-6z" fill-rule="evenodd"/>
</svg>
