<svg width="24" height="24" viewBox="0 0 24 24" xmlns="http://www.w3.org/2000/svg">
    <g fill-rule="evenodd">
        <rect fill-opacity=".2" x="9" y="9" width="9" height="9" rx="1"/>
        <path d="M9 16H8v1h1v.002c0 .552.447.998.998.998H10v1h1v-1h1v1h1v-1h1v1h1v-1h1v1h1v-1h.002a.997.997 0 0 0 .998-.998V9.998A.997.997 0 0 0 17.002 9H17V8h-1v1h-1V8h-1v1h-1V8h-1v1h-1V8h-1v1h-.002A.997.997 0 0 0 9 9.998V10H8v1h1v1H8v1h1v1H8v1h1v1zM1 2.991C1 1.891 1.89 1 2.991 1H21.01C22.109 1 23 1.89 23 2.991V21.01c0 1.1-.89 1.991-1.991 1.991H2.99A1.99 1.99 0 0 1 1 21.009V2.99zm2.009 0V21.01c0-.004-.005-.009-.009-.009h18.009c-.004 0-.009.005-.009.009V2.99c0 .004.005.009.009.009H3c.004 0 .009-.005.009-.009zM18 14h1v1h-1v-1zm0-2h1v1h-1v-1zm0-2h1v1h-1v-1zm0 6h1v1h-1v-1zm-8-6h7v7h-7v-7z"/>
    </g>
</svg>
