<svg width="24" height="24" viewBox="0 0 24 24" xmlns="http://www.w3.org/2000/svg">
    <g fill-rule="evenodd">
        <path d="M21 15.73v-5.271c-.866-1.546-2.083-2.41-3.75-2.41-1.793 0-3.053 1.306-4.804 4.478-.028.05-.78 1.434-1 1.82-1.378 2.437-2.44 3.554-4.049 3.554-1.911 0-2.692-.982-3.662-3.46l-.1-.258c-.225-.572-.429-1.03-.635-1.395V21h18v-5.27z" fill-opacity=".15"/>
        <path d="M1 2.991C1 1.891 1.89 1 2.991 1H21.01C22.109 1 23 1.89 23 2.991V21.01c0 1.1-.89 1.991-1.991 1.991H2.99A1.99 1.99 0 0 1 1 21.009V2.99zM3 3h18v18H3V3zm14.25 4.05c-2.217 0-3.708 1.421-5.68 4.994l-.525.961c-.226.414-.389.709-.469.85C9.272 16.16 8.461 16.9 7.397 16.9c-1.308 0-1.83-.521-2.73-2.825l-.051-.13c-.02-.048-.02-.048-.05-.128-.253-.644-.472-1.127-.696-1.522L3 10.759v2.03c.206.363.41.822.634 1.394l.101.257c.97 2.48 1.75 3.461 3.662 3.461 1.609 0 2.67-1.117 4.05-3.554.218-.386.971-1.77.999-1.82 1.75-3.172 3.011-4.478 4.804-4.478 1.667 0 2.884.864 3.75 2.41V8.732c-.982-1.1-2.239-1.683-3.75-1.683z"/>
    </g>
</svg>
