<svg width="24" height="24" viewBox="0 0 24 24" xmlns="http://www.w3.org/2000/svg">
    <defs>
        <linearGradient x1="50%" y1="0%" x2="50%" y2="100%" id="a">
            <stop stop-color="#FFF" offset="0%"/>
            <stop stop-color="#E3E4E5" offset="100%"/>
        </linearGradient>
        <linearGradient x1="50%" y1="100%" x2="50%" y2="0%" id="b">
            <stop stop-opacity=".4" offset="0%"/>
            <stop stop-opacity=".2" offset="100%"/>
        </linearGradient>
    </defs>
    <g fill="none" fill-rule="evenodd">
        <rect fill="url(#a)" x="1" y="1" width="22" height="22" rx="2"/>
        <path d="M23 5.29V21.01c0 1.1-.89 1.991-1.991 1.991H2.99A1.99 1.99 0 0 1 1 21.009V9.489c4.652.49 3.175 8.02 7.554 8.02C13.081 17.508 14.38 5 21.063 5c.71 0 1.354.104 1.937.29z" fill="url(#b)"/>
        <path d="M1 2.991C1 1.891 1.89 1 2.991 1H21.01C22.109 1 23 1.89 23 2.991V21.01c0 1.1-.89 1.991-1.991 1.991H2.99A1.99 1.99 0 0 1 1 21.009V2.99zm1 0A1 1 0 0 1 2.992 2h18.016a1 1 0 0 1 .992.992v18.016a1 1 0 0 1-.992.992H2.992A1 1 0 0 1 2 21.008V2.992z" fill-opacity=".15"/>
    </g>
</svg>
