<svg width="24" height="24" viewBox="0 0 24 24" xmlns="http://www.w3.org/2000/svg">
    <g fill-rule="evenodd">
        <circle fill-opacity=".2" cx="12" cy="11" r="6"/>
        <path d="M8 22h2v-1H8v1zm-1 0H3V2h18v20h-4v-1h4v-1H3v1h4v1zm4 0h2v-1h-2v1zm3 0h2v-1h-2v1zM1 2.005C1 .898 1.89 0 2.991 0H21.01C22.109 0 23 .897 23 2.005v19.99C23 23.102 22.11 24 21.009 24H2.99C1.891 24 1 23.103 1 21.995V2.005zM12 18a7 7 0 1 1 0-14 7 7 0 0 1 0 14zm0-1a6 6 0 1 0 0-12 6 6 0 0 0 0 12zm0-4a2 2 0 1 1 0-4 2 2 0 0 1 0 4zm0-1a1 1 0 1 0 0-2 1 1 0 0 0 0 2zm6 6c0-.552.444-1 1-1 .552 0 1 .444 1 1 0 .552-.444 1-1 1-.552 0-1-.444-1-1zM4 18c0-.552.444-1 1-1 .552 0 1 .444 1 1 0 .552-.444 1-1 1-.552 0-1-.444-1-1zM18 4c0-.552.444-1 1-1 .552 0 1 .444 1 1 0 .552-.444 1-1 1-.552 0-1-.444-1-1zM4 4c0-.552.444-1 1-1 .552 0 1 .444 1 1 0 .552-.444 1-1 1-.552 0-1-.444-1-1z"/>
    </g>
</svg>
