<svg width="24" height="24" viewBox="0 0 24 24" xmlns="http://www.w3.org/2000/svg">
    <path d="M3.847 13C2.646 11.28 2 9.771 2 8.586 2 6.106 4.208 4.01 6.821 4.01c1.973 0 3.711 1.653 4.418 2.415.213.199.484.309.766.309l.521-.04.297-.321C13.64 5.487 15.293 4 17.178 4 19.792 4 22 6.096 22 8.576c0 .882-.367 2.301-1.86 4.424H15.5l.474.342-1-3-.474-1.423-.474 1.423-2 6 .96.037-2-8-.376-1.5-.574 1.435-2 5L8.5 13H3.847zm.743 1c1.636 2.083 3.998 4.42 6.947 6.832.401.333.714.185.94-.004l.231-.194a59.534 59.534 0 0 0 2.006-1.742 50.344 50.344 0 0 0 3.47-3.461c.452-.505.853-.981 1.208-1.431H15.14l-.114-.342-1-3h.948l-2 6-.543 1.629-.416-1.666-2-8 .95.065-2 5-.126.314H4.59zm7.415 9a2.722 2.722 0 0 1-1.74-.625C6.434 19.244 0 13.28 0 8.585 0 5.023 3.123 2.01 6.821 2.01c2.19 0 4.023 1.273 5.183 2.35C13.134 3.303 14.98 2 17.178 2 20.876 2 24 5.012 24 8.576c0 2.26-1.416 4.94-4.328 8.19a52.205 52.205 0 0 1-3.61 3.603 61.816 61.816 0 0 1-2.069 1.797l-.233.196a2.75 2.75 0 0 1-1.755.638z" fill-rule="evenodd"/>
</svg>
