<svg width="24" height="24" viewBox="0 0 24 24" xmlns="http://www.w3.org/2000/svg">
    <path d="M12.005 23a2.722 2.722 0 0 1-1.74-.625C6.434 19.244 0 13.28 0 8.585 0 5.023 3.123 2.01 6.821 2.01c2.19 0 4.023 1.273 5.183 2.35C13.134 3.303 14.98 2 17.178 2 20.876 2 24 5.012 24 8.576c0 2.26-1.416 4.94-4.328 8.19a52.205 52.205 0 0 1-3.61 3.603 61.816 61.816 0 0 1-2.069 1.797l-.233.196a2.75 2.75 0 0 1-1.755.638zM6.821 4.01c-2.613 0-4.82 2.096-4.82 4.576 0 2.786 3.564 7.363 9.536 12.246.401.333.714.185.94-.004l.231-.194a59.534 59.534 0 0 0 2.006-1.742 50.344 50.344 0 0 0 3.47-3.461C21.337 11.91 22 9.76 22 8.576 22 6.096 19.792 4 17.178 4c-1.886 0-3.539 1.487-4.355 2.373l-.297.322-.52.039a1.12 1.12 0 0 1-.767-.31c-.707-.761-2.445-2.414-4.418-2.414z" fill-rule="evenodd"/>
</svg>
