<svg width="24" height="24" viewBox="0 0 24 24" xmlns="http://www.w3.org/2000/svg">
    <path d="M16 0a8 8 0 0 0-7.576 10.576L0 19v5h6l1-1v-1.51c0-.27.215-.49.49-.49H9l1-1v-1.51c0-.27.215-.49.49-.49H12l2.203-2.203A8 8 0 1 0 16 0zm0 2c3.308 0 6 2.692 6 6a6.007 6.007 0 0 1-7.35 5.848l-1.079-.248-.783.783L11.172 16h-.682A2.493 2.493 0 0 0 8 18.49V19h-.51A2.493 2.493 0 0 0 5 21.49V22H2v-2.172l7.838-7.838.88-.879-.401-1.179A6.007 6.007 0 0 1 16 2zm1.5 7a2.5 2.5 0 1 1 0-5 2.5 2.5 0 0 1 0 5zm0-1a1.5 1.5 0 1 0 0-3 1.5 1.5 0 0 0 0 3z" fill-rule="evenodd"/>
</svg>
