<svg width="24" height="24" viewBox="0 0 24 24" xmlns="http://www.w3.org/2000/svg">
    <g fill-rule="evenodd">
        <path d="M7.416 10H1.181a11.063 11.063 0 0 0 0 4h6.235A4.983 4.983 0 0 1 7 12c0-.711.148-1.388.416-2zM10 7.416V1.181a11.063 11.063 0 0 1 4 0v6.235A4.983 4.983 0 0 0 12 7c-.711 0-1.388.148-2 .416zM16.584 10h6.235a11.063 11.063 0 0 1 0 4h-6.235A4.983 4.983 0 0 0 17 12c0-.711-.148-1.388-.416-2zM14 16.584v6.235a11.063 11.063 0 0 1-4 0v-6.235A4.983 4.983 0 0 0 12 17c.711 0 1.388-.148 2-.416z" fill-opacity=".15"/>
        <path d="M13.999 21.8a10.046 10.046 0 0 1-4 0v-4.142A5.99 5.99 0 0 0 12 18c.7 0 1.374-.12 1.999-.341V21.8zm1-.257a10.024 10.024 0 0 0 6.544-6.544h-4.345a6.03 6.03 0 0 1-2.199 2.199v4.345zm-6-.001a10.024 10.024 0 0 1-6.542-6.543h4.345A6.03 6.03 0 0 0 9 17.197v4.345zm-6.8-7.543a10.046 10.046 0 0 1 .001-4h4.142A5.99 5.99 0 0 0 6 12c0 .7.12 1.374.341 1.999H2.2zm.26-5a10.024 10.024 0 0 1 6.54-6.54v4.344A6.03 6.03 0 0 0 6.803 9H2.458zM9.998 2.2a10.046 10.046 0 0 1 4 0V6.34A5.99 5.99 0 0 0 12 6a5.99 5.99 0 0 0-2.001.342V2.2zm5 .257A10.024 10.024 0 0 1 21.542 9h-4.345a6.03 6.03 0 0 0-2.198-2.197V2.457zm6.8 7.542a10.046 10.046 0 0 1 .001 4H17.66A5.99 5.99 0 0 0 18 12a5.99 5.99 0 0 0-.342-2.001H21.8zM12 24c6.627 0 12-5.373 12-12S18.627 0 12 0 0 5.373 0 12s5.373 12 12 12zm0-8a4 4 0 1 0 0-8 4 4 0 0 0 0 8z"/>
    </g>
</svg>
