<svg width="24" height="24" viewBox="0 0 24 24" xmlns="http://www.w3.org/2000/svg">
    <g fill-rule="evenodd">
        <path d="M4 15h3v4H4v-4zm4 0h3v4H8v-4zm4 0h3v4h-3v-4zm4 0h3v4h-3v-4zM4 3h3v4H4V3zm4 0h3v4H8V3zm4 0h3v4h-3V3zm4 0h3v4h-3V3z" fill-opacity=".15"/>
        <path d="M21 12H2a2 2 0 0 0-2 1.992v1.093a1.502 1.502 0 0 1 0 2.83v3.093C0 22.1.895 23 2 23H21A2 2 0 0 0 23 21.008v-3.093a1.5 1.5 0 0 1 0-2.83v-1.093A2.002 2.002 0 0 0 21 12zm0 1.992v.06a3.498 3.498 0 0 0 0 4.896V21l-19 .008v-2.06c.626-.64 1-1.513 1-2.448 0-.934-.373-1.807-.999-2.448V14H21l.001-.008zM19 20h1v1h-1v-1zm-2 0h1v1h-1v-1zm-2 0h1v1h-1v-1zm-2 0h1v1h-1v-1zm-2 0h1v1h-1v-1zm-2 0h1v1H9v-1zm-2 0h1v1H7v-1zm-2 0h1v1H5v-1zm-2 0h1v1H3v-1zm13-5h3v4h-3v-4zm1 1h1v2h-1v-2zm-5-1h3v4h-3v-4zm1 1h1v2h-1v-2zm-5-1h3v4H8v-4zm1 1h1v2H9v-2zm-5-1h3v4H4v-4zm1 1h1v2H5v-2zM21 0H2a2 2 0 0 0-2 1.992v1.093a1.502 1.502 0 0 1 0 2.83v3.093C0 10.1.895 11 2 11H21A2 2 0 0 0 23 9.008V5.915a1.5 1.5 0 0 1 0-2.83V1.992A2.002 2.002 0 0 0 21 0zm0 1.992v.06a3.498 3.498 0 0 0 0 4.896V9L2 9.008v-2.06c.626-.64 1-1.513 1-2.448 0-.934-.373-1.807-.999-2.448V2H21L21 1.992zM19 8h1v1h-1V8zm-2 0h1v1h-1V8zm-2 0h1v1h-1V8zm-2 0h1v1h-1V8zm-2 0h1v1h-1V8zM9 8h1v1H9V8zM7 8h1v1H7V8zM5 8h1v1H5V8zM3 8h1v1H3V8zm13-5h3v4h-3V3zm1 1h1v2h-1V4zm-5-1h3v4h-3V3zm1 1h1v2h-1V4zM8 3h3v4H8V3zm1 1h1v2H9V4zM4 3h3v4H4V3zm1 1h1v2H5V4z"/>
    </g>
</svg>
