<svg width="24" height="24" viewBox="0 0 24 24" xmlns="http://www.w3.org/2000/svg">
    <g fill-rule="evenodd">
        <path d="M20 22.6a2.5 2.5 0 1 0 0-5 2.5 2.5 0 0 0 0 5zm-8 0a2.5 2.5 0 1 0 0-5 2.5 2.5 0 0 0 0 5zm-8 0a2.5 2.5 0 1 0 0-5 2.5 2.5 0 0 0 0 5z" fill-opacity=".15"/>
        <path d="M11 13v3.645a3.502 3.502 0 0 0 1 6.855 3.5 3.5 0 0 0 1-6.855V13h6.005c-.007 0-.005.002-.005.009v3.636a3.502 3.502 0 0 0 1 6.855 3.5 3.5 0 0 0 1-6.855v-3.636A2.004 2.004 0 0 0 19.005 11H13V8h-2v3H4.995C3.893 11 3 11.9 3 13.009v3.636A3.502 3.502 0 0 0 4 23.5a3.5 3.5 0 0 0 1-6.855v-3.636C5 13 5 13 4.995 13H11zm9 8.5a1.5 1.5 0 1 1 0-3 1.5 1.5 0 0 1 0 3zm-8 0a1.5 1.5 0 1 1 0-3 1.5 1.5 0 0 1 0 3zm-8 0a1.5 1.5 0 1 1 0-3 1.5 1.5 0 0 1 0 3zM12 8a4 4 0 1 0 0-8 4 4 0 0 0 0 8zm0-2a2 2 0 1 1 0-4 2 2 0 0 1 0 4z"/>
    </g>
</svg>
