<svg width="24" height="24" viewBox="0 0 24 24" xmlns="http://www.w3.org/2000/svg">
    <g fill-rule="evenodd">
        <path d="M5 13.99c0-.546.451-.99.99-.99h4.02c.546 0 .99.451.99.99v4.02c0 .546-.451.99-.99.99H5.99a.996.996 0 0 1-.99-.99v-4.02zm8-8c0-.546.451-.99.99-.99h4.02c.546 0 .99.451.99.99v4.02c0 .546-.451.99-.99.99h-4.02a.996.996 0 0 1-.99-.99V5.99zm-8 0c0-.546.451-.99.99-.99h4.02c.546 0 .99.451.99.99v4.02c0 .546-.451.99-.99.99H5.99a.996.996 0 0 1-.99-.99V5.99z" fill-opacity=".15"/>
        <path d="M1 2.991C1 1.891 1.89 1 2.991 1H21.01C22.109 1 23 1.89 23 2.991V21.01c0 1.1-.89 1.991-1.991 1.991H2.99A1.99 1.99 0 0 1 1 21.009V2.99zM3 3h18v18H3V3zm10 10.99c0-.546.451-.99.99-.99h4.02c.546 0 .99.451.99.99v4.02c0 .546-.451.99-.99.99h-4.02a.996.996 0 0 1-.99-.99v-4.02zm1 .01h4v4h-4v-4zm-9-.01c0-.546.451-.99.99-.99h4.02c.546 0 .99.451.99.99v4.02c0 .546-.451.99-.99.99H5.99a.996.996 0 0 1-.99-.99v-4.02zM6 14h4v4H6v-4zm7-8.01c0-.546.451-.99.99-.99h4.02c.546 0 .99.451.99.99v4.02c0 .546-.451.99-.99.99h-4.02a.996.996 0 0 1-.99-.99V5.99zM14 6h4v4h-4V6zm-9-.01c0-.546.451-.99.99-.99h4.02c.546 0 .99.451.99.99v4.02c0 .546-.451.99-.99.99H5.99a.996.996 0 0 1-.99-.99V5.99zM6 6h4v4H6V6z"/>
    </g>
</svg>
