<svg width="24" height="24" viewBox="0 0 24 24" xmlns="http://www.w3.org/2000/svg">
    <defs>
        <linearGradient x1="50%" y1="100%" x2="50%" y2="0%" id="a">
            <stop stop-opacity=".4" offset="0%"/>
            <stop stop-opacity=".2" offset="100%"/>
        </linearGradient>
        <linearGradient x1="50%" y1="0%" x2="50%" y2="100%" id="b">
            <stop stop-color="#FFF" offset="0%"/>
            <stop stop-color="#E3E4E5" offset="100%"/>
        </linearGradient>
    </defs>
    <g fill="none" fill-rule="evenodd">
        <rect fill="url(#a)" x="13" y="13" width="10" height="10" rx="2"/>
        <path d="M1 15c0-1.105.887-2 2-2h6c1.105 0 2 .887 2 2v6c0 1.105-.887 2-2 2H3c-1.105 0-2-.887-2-2v-6zM13 3c0-1.105.887-2 2-2h6c1.105 0 2 .887 2 2v6c0 1.105-.887 2-2 2h-6c-1.105 0-2-.887-2-2V3zM1 3c0-1.105.887-2 2-2h6c1.105 0 2 .887 2 2v6c0 1.105-.887 2-2 2H3c-1.105 0-2-.887-2-2V3z" fill="url(#b)"/>
        <path d="M13 15c0-1.105.887-2 2-2h6c1.105 0 2 .887 2 2v6c0 1.105-.887 2-2 2h-6c-1.105 0-2-.887-2-2v-6zm1-.003c0-.55.453-.997.997-.997h6.006c.55 0 .997.453.997.997v6.006c0 .55-.453.997-.997.997h-6.006c-.55 0-.997-.453-.997-.997v-6.006zM1 15c0-1.105.887-2 2-2h6c1.105 0 2 .887 2 2v6c0 1.105-.887 2-2 2H3c-1.105 0-2-.887-2-2v-6zm1-.003c0-.55.453-.997.997-.997h6.006c.55 0 .997.453.997.997v6.006c0 .55-.453.997-.997.997H2.997c-.55 0-.997-.453-.997-.997v-6.006zM13 3c0-1.105.887-2 2-2h6c1.105 0 2 .887 2 2v6c0 1.105-.887 2-2 2h-6c-1.105 0-2-.887-2-2V3zm1-.003c0-.55.453-.997.997-.997h6.006c.55 0 .997.453.997.997v6.006c0 .55-.453.997-.997.997h-6.006c-.55 0-.997-.453-.997-.997V2.997zM1 3c0-1.105.887-2 2-2h6c1.105 0 2 .887 2 2v6c0 1.105-.887 2-2 2H3c-1.105 0-2-.887-2-2V3zm1-.003c0-.55.453-.997.997-.997h6.006c.55 0 .997.453.997.997v6.006c0 .55-.453.997-.997.997H2.997C2.447 10 2 9.547 2 9.003V2.997z" fill-opacity=".15"/>
    </g>
</svg>
