<svg width="24" height="24" viewBox="0 0 24 24" xmlns="http://www.w3.org/2000/svg">
    <path d="M16.008 17.182l-1.074-1.187 1.06-1.06 1.188 1.073a3.48 3.48 0 0 1 .988-.409L18.25 14h1.5l.08 1.599c.353.086.686.225.988.41l1.187-1.075 1.06 1.06-1.073 1.188c.184.302.323.635.409.988l1.599.08v1.5l-1.599.08a3.48 3.48 0 0 1-.41.988l1.075 1.187-1.06 1.06-1.188-1.073a3.48 3.48 0 0 1-.988.409L19.75 24h-1.5l-.08-1.599a3.48 3.48 0 0 1-.988-.41l-1.187 1.075-1.06-1.06 1.073-1.188a3.48 3.48 0 0 1-.409-.988L14 19.75v-1.5l1.599-.08a3.48 3.48 0 0 1 .41-.988zM21 11V1H3v22h8v-2H5V3h14v8h2zM7 7h10v1H7V7zm0 3h10v1H7v-1zm12 11a2 2 0 1 0 0-4 2 2 0 0 0 0 4z" fill-rule="evenodd"/>
</svg>
