<svg width="24" height="24" viewBox="0 0 24 24" xmlns="http://www.w3.org/2000/svg">
    <path d="M21 11V1H3v22h8v-2H5V3h14v8h2zM7 7h10v1H7V7zm0 3h10v1H7v-1zm9 5.498c0-.275.214-.498.505-.498H17v-1h-2c-.556 0-1 .449-1 1.003V18h-1v1h1v2.997A.994.994 0 0 0 15 23h2v-1h-.495a.496.496 0 0 1-.505-.498V19h-.245a.508.508 0 0 1-.505-.5c0-.276.214-.5.505-.5H16v-2.502zm4 0a.494.494 0 0 0-.505-.498H19v-1h2c.556 0 1 .449 1 1.003V18h1v1h-1v2.997A.994.994 0 0 1 21 23h-2v-1h.495a.496.496 0 0 0 .505-.498V19h.245a.508.508 0 0 0 .505-.5c0-.276-.214-.5-.505-.5H20v-2.502z" fill-rule="evenodd"/>
</svg>
