<svg width="24" height="24" viewBox="0 0 24 24" xmlns="http://www.w3.org/2000/svg">
    <g fill-rule="evenodd">
        <path d="M17 20h6V0H7v4h10v16z" fill-opacity=".15"/>
        <path d="M12.48 18.69a2.983 2.983 0 0 1-.79.79l.36 1-1.039.43-.453-.962c-.363.069-.741.072-1.116 0l-.453.963-1.04-.43.361-1.001a2.983 2.983 0 0 1-.79-.79l-1 .36-.43-1.039.962-.453a2.983 2.983 0 0 1 0-1.116l-.963-.453.43-1.04 1.001.361c.215-.316.485-.581.79-.79l-.36-1 1.039-.43.453.962c.363-.069.741-.072 1.116 0l.453-.963 1.04.43-.361 1.001c.316.215.581.485.79.79l1-.36.43 1.039-.962.453c.069.363.072.741 0 1.116l.963.453-.43 1.04-1.001-.361zM17 20h6V0H7v4h2V2h12v16h-4v2zM1 4h16v20H1V4zm2 2h12v16H3V6zm2 3h8v1H5V9zm0 2h4v1H5v-1zm4.235 7.848a2 2 0 1 0 1.53-3.696 2 2 0 0 0-1.53 3.696z"/>
    </g>
</svg>
