<svg width="24" height="24" viewBox="0 0 24 24" xmlns="http://www.w3.org/2000/svg">
    <defs>
        <linearGradient x1="50%" y1="0%" x2="50%" y2="100%" id="a">
            <stop stop-color="#FFF" offset="0%"/>
            <stop stop-color="#E3E4E5" offset="100%"/>
        </linearGradient>
    </defs>
    <g fill="url(#a)" fill-rule="evenodd">
        <path d="M7 18v2h16V0H7v10h-.342c-.466 0-.816.123-1.052.37-.235.246-.353.588-.353 1.024v1.1c0 .38-.106.653-.318.822-.212.17-.523.254-.935.254v.86c.406 0 .716.08.93.241.215.16.323.45.323.869v1.075c0 .465.122.812.367 1.04.244.23.59.345 1.038.345H7zm0-.96V10.96a1.612 1.612 0 0 0-.15.022.59.59 0 0 0-.282.129.516.516 0 0 0-.152.262c-.03.112-.045.257-.045.434v.981c0 .379-.107.658-.322.839-.215.18-.495.285-.84.314v.086c.34.023.618.133.836.331.217.198.326.483.326.856v.98c0 .178.015.323.045.435.03.112.08.2.152.262a.593.593 0 0 0 .287.13c.044.008.093.015.145.02z" fill-opacity=".5"/>
        <path d="M1 4h16v20H1V4zm4.253 11.54c0-.419-.108-.708-.322-.869-.215-.16-.525-.24-.931-.24v-.861c.412 0 .723-.085.935-.254.212-.169.318-.443.318-.821v-1.101c0-.436.118-.778.353-1.024.236-.247.586-.37 1.052-.37H8v.946h-.716c-.173 0-.318.012-.434.035a.59.59 0 0 0-.282.129.516.516 0 0 0-.152.262c-.03.112-.045.257-.045.434v.981c0 .379-.107.658-.322.839-.215.18-.495.285-.84.314v.086c.34.023.618.133.836.331.217.198.326.483.326.856v.98c0 .178.015.323.045.435.03.112.08.2.152.262a.593.593 0 0 0 .287.13c.119.022.265.034.438.034H8V18H6.658c-.448 0-.794-.115-1.038-.344-.245-.23-.367-.576-.367-1.04V15.54zm7.494 0c0-.419.108-.708.322-.869.215-.16.525-.24.931-.24v-.861c-.412 0-.723-.085-.935-.254-.212-.169-.318-.443-.318-.821v-1.101c0-.436-.118-.778-.353-1.024-.236-.247-.586-.37-1.052-.37H10v.946h.716c.173 0 .318.012.434.035a.59.59 0 0 1 .282.129c.071.063.122.15.152.262.03.112.045.257.045.434v.981c0 .379.107.658.322.839.215.18.495.285.84.314v.086c-.34.023-.618.133-.836.331-.217.198-.326.483-.326.856v.98c0 .178-.015.323-.045.435-.03.112-.08.2-.152.262a.593.593 0 0 1-.287.13c-.119.022-.265.034-.438.034H10V18h1.342c.448 0 .794-.115 1.038-.344.245-.23.367-.576.367-1.04V15.54z"/>
    </g>
</svg>
