<svg width="24" height="24" viewBox="0 0 24 24" xmlns="http://www.w3.org/2000/svg">
    <path d="M2.047 11.947l9.9-9.9a7.008 7.008 0 0 1 9.9 0 7.008 7.008 0 0 1 0 9.9l-.003.002a.996.996 0 0 1-1.412-.002 1.003 1.003 0 0 1-.002-1.413l.002-.002a5.006 5.006 0 0 0 0-7.07 5.006 5.006 0 0 0-7.071 0l-9.9 9.899a5.006 5.006 0 0 0 0 7.07 5.006 5.006 0 0 0 7.071 0l4.95-4.949a3.004 3.004 0 0 0 0-4.243 3.004 3.004 0 0 0-4.243 0L7 15.48a.999.999 0 0 1-1.416.002.994.994 0 0 1 .002-1.416l4.24-4.24a5.006 5.006 0 0 1 7.071 0 5.006 5.006 0 0 1 0 7.07l-4.95 4.95a7.008 7.008 0 0 1-9.899 0 7.008 7.008 0 0 1 0-9.9z" fill-rule="evenodd"/>
</svg>
