<svg width="24" height="24" viewBox="0 0 24 24" xmlns="http://www.w3.org/2000/svg">
    <path d="M3.515 20.485c-4.687-4.686-4.687-12.284 0-16.97 4.686-4.687 12.284-4.687 16.97 0 4.687 4.686 4.687 12.284 0 16.97-4.686 4.687-12.284 4.687-16.97 0zm1.414-1.414c3.905 3.905 10.237 3.905 14.142 0 3.905-3.905 3.905-10.237 0-14.142-3.905-3.905-10.237-3.905-14.142 0-3.905 3.905-3.905 10.237 0 14.142zM12 13.414l3.536 3.536 1.414-1.414L13.414 12l3.536-3.536-1.414-1.414L12 10.586 8.464 7.05 7.05 8.464 10.586 12 7.05 15.536l1.414 1.414L12 13.414z" fill-rule="evenodd"/>
</svg>
