<svg width="24" height="24" viewBox="0 0 24 24" xmlns="http://www.w3.org/2000/svg">
    <path d="M3.515 20.485c-4.687-4.686-4.687-12.284 0-16.97 4.686-4.687 12.284-4.687 16.97 0 4.687 4.686 4.687 12.284 0 16.97-4.686 4.687-12.284 4.687-16.97 0zm1.414-1.414c3.905 3.905 10.237 3.905 14.142 0 3.905-3.905 3.905-10.237 0-14.142-3.905-3.905-10.237-3.905-14.142 0-3.905 3.905-3.905 10.237 0 14.142zM16.5 7.5l-6.293 6.294L7.914 11.5 6.5 12.913l3.707 3.708 7.707-7.707L16.5 7.5z" fill-rule="evenodd"/>
</svg>
