<svg width="24" height="24" viewBox="0 0 24 24" xmlns="http://www.w3.org/2000/svg">
    <path d="M12 24c6.627 0 12-5.373 12-12S18.627 0 12 0 0 5.373 0 12s5.373 12 12 12zm0-2c5.523 0 10-4.477 10-10S17.523 2 12 2 2 6.477 2 12s4.477 10 10 10zM10 8.99C10 7.894 10.897 7 12 7c1.104 0 2 .894 2 1.99 0 .292-.215.81-.418 1.014l-1.578 1.579C11.425 12.162 11 13.187 11 14h2c0-.283.214-.799.418-1.003l1.578-1.579C15.575 10.84 16 9.812 16 8.991A3.998 3.998 0 0 0 12 5C9.794 5 8 6.787 8 8.99V10h2V8.99zM11 16h2v2h-2v-2z" fill-rule="evenodd"/>
</svg>
