<svg width="24" height="24" viewBox="0 0 24 24" xmlns="http://www.w3.org/2000/svg">
    <defs>
        <linearGradient x1="50%" y1="0%" x2="50%" y2="100%" id="a">
            <stop stop-color="#FFF" offset="0%"/>
            <stop stop-color="#E3E4E5" offset="100%"/>
        </linearGradient>
    </defs>
    <g fill="url(#a)" fill-rule="evenodd">
        <path d="M11 0h2v24h-2V0zm9 13h1v9h-1v-9zM3 13h1v9H3v-9zM20 2h1v9h-1V2zM3 2h1v9H3V2zm6 14c0-.552.444-1 1-1 .552 0 1 .444 1 1 0 .552-.444 1-1 1-.552 0-1-.444-1-1zM9 5c0-.552.444-1 1-1 .552 0 1 .444 1 1 0 .552-.444 1-1 1-.552 0-1-.444-1-1zM6 5c0-.552.444-1 1-1 .552 0 1 .444 1 1 0 .552-.444 1-1 1-.552 0-1-.444-1-1zm0 11c0-.552.444-1 1-1 .552 0 1 .444 1 1 0 .552-.444 1-1 1-.552 0-1-.444-1-1z" fill-opacity=".5"/>
        <path d="M1 13.998c0-.551.44-.998 1.002-.998h19.996a1 1 0 0 1 1.002.998v7.004c0 .551-.44.998-1.002.998H2.002A1 1 0 0 1 1 21.002v-7.004zm0-11C1 2.447 1.44 2 2.002 2h19.996A1 1 0 0 1 23 2.998v7.004c0 .551-.44.998-1.002.998H2.002A1 1 0 0 1 1 10.002V2.998zM20 13h1v9h-1v-9zM3 13h1v9H3v-9zM20 2h1v9h-1V2zM3 2h1v9H3V2zm6 14c0-.552.444-1 1-1 .552 0 1 .444 1 1 0 .552-.444 1-1 1-.552 0-1-.444-1-1zM9 5c0-.552.444-1 1-1 .552 0 1 .444 1 1 0 .552-.444 1-1 1-.552 0-1-.444-1-1zM6 5c0-.552.444-1 1-1 .552 0 1 .444 1 1 0 .552-.444 1-1 1-.552 0-1-.444-1-1zm0 11c0-.552.444-1 1-1 .552 0 1 .444 1 1 0 .552-.444 1-1 1-.552 0-1-.444-1-1z"/>
    </g>
</svg>
