<svg width="24" height="24" viewBox="0 0 24 24" xmlns="http://www.w3.org/2000/svg">
    <path d="M9 17h9v-1H9v1zm-3 1h2v-2H6v2zm3-7h9v-1H9v1zm-3 1h2v-2H6v2zm3-7h9V4H9v1zm12 10.498a.494.494 0 0 0-.5-.498c-.268 0-.5.223-.5.498v4.004c0 .283.224.498.5.498.268 0 .5-.223.5-.498v-4.004zM5 20h14v-5H5v5zm-1-4.502A.494.494 0 0 0 3.5 15c-.268 0-.5.223-.5.498v4.004c0 .283.224.498.5.498.268 0 .5-.223.5-.498v-4.004zM3 7.502c0 .283.224.498.5.498.268 0 .5-.223.5-.498V3.498A.494.494 0 0 0 3.5 3c-.268 0-.5.223-.5.498v4.004zM5 8h14V3H5v5zm0 6h14V9H5v5zm-1.5 0c.268 0 .5-.223.5-.498V9.498A.494.494 0 0 0 3.5 9c-.268 0-.5.223-.5.498v4.004c0 .283.224.498.5.498zM21 9.498A.494.494 0 0 0 20.5 9c-.268 0-.5.223-.5.498v4.004c0 .283.224.498.5.498.268 0 .5-.223.5-.498V9.498zm-1-1.996c0 .283.224.498.5.498.268 0 .5-.223.5-.498V3.498A.494.494 0 0 0 20.5 3c-.268 0-.5.223-.5.498v4.004zm3 12.501A2 2 0 0 1 20.995 22H3.005A2.002 2.002 0 0 1 1 20.003V2.997A2 2 0 0 1 3.005 1h17.99C22.102 1 23 1.896 23 2.997v17.006zM6 6h2V4H6v2z" fill-rule="evenodd"/>
</svg>
