<svg width="24" height="24" viewBox="0 0 24 24" xmlns="http://www.w3.org/2000/svg">
    <defs>
        <linearGradient x1="50%" y1="100%" x2="50%" y2="0%" id="a">
            <stop stop-opacity=".4" offset="0%"/>
            <stop stop-opacity=".2" offset="100%"/>
        </linearGradient>
        <linearGradient x1="50%" y1="0%" x2="50%" y2="100%" id="b">
            <stop stop-color="#FFF" offset="0%"/>
            <stop stop-color="#E3E4E5" offset="100%"/>
        </linearGradient>
    </defs>
    <g fill="none" fill-rule="evenodd">
        <rect fill="url(#a)" x="7" y="1" width="16" height="16" rx="2"/>
        <path d="M16 17h1v4.006A1.995 1.995 0 0 1 15.006 23H2.994A1.995 1.995 0 0 1 1 21.006V8.994C1 7.893 1.895 7 2.994 7H7v1h7.993C15.55 8 16 8.45 16 9.007V17z" fill="url(#b)"/>
        <path d="M17 17h4.006c1.1 0 1.994-.893 1.994-1.994V2.994C23 1.894 22.107 1 21.006 1H8.994C7.894 1 7 1.893 7 2.994V7h1V3.007C8 2.45 8.45 2 9.007 2h11.986C21.55 2 22 2.45 22 3.007v11.986C22 15.55 21.55 16 20.993 16H17v1zM1 8.994C1 7.893 1.895 7 2.994 7h12.012C16.107 7 17 7.895 17 8.994v12.012A1.995 1.995 0 0 1 15.006 23H2.994A1.995 1.995 0 0 1 1 21.006V8.994zm1 .013C2 8.45 2.45 8 3.007 8h11.986C15.55 8 16 8.45 16 9.007v11.986C16 21.55 15.55 22 14.993 22H3.007C2.45 22 2 21.55 2 20.993V9.007z" fill-opacity=".15"/>
    </g>
</svg>
