<svg width="24" height="24" viewBox="0 0 24 24" xmlns="http://www.w3.org/2000/svg">
    <g fill-rule="evenodd">
        <path d="M19.83 15H21V3H9v1.17c.312-.11.649-.17.999-.17H17A2.999 2.999 0 0 1 20 6.999V14c0 .35-.06.687-.17.999zm-3 3H18V6H6v1.17c.312-.11.649-.17.999-.17H14A2.999 2.999 0 0 1 17 9.999V17c0 .35-.06.687-.17.999z" fill-opacity=".15"/>
        <path d="M4 7V5.994C4 4.893 4.895 4 5.994 4H7V2.994C7 1.893 7.895 1 8.994 1h12.012C22.107 1 23 1.895 23 2.994v12.012A1.995 1.995 0 0 1 21.006 17H20v1.006A1.995 1.995 0 0 1 18.006 20H17v1.006A1.995 1.995 0 0 1 15.006 23H2.994A1.995 1.995 0 0 1 1 21.006V8.994C1 7.893 1.895 7 2.994 7H4zm2 0V6h12v12h-1V8.994C17 7.894 16.107 7 15.006 7H6zm3-3V3h12v12h-1V5.994C20 4.894 19.107 4 18.006 4H9zM3 9h12v12H3V9z"/>
    </g>
</svg>
