<svg width="24" height="24" viewBox="0 0 24 24" xmlns="http://www.w3.org/2000/svg">
    <g fill-rule="evenodd">
        <path d="M16.938 14h4.063l-.001.001V3l.001.001H10L10 2.999v4.063A8.004 8.004 0 0 1 16.938 14z" fill-opacity=".15"/>
        <path d="M8 7.062V2.999C8 1.895 8.895 1 9.999 1H21C22.105 1 23 1.895 23 2.999V14A1.999 1.999 0 0 1 21.001 16h-4.063A8.001 8.001 0 0 1 1 15a8.001 8.001 0 0 1 7-7.938zM16.938 14h4.063l-.001.001V3l.001.001H10L10 2.999v4.063A8.004 8.004 0 0 1 16.938 14zM9 21A6 6 0 1 0 9 9a6 6 0 0 0 0 12z" opacity=".9"/>
    </g>
</svg>
