<svg width="24" height="24" viewBox="0 0 24 24" xmlns="http://www.w3.org/2000/svg">
    <path d="M14 7.553h.01H14zm0 5.021a.999.999 0 0 1 1 1v3.529l6.586-6.585-6.585-6.585L15 7.553c0 .525-.407.961-.931.998-5.013.346-9.227 3.337-11.071 7.412 2.705-1.905 6.867-3.088 10.929-3.386a.89.89 0 0 1 .073-.003zM1 21.518l-.041-.001A1 1 0 0 1 0 20.515C.021 13.519 5.66 7.589 13 6.647V2.511c0-.97.576-1.313.823-1.416.248-.104.901-.268 1.59.422l8.294 8.294a.999.999 0 0 1 0 1.414l-8.294 8.294c-.691.692-1.344.525-1.59.425-.248-.102-.823-.446-.823-1.419v-3.853c-5.951.676-10.79 3.235-11.003 5.925a1 1 0 0 1-.997.921z" fill-rule="evenodd"/>
</svg>
