<svg width="24" height="24" viewBox="0 0 24 24" xmlns="http://www.w3.org/2000/svg">
    <g fill-rule="evenodd">
        <path d="M11 20.85c.165.086.331.169.5.248 5.178-2.444 8.5-7.9 8.5-14.027 0-.77-.053-1.538-.159-2.295a8.256 8.256 0 0 1-2.641.428c-2.105 0-4.143-.812-5.733-2.257a8.404 8.404 0 0 1-.467.39V20.85z" fill-opacity=".15"/>
        <path d="M11 20.85C6.11 18.298 3 13 3 7.071c0-.785.055-1.569.165-2.34 2.605.875 5.607.335 7.835-1.394V20.85zm1 0c4.89-2.552 8-7.851 8-13.779 0-.77-.053-1.538-.159-2.295a8.256 8.256 0 0 1-2.641.428c-1.877 0-3.7-.645-5.2-1.809V20.85zm7-17.906a6.3 6.3 0 0 1-1.8.26c-1.844 0-3.562-.781-4.855-2.204h-1.75C9.314 2.393 7.617 3.158 5.8 3.158A6.267 6.267 0 0 1 4 2.897V3H1.45l-.037.17A18.57 18.57 0 0 0 1 7.071c0 7.08 3.965 13.376 10.102 16.042l.398.173.398-.173C18.035 20.447 22 14.15 22 7.071a18.57 18.57 0 0 0-.413-3.9L21.544 3H19v-.056z"/>
    </g>
</svg>
