<svg width="24" height="24" viewBox="0 0 24 24" xmlns="http://www.w3.org/2000/svg">
    <path d="M8.596 10.197l-.21-.315C7.349 8.327 4.87 7 2.998 7H1V5h1.998c2.395 0 5.286 1.474 6.79 3.41l-1.192 1.787zM18 7.11c-1.678.347-3.522 1.476-4.386 2.771l-3.564 5.347C8.642 17.339 5.54 19 2.998 19H1v-2h1.998c1.873 0 4.351-1.326 5.388-2.881l3.564-5.347c1.23-1.846 3.738-3.34 6.05-3.693V2l6 4-6 4V7.11zm0 11.81c-2.159-.328-4.487-1.652-5.788-3.329l1.192-1.788.21.316c.864 1.295 2.708 2.424 4.386 2.771V14l6 4-6 4v-3.08z" fill-rule="evenodd"/>
</svg>
