<svg width="24" height="24" viewBox="0 0 24 24" xmlns="http://www.w3.org/2000/svg">
    <path d="M18.906 4.525l-.663.663a9.952 9.952 0 0 0-5.347-2.148V2h1.968a1 1 0 1 0 0-2H8.947a1 1 0 1 0 0 2h1.968v1.058C5.902 3.6 2 7.844 2 13c0 5.523 4.477 10 10 10s10-4.477 10-10a9.96 9.96 0 0 0-2.34-6.428l.647-.646a1.004 1.004 0 0 0 1.404-.01.997.997 0 0 0 .01-1.405l.003-.003-1.4-1.4-.004.003a1.004 1.004 0 0 0-1.41.003.997.997 0 0 0-.004 1.41zM12 21a8 8 0 1 0 0-16 8 8 0 0 0 0 16zM10 8.417l-.076.034-.071-.732L5.938 9.5l1.732 1A5 5 0 0 0 12 18v-.999a4 4 0 0 1-3.464-6l1.464.844V8.417zM12 8a5 5 0 0 1 4.33 7.5l1.732 1.001-3.915 1.781-.07-.732-.077.034v-3.428l1.464.845A4 4 0 0 0 12 9V8z" fill-rule="evenodd"/>
</svg>
