<svg width="24" height="24" viewBox="0 0 24 24" xmlns="http://www.w3.org/2000/svg">
    <path d="M13.881 12.32l2.715-3.21-.707-.706-3.209 2.715a2 2 0 1 0 1.201 1.2zm5.025-7.795l-.663.663a9.952 9.952 0 0 0-5.347-2.148V2h1.968a1 1 0 1 0 0-2H8.947a1 1 0 1 0 0 2h1.968v1.058C5.902 3.6 2 7.844 2 13c0 5.523 4.477 10 10 10s10-4.477 10-10a9.96 9.96 0 0 0-2.34-6.428l.647-.646a1.004 1.004 0 0 0 1.404-.01.997.997 0 0 0 .01-1.405l.003-.003-1.4-1.4-.004.003a1.004 1.004 0 0 0-1.41.003.997.997 0 0 0-.004 1.41zM12 21a8 8 0 1 0 0-16 8 8 0 0 0 0 16zm-.707-7.293a1 1 0 1 0 1.414-1.414 1 1 0 0 0-1.414 1.414z" fill-rule="evenodd"/>
</svg>
