<svg width="24" height="24" viewBox="0 0 24 24" xmlns="http://www.w3.org/2000/svg">
    <path d="M17 12a5 5 0 0 0-10 0c0 2.493 1.83 4.543 4.217 4.921a2.487 2.487 0 0 1 3.917-1.054C16.263 14.95 17 13.568 17 12m-1.998 5.407a1.5 1.5 0 1 0-2.897.777 1.5 1.5 0 0 0 2.897-.777M19 12a6.986 6.986 0 0 1-2.953 5.705A2.496 2.496 0 0 1 14.2 20.21a2.496 2.496 0 0 1-2.85-1.243A6.999 6.999 0 0 1 12 5a7 7 0 0 1 7 7m3 0c0-5.523-4.477-10-10-10-1.98 0-3.821.583-5.374 1.576A2.492 2.492 0 0 1 5.99 5.99a2.492 2.492 0 0 1-2.414.636A9.941 9.941 0 0 0 2 12c0 5.523 4.477 10 10 10s10-4.477 10-10M3.161 5.282a1.5 1.5 0 1 0 2.121-2.12 1.5 1.5 0 0 0-2.121 2.12M24 12c0 6.627-5.373 12-12 12S0 18.627 0 12c0-2.457.741-4.739 2.008-6.641a2.493 2.493 0 0 1 .446-2.905 2.493 2.493 0 0 1 2.905-.446A11.937 11.937 0 0 1 12 0c6.627 0 12 5.373 12 12m-10 0a2 2 0 1 1-3.999.001A2 2 0 0 1 14 12" fill-rule="evenodd"/>
</svg>
