<svg width="24" height="24" viewBox="0 0 24 24" xmlns="http://www.w3.org/2000/svg">
    <g fill-rule="evenodd">
        <path d="M15.437 16c-.838-1.38-1.955-2.478-3.243-3.17a5.033 5.033 0 0 0 1.64-2.491A4.426 4.426 0 0 1 15.5 10c2.737 0 5.095 2.579 5.48 6h-5.543zM15.5 3a2.513 2.513 0 0 1 2.519 2.5c0 1.378-1.13 2.5-2.52 2.5a2.516 2.516 0 0 1-1.81-.77 4.967 4.967 0 0 0-.638-1.167 2.487 2.487 0 0 1-.07-.563c0-1.378 1.13-2.5 2.519-2.5z" fill-opacity=".15"/>
        <path d="M19 16c.002-.117 0-.257 0-.344 0-.575-.305-1.142-.472-1.656H17.5c.133.511.5 1.069.5 1.656V16h-2.563c-.838-1.38-1.955-2.478-3.243-3.17a5.033 5.033 0 0 0 1.64-2.491A4.426 4.426 0 0 1 15.5 10c2.737 0 5.095 2.579 5.48 6H19zm-6.004 4.998c.002-.116.004-.254.004-.342 0-.575-.062-1.132-.18-1.656h-1.027c.133.511.207 1.069.207 1.656 0 .089-.002.225-.005.341l-5.99-.007A10.546 10.546 0 0 1 6 20.656c0-.587.074-1.145.207-1.656H5.179a7.675 7.675 0 0 0-.18 1.656c0 .086.003.219.006.333l-1.993-.002C3.395 17.004 5.969 14 9 14c3.032 0 5.606 3.004 5.984 7l-1.988-.002zM9 6c1.664 0 3.018 1.345 3.018 3 0 1.654-1.354 3-3.018 3-1.664 0-3.018-1.346-3.018-3 0-1.655 1.354-3 3.018-3zm6.5-3a2.513 2.513 0 0 1 2.519 2.5c0 1.378-1.13 2.5-2.52 2.5a2.516 2.516 0 0 1-1.81-.77 4.967 4.967 0 0 0-.638-1.167 2.487 2.487 0 0 1-.07-.563c0-1.378 1.13-2.5 2.519-2.5zm7.487 12.775c-.36-3.152-2.093-5.745-4.416-6.985a4.458 4.458 0 0 0 1.463-3.29C20.034 3.019 18 1 15.5 1a4.527 4.527 0 0 0-4.403 3.47A5.005 5.005 0 0 0 9 4C6.227 4 3.97 6.243 3.97 9c0 1.545.724 2.912 1.836 3.83-2.556 1.375-4.45 4.345-4.797 7.968A2.014 2.014 0 0 0 3.017 23h11.966c.567 0 1.109-.24 1.49-.657.384-.419.573-.983.518-1.545A11.778 11.778 0 0 0 16.369 18h4.609a2.03 2.03 0 0 0 1.509-.672c.382-.425.565-.991.5-1.553z"/>
    </g>
</svg>
