<svg width="24" height="24" viewBox="0 0 24 24" xmlns="http://www.w3.org/2000/svg">
    <path d="M6.001 20.989l-2-.002C4.452 16.433 7.87 13 11.95 13c4.078 0 7.496 3.433 7.945 8L17.878 21A7.676 7.676 0 0 0 16.865 18h-1.201a6.525 6.525 0 0 1 1.206 2.998l-9.86-.008A6.523 6.523 0 0 1 8.213 18h-1.2A7.676 7.676 0 0 0 6 20.989zm9.597-9.236A5.989 5.989 0 0 0 17.95 7c0-3.309-2.692-6-6-6-3.309 0-6 2.691-6 6 0 1.935.925 3.655 2.352 4.752-3.376 1.45-5.877 4.86-6.292 9.037A2.008 2.008 0 0 0 4.005 23h15.89a2.008 2.008 0 0 0 1.995-2.21c-.416-4.179-2.917-7.588-6.292-9.037zM7.95 7c0-2.206 1.794-4 4-4s4 1.794 4 4c0 2.205-1.794 4-4 4s-4-1.795-4-4z" fill-rule="evenodd"/>
</svg>
