<svg width="24" height="24" viewBox="0 0 24 24" xmlns="http://www.w3.org/2000/svg">
    <path d="M18.605 17c-1.44-2.43-3.896-4-6.655-4-4.08 0-7.497 3.433-7.95 7.987l2.001.002A7.676 7.676 0 0 1 7.014 18h1.2a6.523 6.523 0 0 0-1.205 2.99l6.991.005V23h5.929H4.005a2.008 2.008 0 0 1-1.995-2.21c.415-4.179 2.916-7.588 6.292-9.038A5.985 5.985 0 0 1 5.95 7c0-3.309 2.691-6 6-6 3.308 0 6 2.691 6 6a5.989 5.989 0 0 1-2.352 4.753c2.278.978 4.158 2.85 5.267 5.247h-2.26zM7.95 7c0-2.206 1.794-4 4-4s4 1.794 4 4c0 2.205-1.794 4-4 4s-4-1.795-4-4zM24 21v-2h-8v2h8z" fill-rule="evenodd"/>
</svg>
