<svg width="24" height="24" viewBox="0 0 24 24" xmlns="http://www.w3.org/2000/svg">
    <g fill-rule="evenodd">
        <path d="M20.308 14c-.899-2.378-2.831-4-5.002-4-.578 0-1.136.125-1.665.339A5.033 5.033 0 0 1 12 12.83c1.288.692 2.405 1.79 3.243 3.17H17v-2h3.308zM15.306 3a2.513 2.513 0 0 1 2.519 2.5c0 1.378-1.13 2.5-2.519 2.5a2.516 2.516 0 0 1-1.811-.77 4.967 4.967 0 0 0-.638-1.167 2.487 2.487 0 0 1-.07-.563c0-1.378 1.13-2.5 2.519-2.5z" fill-opacity=".15"/>
        <path d="M14 23H3.017a2.014 2.014 0 0 1-2.008-2.202c.348-3.623 2.24-6.593 4.797-7.968C4.694 11.912 3.97 10.545 3.97 9c0-2.757 2.257-5 5.03-5 .75 0 1.457.176 2.097.47A4.527 4.527 0 0 1 15.5 1c2.5 0 4.534 2.019 4.534 4.5a4.458 4.458 0 0 1-1.463 3.29c1.87.998 3.358 2.873 4.055 5.21h-2.124c-.9-2.378-2.832-4-5.002-4-.578 0-1.136.125-1.665.339a5.033 5.033 0 0 1-1.641 2.491c1.288.692 2.405 1.79 3.243 3.17H17v1h-3v.528C12.908 15.386 11.06 14 9 14c-3.031 0-5.605 3.004-5.988 6.987l1.993.002A14.277 14.277 0 0 1 5 20.656c0-.575.063-1.132.179-1.656h1.028A6.588 6.588 0 0 0 6 20.656c0 .087.002.22.006.334l5.989.007c.003-.116.005-.252.005-.341 0-.587-.074-1.145-.207-1.656h1.028c.117.524.179 1.081.179 1.656 0 .088-.002.226-.004.342l1.004.001V23zM9 6c1.664 0 3.018 1.345 3.018 3 0 1.654-1.354 3-3.018 3-1.664 0-3.018-1.346-3.018-3 0-1.655 1.354-3 3.018-3zm6.5-3a2.513 2.513 0 0 1 2.519 2.5c0 1.378-1.13 2.5-2.52 2.5a2.516 2.516 0 0 1-1.81-.77 4.967 4.967 0 0 0-.638-1.167 2.487 2.487 0 0 1-.07-.563c0-1.378 1.13-2.5 2.519-2.5zM24 21v-2h-3v-3h-2v3h-3v2h3v3h2v-3h3z"/>
    </g>
</svg>
