<svg width="24" height="24" viewBox="0 0 24 24" xmlns="http://www.w3.org/2000/svg">
    <g fill-rule="evenodd">
        <path d="M4 7.002A1 1 0 0 1 5 6h14c.552 0 1 .456 1 1.002v9.996A1 1 0 0 1 19 18H5c-.552 0-1-.456-1-1.002V7.002zm5.116 5.882a1.25 1.25 0 1 0 1.768-1.768 1.25 1.25 0 0 0-1.768 1.768z" fill-opacity=".15"/>
        <path d="M0 3.99C0 2.892.897 2 2.005 2h19.99C23.102 2 24 2.898 24 3.99v16.02c0 1.099-.897 1.99-2.005 1.99H2.005A2.002 2.002 0 0 1 0 20.01V3.99zM2 4h20v16H2V4zm3 18h3v1H5v-1zm11 0h3v1h-3v-1zM4 7.002C4 6.45 4.608 6 5.337 6h13.326C19.402 6 20 6.456 20 7.002v9.996C20 17.55 19.392 18 18.663 18H5.337C4.598 18 4 17.544 4 16.998V7.002zm1 0v9.996c0-.003.006.002.003.002h13.994c-.003 0 .003-.005.003-.002V7.002c0 .003-.006-.002-.003-.002H5.003C5.006 7 5 7.005 5 7.002zM16 9h1v6h-1V9zm-4.158 2.219l.985-.985a.75.75 0 1 0-1.06-1.06l-.986.984a2 2 0 0 0-2.623 2.623l-.985.985a.75.75 0 1 0 1.06 1.06l.986-.984a2 2 0 0 0 2.623-2.623zm-2.726 1.665a1.25 1.25 0 1 0 1.768-1.768 1.25 1.25 0 0 0-1.768 1.768z"/>
    </g>
</svg>
