<svg width="24" height="24" viewBox="0 0 24 24" xmlns="http://www.w3.org/2000/svg">
    <path d="M9.648 3.1L.615 18.908C-.587 21.01.571 23 2.991 23H21.01c2.417 0 3.576-1.992 2.376-4.092L14.352 3.1c-1.205-2.108-3.5-2.106-4.704 0zm1.737.992c.436-.763.794-.764 1.23 0L21.648 19.9c.438.766.244 1.1-.64 1.1H2.992c-.886 0-1.079-.331-.64-1.1l9.034-15.808zM11 10.002A.999.999 0 0 1 12 9c.552 0 1 .438 1 1.003v4.994A.999.999 0 0 1 12 16c-.552 0-1-.438-1-1.003v-4.994zM12 19a1 1 0 1 0 0-2 1 1 0 0 0 0 2z" fill-rule="evenodd"/>
</svg>
