<svg xmlns="http://www.w3.org/2000/svg" viewBox="0 0 169.6 32">
    <path d="M20.7 19c-.9 0-1.7.8-1.7 1.7v3.5c0 .9.8 1.7 1.7 1.7.4 0 .7-.1 1-.3L20.1 24l1.2-1.2 1.1 1.1v-3.2c.1-.9-.7-1.7-1.7-1.7zM11.3 6H9.5v7h1.7c.9 0 1.7-.8 1.7-1.7V7.8c.1-1-.7-1.7-1.6-1.8zM0 0v32h32V0H0zm14.7 19h-2.6v6.9h2.6v1.7H7.8v-1.7h2.6V19H7.8v-1.7h6.9V19zm0-7.7c0 1.9-1.5 3.4-3.4 3.5H7.8V4.3h3.5c1.9 0 3.4 1.5 3.4 3.4v3.6zm2.6.4c0-1.7 1.3-3 3-3h.9c.7 0 1.3-.6 1.3-1.3 0-.7-.6-1.3-1.3-1.3h-3.9V4.3h3.9c1.7.1 3 1.5 2.9 3.2-.1 1.6-1.3 2.8-2.9 2.9h-.9c-.7 0-1.3.6-1.3 1.3V13h5.2v1.7h-6.9v-3zm7 16.5L23 26.9c-1.5 1.2-3.7 1-4.9-.5-.5-.6-.8-1.4-.8-2.2v-3.5c0-1.9 1.6-3.4 3.6-3.4 1.8 0 3.3 1.5 3.4 3.4v3.5c0 .4-.1.8-.2 1.2l1.5 1.5-1.3 1.3zm22.9-17.9h2.4v9.5h-1.9v-5.9l-2.1 5.8H44l-2.1-5.8v6H40v-9.6h2.5l2.3 6.3 2.4-6.3zm10.5 3.6c.5.7.7 1.6.6 2.4v.7h-4.5c0 .4.2.8.4 1 .2.2.6.4.9.4.5.1 1.1-.2 1.2-.8v-.1h1.8v.2c-.1.5-.3.9-.6 1.3-.6.7-1.5 1.1-2.4 1-.8 0-1.6-.3-2.2-.9-.7-.7-1.1-1.8-1.1-2.8 0-1 .3-2 1-2.8.6-.6 1.4-.9 2.3-.9 1.1 0 2 .5 2.6 1.3zm-1.7.6c-.2-.2-.6-.4-.9-.3-.4 0-.8.2-1 .5-.2.2-.3.5-.3.8h2.6c0-.4-.1-.7-.4-1zm10.1 3c0 .6-.2 1.2-.6 1.6-.7.6-1.5 1-2.5.9-.8 0-1.7-.3-2.3-.8-.5-.5-.7-1.1-.7-1.7v-.2h1.8v.2c0 .3.1.5.3.7.3.2.6.3.9.3.6 0 1.2-.1 1.2-.7 0-.3-.2-.6-.5-.6L63 17c-.4 0-.8-.1-1.2-.2-1-.2-1.7-1-1.7-2 0-.6.3-1.2.7-1.6.6-.5 1.4-.7 2.1-.7.8 0 1.6.3 2.2.8.4.4.7 1 .7 1.6v.1h-1.9v-.2c0-.2-.1-.4-.2-.5-.2-.2-.5-.3-.8-.3-.2 0-.4 0-.6.1-.2.1-.4.3-.4.6 0 .2.1.5.6.5h.4l1 .1c1.3.2 2.2 1.1 2.2 2.2zm-.4-2.8v-.1.1zm7.9-1c.6.7.9 1.7.8 2.6 0 .9-.2 1.9-.8 2.6-.6.7-1.5 1.1-2.5 1.1-.9 0-1.9-.4-2.5-1.1-.6-.7-.9-1.7-.8-2.6 0-.9.2-1.9.8-2.6 1.2-1.4 3.3-1.5 4.7-.3.2.1.3.2.3.3zm-3.8 2.6c-.1.6.1 1.1.4 1.6.5.5 1.3.5 1.8 0 .3-.5.5-1 .4-1.6.1-.6-.1-1.1-.4-1.6-.2-.3-.6-.4-.9-.4-.3 0-.7.1-.9.4-.3.5-.5 1-.4 1.6zm10.4-.9l-1-.1h-.4c-.6-.1-.7-.3-.7-.5 0-.3.2-.5.4-.6.2-.1.4-.1.6-.1.3 0 .6.1.8.3.1.1.2.3.2.5v.1H82v-.2c0-.6-.2-1.1-.6-1.5-.6-.6-1.4-.9-2.2-.8-.8 0-1.5.2-2.2.7-.5.4-.8 1-.7 1.6 0 1 .7 1.8 1.7 2 .4.1.8.1 1.2.2l.7.1c.3 0 .6.3.5.6 0 .6-.7.7-1.2.7-.3 0-.7-.1-.9-.3-.2-.1-.3-.4-.3-.6v-.2h-1.9v.2c0 .6.3 1.2.8 1.7.6.6 1.4.9 2.3.8.9 0 1.8-.3 2.4-.9.4-.4.6-1 .6-1.6 0-1.1-.9-2-2-2.1zm9.5-2.2c.9.8 1.4 1.9 1.3 3.1.1 1.2-.4 2.3-1.3 3.1-.4.4-1.1.6-1.7.6-.6 0-1.1-.2-1.6-.5v2.8h-1.9v-9.6h1.7l.1.5c.5-.5 1.1-.7 1.8-.7.5.1 1.1.3 1.6.7zm-.7 3.1c0-.5-.1-1.1-.4-1.6-.2-.3-.6-.5-1-.5-1.1 0-1.4 1.1-1.4 2 0 1.3.5 2 1.4 2 .4 0 .8-.2 1-.5.3-.4.4-.9.4-1.4zm7.8-3.7c-.6 0-1.2.2-1.7.6v-3.1h-1.9v9.7h1.9v-3.7c0-.7.3-1.7 1.2-1.7.7 0 1 .3 1 1.1v4.3h1.9v-4.7-.3c0-1.3-1.1-2.3-2.4-2.2zm10.5 1.3c.5.7.7 1.6.6 2.4v.7h-4.5c0 .4.2.8.4 1 .2.2.6.4.9.4.3 0 .6-.1.9-.3.1-.1.2-.3.3-.5v-.1h1.8v.2c-.1.5-.3.9-.6 1.3-.6.7-1.5 1.1-2.4 1-.8 0-1.6-.3-2.2-.9-.7-.7-1.1-1.8-1.1-2.8 0-1 .3-2 1-2.8.6-.6 1.4-.9 2.3-.9 1 0 2 .5 2.6 1.3zm-4 1.5h2.7c0-.3-.1-.7-.4-.9-.2-.2-.6-.4-.9-.3-.4 0-.8.2-1 .5-.2.2-.3.4-.4.7zm8.5-2l-.1-.7H110v7.1h1.9v-3.6-.2c0-.9.7-1.5 1.6-1.5.2 0 .4 0 .5.1h.2v-1.9h-.1c-.8-.2-1.7.1-2.3.7zm9.7.5c.5.7.7 1.6.6 2.4v.7h-4.5c0 .4.2.8.5 1 .2.2.6.4.9.4.3 0 .6-.1.9-.3.1-.1.2-.3.3-.5v-.1h1.8v.2c-.1.5-.3.9-.6 1.3-.6.7-1.5 1.1-2.4 1-.8 0-1.6-.3-2.2-.9-.7-.7-1.1-1.8-1.1-2.8 0-1 .3-2 1-2.8.6-.6 1.4-.9 2.3-.9.9 0 1.9.5 2.5 1.3zm-1.7.6c-.6-.5-1.4-.4-1.9.1-.2.2-.3.5-.4.8h2.6c.1-.3-.1-.6-.3-.9zm15.8.5c.1 1.3-.3 2.7-1.1 3.7-.7.7-1.7 1.1-2.7 1.1H128v-9.5h3.7c1 0 2 .3 2.7 1 .9 1 1.3 2.4 1.2 3.7zm-5.6 3h1.8c.4 0 .9-.2 1.2-.5.5-.7.7-1.6.6-2.5.1-.9-.1-1.8-.6-2.5-.3-.3-.8-.5-1.2-.5H130v6zm11.2-7.9c-1 0-2 .4-2.7 1.1-.9 1.1-1.4 2.5-1.2 3.9-.2 1.4.3 2.8 1.2 3.9.7.7 1.7 1.1 2.7 1.1 1 0 2-.4 2.8-1.2.5-.6.9-1.3.9-2.1v-.2h-2v.1c0 .3-.2.7-.4.9-.3.4-.8.6-1.3.5-.5 0-1-.2-1.3-.6-.5-.7-.7-1.7-.6-2.5-.1-.9.1-1.8.6-2.5.3-.4.8-.6 1.3-.6.8-.1 1.6.6 1.7 1.4v.1h2v-.2c-.1-.8-.4-1.5-.9-2.1-.7-.6-1.7-1-2.8-1zm4.7 9.9h1.5l4.1-9.9H150l-4.1 9.9zm14.4-5c.2 1.4-.3 2.8-1.2 3.8-.7.7-1.7 1.2-2.8 1.2-1 0-2-.4-2.8-1.1-1-1.1-1.4-2.5-1.2-3.9-.2-1.4.3-2.8 1.2-3.9.7-.7 1.7-1.1 2.8-1.1 1 0 2 .4 2.8 1.1 1 1 1.2 2.3 1.2 3.9zm-2 0c.1-.9-.1-1.8-.6-2.5-.4-.4-.8-.6-1.3-.6s-1 .2-1.3.6c-.5.7-.7 1.7-.6 2.5-.1.9.1 1.8.6 2.5.7.7 1.9.7 2.7 0 .4-.7.6-1.6.5-2.5zm8.7-.9l-.8-.1-1.2-.1c-.5 0-.8-.4-.8-.9 0-.3.1-.5.3-.7.4-.3.9-.5 1.4-.5.5 0 .9.1 1.3.4.2.2.3.5.4.8v.1h2V13c0-.8-.4-1.5-1-2.1-.7-.6-1.7-1-2.7-.9-1 0-2 .3-2.8 1-.5.5-.8 1.2-.9 1.9-.1 1.4 1 2.6 2.4 2.8.3 0 .6.1 1 .1s.6 0 1.1.1c.5.1 1 .3 1 1 0 .3-.1.6-.3.8-.4.3-1 .5-1.5.5s-1-.1-1.4-.5c-.3-.3-.4-.6-.4-1v-.1h-2v.1c0 .9.4 1.7 1 2.3.8.7 1.8 1 2.9 1 1.1 0 2.2-.4 3-1.1.5-.5.8-1.3.8-2-.2-1.5-1.3-2.8-2.8-2.8z" fill="#fff"/>
</svg>
