<svg width="32" height="32" viewBox="0 0 32 32" xmlns="http://www.w3.org/2000/svg">
    <g fill-rule="evenodd">
        <path opacity=".15" d="M3 5h26v4H3z"/>
        <path d="M9 3h14V1.99c0-.546.444-.99 1-.99a1 1 0 0 1 1 .99V3h3c1.657 0 3 1.35 3 2.996v22.008A3 3 0 0 1 28 31H4c-1.657 0-3-1.35-3-2.996V5.996A3 3 0 0 1 4 3h3V1.99C7 1.445 7.444 1 8 1a1 1 0 0 1 1 .99V3zm0 2h14v1.01A1 1 0 0 0 24 7c.556 0 1-.444 1-.99V5h2.997C28.55 5 29 5.447 29 6v22c0 .552-.451 1-1.003 1H4.003A1.002 1.002 0 0 1 3 28V6c0-.552.451-1 1.003-1H7v1.01A1 1 0 0 0 8 7c.556 0 1-.444 1-.99V5zM3 9h26v1H3V9zm18 14h2v2h-2v-2zm-3 0h2v2h-2v-2zm-3 0h2v2h-2v-2zm-3 0h2v2h-2v-2zm-3 0h2v2H9v-2zm-3 0h2v2H6v-2zm18-3h2v2h-2v-2zm-3 0h2v2h-2v-2zm-3 0h2v2h-2v-2zm-3 0h2v2h-2v-2zm-3 0h2v2h-2v-2zm-3 0h2v2H9v-2zm-3 0h2v2H6v-2zm18-3h2v2h-2v-2zm-3 0h2v2h-2v-2zm-3 0h2v2h-2v-2zm-3 0h2v2h-2v-2zm-3 0h2v2h-2v-2zm-3 0h2v2H9v-2zm-3 0h2v2H6v-2zm18-3h2v2h-2v-2zm-3 0h2v2h-2v-2zm-3 0h2v2h-2v-2zm-3 0h2v2h-2v-2zm-3 0h2v2h-2v-2z"/>
    </g>
</svg>
