<svg width="32" height="32" viewBox="0 0 32 32" xmlns="http://www.w3.org/2000/svg">
    <path d="M29.01 15c1.092 0 1.99.898 1.99 2.006v8.988A1.998 1.998 0 0 1 29.01 28H27v2.002c0 .743-.337 1.162-.836 1.162-.239 0-.516-.096-.81-.3L21.198 28h-7.208a2.003 2.003 0 0 1-1.99-2.006v-8.988c0-1.109.89-2.006 1.99-2.006H29.01zM2.99 1a2.003 2.003 0 0 0-1.99 2.006v8.988C1 13.103 1.89 14 2.99 14h2.01v2.002c0 .743.336 1.162.835 1.162.24 0 .516-.096.811-.3L10.801 14h7.208A2.003 2.003 0 0 0 20 11.994V3.006A1.998 1.998 0 0 0 18.01 1H2.99zm11 25h7.83l.513.353L25 28.191V26h2l2-.006.01-8.994H13.99v9zm4.018-14h-7.83l-.513.353L7 14.191V12H5l-2-.006L2.991 3H18.01v9zM16 22h11v1H16v-1zm0-2h11v1H16v-1zM5 8h11v1H5V8zm0-2h11v1H5V6z" fill-rule="evenodd"/>
</svg>
