<svg width="32" height="32" viewBox="0 0 32 32" xmlns="http://www.w3.org/2000/svg">
    <g fill-rule="evenodd">
        <path fill-opacity=".2" d="M3 4h26v5H3z"/>
        <path d="M1 4.996A3 3 0 0 1 4 2h24c1.657 0 3 1.35 3 2.996v22.008A3 3 0 0 1 28 30H4c-1.657 0-3-1.35-3-2.996V4.996zm2 .005C3 4.448 3.451 4 4.003 4h23.994C28.55 4 29 4.447 29 5v22c0 .552-.451 1-1.003 1H4.003A1.002 1.002 0 0 1 3 27V5zM9 6h1v1H9V6zM7 6h1v1H7V6zM5 6h1v1H5V6zM3 9h26v1H3V9zm13 10h-6v1h6v-1zm-9.643-6.35l-.707.706 3.146 3.147-3.146 3.146.707.708 3.853-3.854-3.853-3.853z"/>
    </g>
</svg>
