<svg width="32" height="32" viewBox="0 0 32 32" xmlns="http://www.w3.org/2000/svg">
    <g fill-rule="evenodd">
        <rect fill-opacity=".15" x="8" y="8" width="16" height="16" rx="1"/>
        <path d="M1 4c0-1.657 1.347-3 3-3h24c1.657 0 3 1.347 3 3v24c0 1.657-1.347 3-3 3H4c-1.657 0-3-1.347-3-3V4zm2 .003C3 3.45 3.451 3 4.003 3h23.994C28.55 3 29 3.451 29 4.003v23.994C29 28.55 28.549 29 27.997 29H4.003A1.005 1.005 0 0 1 3 27.997V4.003zm5 4.998C8 8.448 8.445 8 9 8h14c.552 0 1 .445 1 1v14c0 .552-.445 1-1 1H9c-.552 0-1-.445-1-1V9zM9 9h14v14H9V9zm17 2v1h-2v-1h2zm0 3v1h-2v-1h2zm0 3v1h-2v-1h2zm0 3v1h-2v-1h2zM8 11v1H6v-1h2zm0 3v1H6v-1h2zm0 3v1H6v-1h2zm0 3v1H6v-1h2zm3-14h1v2h-1V6zm3 0h1v2h-1V6zm3 0h1v2h-1V6zm3 0h1v2h-1V6zm-9 18h1v2h-1v-2zm3 0h1v2h-1v-2zm3 0h1v2h-1v-2zm3 0h1v2h-1v-2z"/>
    </g>
</svg>
