<svg width="32" height="32" viewBox="0 0 32 32" xmlns="http://www.w3.org/2000/svg">
    <path d="M25.112 27.404C22.768 28.408 19.507 29 16 29c-3.506 0-6.768-.592-9.111-1.596C4.934 26.566 4 25.62 4 25v-3.922C6.445 22.827 10.898 24 16 24s9.555-1.173 12-2.921V25c0 .62-.934 1.566-2.888 2.404zM4 15.078C6.445 16.827 10.898 18 16 18s9.555-1.173 12-2.921v4.755C26.049 21.602 21.442 23 16 23c-5.441 0-10.049-1.398-12-3.166v-4.756zM16 12c5.102 0 9.553-1.174 12-2.922v4.756C26.049 15.602 21.442 17 16 17c-5.441 0-10.049-1.398-12-3.166V9.078C6.447 10.826 10.898 12 16 12zM6.889 3.595C9.232 2.591 12.494 2 16 2c3.507 0 6.768.591 9.112 1.595C27.066 4.433 28 5.379 28 6c0 .62-.934 1.566-2.888 2.404C22.768 9.408 19.507 10 16 10c-3.506 0-6.768-.592-9.111-1.596C4.934 7.566 4 6.62 4 6c0-.621.934-1.567 2.889-2.405zM16 0C8.268 0 2 2.686 2 6v19c0 3.313 6.268 6 14 6s14-2.687 14-6V6c0-3.314-6.268-6-14-6z" fill-rule="evenodd"/>
</svg>
