<svg width="32" height="32" viewBox="0 0 32 32" xmlns="http://www.w3.org/2000/svg">
    <g fill-rule="evenodd">
        <path d="M12.927 13c0-1.655 1.346-3 3-3 1.655 0 3 1.345 3 3 0 1.654-1.345 3-3 3-1.654 0-3-1.346-3-3zm8.81 9.82a.516.516 0 0 1-.39.18h-10.84a.516.516 0 0 1-.39-.18.457.457 0 0 1-.111-.372C10.48 19.291 12.97 17 15.926 17c2.959 0 5.449 2.291 5.923 5.448a.46.46 0 0 1-.111.371z" fill-opacity=".15"/>
        <path d="M29 5V1.998c0-.55-.45-.998-1.003-.998H4.003C3.451 1 3 1.447 3 1.998V5H2v1h1v2H2v1h1v2H2v1h1v2H2v1h1v2H2v1h1v2H2v1h1v2H2v1h1v2H2v1h1v3.002c0 .55.45.998 1.003.998h23.994c.552 0 1.003-.447 1.003-.998V27c.556 0 1-.444 1-.99v-4.02a1 1 0 0 0-1-.99v-2c.556 0 1-.444 1-.99v-4.02a1 1 0 0 0-1-.99v-2c.556 0 1-.444 1-.99V5.99A1 1 0 0 0 29 5zM5 26v-2h1v-1H5v-2h1v-1H5v-2h1v-1H5v-2h1v-1H5v-2h1v-1H5V9h1V8H5V6h1V5H5V3h22v26H5v-2h1v-1H5zm17.838-3.7c-.43-2.86-2.308-5.098-4.762-5.937A3.992 3.992 0 0 0 19.926 13c0-2.206-1.793-4-4-4-2.204 0-4 1.794-4 4 0 1.414.743 2.651 1.853 3.363-2.454.84-4.333 3.077-4.763 5.936-.063.42.062.847.343 1.173.289.335.707.528 1.149.528h10.839c.442 0 .86-.193 1.149-.529.28-.326.405-.753.342-1.172zM12.927 13c0-1.655 1.346-3 3-3 1.655 0 3 1.345 3 3 0 1.654-1.345 3-3 3-1.654 0-3-1.346-3-3zm8.81 9.82a.516.516 0 0 1-.39.18h-10.84a.516.516 0 0 1-.39-.18.457.457 0 0 1-.111-.372C10.48 19.291 12.97 17 15.926 17c2.959 0 5.449 2.291 5.923 5.448a.46.46 0 0 1-.111.371zm-1.863.18a4.007 4.007 0 0 0 0-2h-1.045a2.995 2.995 0 0 1 0 2h1.045zm-7.748 0a4.007 4.007 0 0 1 0-2h1.045a2.995 2.995 0 0 0 0 2h-1.045z"/>
    </g>
</svg>
