<svg width="32" height="32" viewBox="0 0 32 32" xmlns="http://www.w3.org/2000/svg">
    <path d="M23 7V1H1v30h22v-5h-2v3H3V3h18v4h2zm1.5 2a7.5 7.5 0 0 0-6.635 4H5v6h2l2.5 2.5 2.125-2.125L14.25 22l3-3h.177A7.502 7.502 0 0 0 32 16.5 7.5 7.5 0 0 0 24.5 9zm0 2c3.033 0 5.5 2.467 5.5 5.5S27.533 22 24.5 22a5.51 5.51 0 0 1-5.188-3.667L18.841 17h-2.419l-.586.586-1.586 1.586-1.211-1.211-1.414-1.414-1.414 1.414-.711.711-1.086-1.086L7.828 17H7v-2h12.07l.563-1.065A5.493 5.493 0 0 1 24.5 11zm2 8a2.5 2.5 0 1 0 0-5 2.5 2.5 0 0 0 0 5zm0-1a1.5 1.5 0 1 0 0-3 1.5 1.5 0 0 0 0 3z" fill-rule="evenodd"/>
</svg>
