<svg width="32" height="32" viewBox="0 0 32 32" xmlns="http://www.w3.org/2000/svg">
    <path d="M6.982 25.62C3.276 23.458.66 20.002 0 16 1.119 9.216 7.857 4 16 4c1.13 0 2.232.1 3.296.291L18.223 6.15A16.522 16.522 0 0 0 16 6C9.105 6 3.168 10.276 2.032 16c.65 3.279 2.876 6.082 5.955 7.879L6.982 25.62zm5.722 2.089c1.064.19 2.167.291 3.296.291 8.143 0 14.881-5.216 16-12-.66-4.002-3.276-7.458-6.982-9.62L24.013 8.12c3.079 1.797 5.304 4.6 5.955 7.879C28.832 21.724 22.895 26 16 26c-.754 0-1.497-.051-2.223-.15l-1.073 1.859zm8.493-14.71A6 6 0 0 1 16 22l1.274-2.207a4.002 4.002 0 0 0 2.648-4.585l1.275-2.209zM16 10a6 6 0 0 0-5.197 9.001l1.275-2.209a4.002 4.002 0 0 1 2.647-4.585L16 10zm7.134-8.357a.997.997 0 0 1 1.366-.365c.478.276.639.894.366 1.365l-16 27.714a.997.997 0 0 1-1.366.365 1.004 1.004 0 0 1-.366-1.365l16-27.714z" fill-rule="evenodd"/>
</svg>
