<svg width="32" height="32" viewBox="0 0 32 32" xmlns="http://www.w3.org/2000/svg">
    <g fill-rule="evenodd">
        <path d="M13.993 17.038v10.784l3.709-1.403c.134-.05.29-.276.29-.418v-8.963L25.525 8H6.461l7.532 9.038z" fill-opacity=".15"/>
        <path d="M5.628 7l-2.5-3h25.73l-2.5 3H5.628zm.833 1l7.532 9.038v10.784l3.709-1.403c.134-.05.29-.276.29-.418v-8.963L25.525 8H6.461zm6.237 21.696c-.448-.308-.705-.829-.705-1.425V17.762L1.503 5.175c-.844-1.014-.6-1.842-.455-2.15C1.192 2.717 1.67 2 2.985 2h26.017c1.318 0 1.795.715 1.939 1.023.145.308.389 1.135-.458 2.152l-10.49 12.587v8.239c0 .98-.666 1.942-1.584 2.289l-4.125 1.561c-.224.085-.45.126-.67.126a1.59 1.59 0 0 1-.916-.281z"/>
    </g>
</svg>
