<svg width="32" height="32" viewBox="0 0 32 32" xmlns="http://www.w3.org/2000/svg">
    <g fill-rule="evenodd">
        <path d="M18.022 16.127c5.064.638 9.391 3.644 11.837 7.873-2.766 4.782-7.937 8-13.859 8S4.907 28.782 2.14 24c2.447-4.229 6.773-7.234 11.837-7.873-.552 1.797-.977 3.591-.977 4.854 0 2.078 1.346 3.767 3 3.767.686 0 1.332-.284 1.869-.822.72-.722 1.133-1.795 1.131-2.944-.001-1.263-.426-3.058-.978-4.855z" fill-opacity=".15"/>
        <path d="M12.577 17.392a15.01 15.01 0 0 0-8.649 5.703C6.362 27.227 10.858 30 16 30c5.143 0 9.638-2.773 12.072-6.905a15.01 15.01 0 0 0-8.65-5.703c.345 1.333.577 2.598.578 3.588.002 1.414-.517 2.745-1.424 3.653-.718.719-1.633 1.115-2.576 1.115-2.205 0-4-2.139-4-4.767 0-.99.232-2.255.577-3.589zm.3-1.087a15.997 15.997 0 0 0-9.469 5.822A13.944 13.944 0 0 1 2 16C2 8.268 8.268 2 16 2s14 6.268 14 14c0 2.197-.506 4.276-1.408 6.127a15.997 15.997 0 0 0-9.471-5.823c-1.017-3.471-2.566-7.035-2.663-7.256h-.916c-.096.22-1.647 3.785-2.664 7.257zM16 32C7.163 32 0 24.837 0 16S7.163 0 16 0s16 7.163 16 16-7.163 16-16 16zM6.384 12.91l-1.986-.532c-.099.317-.185.639-.258.966l1.986.532c.07-.328.156-.65.258-.966zm2.835-4.394L7.766 7.062c-.245.226-.481.462-.707.708l1.454 1.453c.223-.247.459-.483.706-.707zm4.652-2.391l-.532-1.985c-.327.073-.649.159-.966.258l.532 1.985c.316-.101.638-.187.966-.258zm5.225.258l.532-1.985a12.036 12.036 0 0 0-.966-.258l-.532 1.985c.328.071.651.157.966.258zm4.393 2.84l1.453-1.453a12.106 12.106 0 0 0-.707-.708l-1.453 1.454c.247.224.483.46.707.707zm2.129 3.687l1.986-.532c.098.317.184.639.257.966l-1.985.532c-.071-.328-.157-.65-.258-.966zM16 10.542c-.94 2.302-3 7.658-3 10.439 0 2.078 1.346 3.767 3 3.767.686 0 1.332-.284 1.869-.822.72-.722 1.133-1.795 1.131-2.944-.003-2.782-2.06-8.138-3-10.44zM16 22a1 1 0 1 0 0-2 1 1 0 0 0 0 2z"/>
    </g>
</svg>
