<svg width="32" height="32" viewBox="0 0 32 32" xmlns="http://www.w3.org/2000/svg">
    <path d="M17.5 32h-3c-1.052 0-1.984-.813-2.122-1.852L12 27.317a11.876 11.876 0 0 1-1.173-.487l-2.27 1.736c-.832.638-2.067.552-2.81-.192l-2.121-2.121c-.744-.744-.827-1.977-.192-2.81l1.736-2.269A12.037 12.037 0 0 1 4.683 20l-2.831-.378C.814 19.484 0 18.552 0 17.5v-3c0-1.052.814-1.984 1.853-2.122L4.683 12c.142-.4.304-.792.487-1.174L3.435 8.557c-.637-.831-.554-2.066.191-2.81l2.121-2.121c.745-.745 1.978-.828 2.811-.191l2.268 1.735c.382-.183.774-.345 1.174-.487l.378-2.831C12.516.814 13.448 0 14.5 0h3c1.052 0 1.984.814 2.122 1.853L20 4.683c.4.142.792.304 1.174.487l2.269-1.735c.831-.637 2.066-.554 2.81.19l2.121 2.122c.744.744.828 1.979.192 2.811l-1.736 2.269c.183.382.346.774.487 1.173l2.831.378C31.187 12.517 32 13.449 32 14.5v3c0 1.052-.813 1.984-1.852 2.122L27.317 20c-.141.4-.304.791-.487 1.173l1.736 2.269c.636.833.552 2.067-.192 2.811l-2.121 2.121c-.743.744-1.977.828-2.81.193l-2.27-1.737c-.382.183-.773.346-1.173.487l-.378 2.831C19.484 31.187 18.552 32 17.5 32zm-6.87-7.537l.571.312c.63.346 1.299.624 1.988.825l.624.182.547 4.101c.008.043.09.117.14.117h3c.057 0 .134-.071.14-.116l.547-4.102.624-.182a9.894 9.894 0 0 0 1.988-.825l.57-.313 3.288 2.516c.035.024.146.018.182-.018l2.121-2.121c.04-.04.045-.146.018-.182l-2.516-3.288.314-.57a9.95 9.95 0 0 0 .824-1.988l.182-.624 4.102-.547c.042-.008.116-.09.116-.14v-3c0-.057-.072-.134-.117-.14l-4.101-.547-.182-.624a9.95 9.95 0 0 0-.824-1.988l-.313-.571 2.515-3.288c.023-.035.017-.146-.018-.181L24.839 5.04c-.04-.04-.146-.043-.181-.017l-3.289 2.515-.571-.314a9.899 9.899 0 0 0-1.987-.823l-.624-.184-.547-4.1C17.632 2.074 17.551 2 17.5 2h-3c-.057 0-.134.071-.14.116l-.547 4.101-.624.183c-.69.202-1.359.48-1.988.825l-.571.313-3.288-2.514c-.034-.024-.146-.019-.181.016L5.04 7.161c-.04.04-.044.145-.017.181l2.515 3.288-.313.571a9.963 9.963 0 0 0-.825 1.988l-.183.624-4.1.547c-.043.008-.117.09-.117.14v3c0 .057.071.134.116.14l4.101.547.184.624c.201.691.479 1.359.823 1.987l.314.571-2.514 3.288c-.025.035-.019.147.016.182l2.121 2.121c.04.039.144.043.181.018l3.288-2.515zM16 21a5 5 0 1 0 0-10 5 5 0 0 0 0 10zm0-1a4 4 0 1 1 0-8 4 4 0 0 1 0 8z" fill-rule="evenodd"/>
</svg>
