<svg width="32" height="32" viewBox="0 0 32 32" xmlns="http://www.w3.org/2000/svg">
    <path d="M19.715 21.253c-.764.695-1.961.733-2.759.068l-1.314-1.095c-.131.059-.266.11-.4.163l-.156 1.706A2.113 2.113 0 0 1 12.991 24h-1.982a2.119 2.119 0 0 1-2.095-1.905l-.156-1.706c-.134-.052-.269-.104-.4-.163L7.044 21.32a2.115 2.115 0 0 1-2.829-.135l-1.401-1.401c-.758-.76-.821-2.005-.135-2.83l1.095-1.313a8.791 8.791 0 0 1-.162-.4l-1.707-.155A2.114 2.114 0 0 1 0 12.99V11.01c0-1.073.838-2 1.905-2.096l1.707-.155c.052-.135.104-.27.162-.401L2.679 7.045a2.114 2.114 0 0 1 .135-2.83l1.401-1.4c.759-.76 2.006-.821 2.829-.135l1.314 1.095c.131-.06.266-.111.4-.163l.156-1.707A2.114 2.114 0 0 1 11.009 0h1.982a2.12 2.12 0 0 1 2.095 1.905l.156 1.707c.134.052.269.104.4.163l1.314-1.095a2.113 2.113 0 0 1 2.829.135l1.401 1.4a2.12 2.12 0 0 1 .135 2.83l-1.095 1.313c.058.132.11.266.162.4l1.707.156A2.114 2.114 0 0 1 24 11.01v1.98c0 1.074-.838 2-1.905 2.097l-1.707.155a8.791 8.791 0 0 1-.162.4l1.095 1.314c.666.799.63 1.991-.068 2.759l1.261.946c.365-.21.76-.375 1.175-.488l.24-1.67a.592.592 0 0 1 .575-.503h.991c.28 0 .536.217.577.503l.238 1.67c.416.113.81.278 1.176.488l1.35-1.013a.59.59 0 0 1 .763.052l.701.7a.595.595 0 0 1 .051.764l-1.012 1.35c.21.365.375.76.487 1.175l1.67.24c.278.04.504.285.504.576v.99a.595.595 0 0 1-.504.577l-1.67.238c-.112.416-.277.81-.487 1.176l1.012 1.35a.59.59 0 0 1-.05.763l-.702.701a.594.594 0 0 1-.763.052l-1.35-1.013c-.366.21-.76.375-1.176.487l-.238 1.67a.593.593 0 0 1-.577.504h-.99a.595.595 0 0 1-.577-.504l-.239-1.67a4.92 4.92 0 0 1-1.175-.487l-1.35 1.013a.593.593 0 0 1-.764-.052l-.7-.7a.594.594 0 0 1-.052-.764l1.013-1.35a4.989 4.989 0 0 1-.488-1.176l-1.67-.238a.592.592 0 0 1-.503-.577v-.99c0-.279.217-.536.503-.577l1.67-.239c.113-.415.278-.81.488-1.175l-.946-1.261zM22 12.99c0 .043-.053.1-.086.104l-3.05.277a6.96 6.96 0 0 1-1.041 2.51l1.961 2.355c.024.028.021.1-.012.134l-1.401 1.4c-.031.03-.109.035-.135.014l-2.353-1.961a6.975 6.975 0 0 1-2.511 1.04l-.277 3.05c-.004.037-.058.086-.104.086h-1.982c-.042 0-.101-.052-.104-.086l-.277-3.05a6.975 6.975 0 0 1-2.511-1.04l-2.353 1.96c-.029.024-.102.02-.135-.012L4.228 18.37c-.03-.03-.034-.11-.012-.134l1.961-2.354a6.96 6.96 0 0 1-1.041-2.511l-3.05-.277C2.049 13.092 2 13.038 2 12.99V11.01c0-.043.053-.101.086-.104l3.05-.278a6.966 6.966 0 0 1 1.041-2.511L4.216 5.764c-.024-.028-.021-.101.012-.134l1.401-1.401c.031-.03.109-.034.135-.013l2.353 1.96a6.94 6.94 0 0 1 2.511-1.04l.277-3.05c.004-.036.058-.086.104-.086h1.982c.042 0 .101.053.104.087l.277 3.05a6.94 6.94 0 0 1 2.511 1.04l2.353-1.961c.029-.024.102-.02.135.013l1.401 1.4c.03.03.034.109.012.135l-1.961 2.353c.5.748.859 1.598 1.041 2.51l3.05.279c.037.003.086.057.086.104v1.98zM12 16a4 4 0 1 1 0-8 4 4 0 0 1 0 8zm0-1a3 3 0 1 0 0-6 3 3 0 0 0 0 6zm13 13a3 3 0 1 0 0-6 3 3 0 0 0 0 6z" fill-rule="evenodd"/>
</svg>
