<svg width="32" height="32" viewBox="0 0 32 32" xmlns="http://www.w3.org/2000/svg">
    <g fill-rule="evenodd">
        <rect fill-opacity=".15" x="13" y="13" width="12" height="12" rx="1"/>
        <path d="M1 4c0-1.657 1.347-3 3-3h24c1.657 0 3 1.347 3 3v24c0 1.657-1.347 3-3 3H4c-1.657 0-3-1.347-3-3V4zm2 .003C3 3.45 3.451 3 4.003 3h23.994C28.55 3 29 3.451 29 4.003v23.994C29 28.55 28.549 29 27.997 29H4.003A1.005 1.005 0 0 1 3 27.997V4.003zm10 10c0-.554.456-1.003 1.002-1.003h9.996c.553 0 1.002.456 1.002 1.002v9.996C25 24.55 24.544 25 23.998 25h-9.996A1.007 1.007 0 0 1 13 23.998v-9.996zM14 14h10v10H14V14zm9-3h1v2h-1v-2zm-3 0h1v2h-1v-2zm-3 0h1v2h-1v-2zm-3 0h1v2h-1v-2zm9 14h1v2h-1v-2zm-3 0h1v2h-1v-2zm-3 0h1v2h-1v-2zm-3 0h1v2h-1v-2zm-3-10v-1h2v1h-2zm0 3v-1h2v1h-2zm0 3v-1h2v1h-2zm0 3v-1h2v1h-2zm14-9v-1h2v1h-2zm0 3v-1h2v1h-2zm0 3v-1h2v1h-2zm0 3v-1h2v1h-2z"/>
    </g>
</svg>
