<svg width="32" height="32" viewBox="0 0 32 32" xmlns="http://www.w3.org/2000/svg">
    <g fill-rule="evenodd">
        <path d="M3 15.895c.298.525.592 1.188.916 2.014l.146.372c1.4 3.58 2.528 5 5.29 5 2.323 0 3.857-1.615 5.849-5.135.315-.558 1.403-2.556 1.443-2.629 2.529-4.582 4.35-6.468 6.939-6.468 2.409 0 4.166 1.248 5.417 3.48V28c0 .55-.45 1-1 1H4c-.55 0-1-.45-1-1V15.895z" fill-opacity=".15"/>
        <path d="M1 4c0-1.657 1.347-3 3-3h24c1.657 0 3 1.347 3 3v24c0 1.657-1.347 3-3 3H4c-1.657 0-3-1.347-3-3V4zm2 0v24c0 .55.45 1 1 1h24c.55 0 1-.45 1-1V4c0-.55-.45-1-1-1H4c-.55 0-1 .45-1 1zm26 6.727c-1.382-1.754-3.186-2.678-5.417-2.678-2.989 0-5.038 1.954-7.814 6.985l-.759 1.388-.007.013c-.32.585-.556 1.012-.673 1.219-1.955 3.456-3.236 4.626-4.979 4.626-2.112 0-2.997-.885-4.358-4.363l-.073-.188-.073-.184c-.629-1.603-1.183-2.666-1.847-3.35v1.7c.298.525.592 1.188.916 2.014l.146.372c1.4 3.58 2.528 5 5.29 5 2.323 0 3.857-1.615 5.849-5.135.315-.558 1.403-2.556 1.443-2.629 2.529-4.582 4.35-6.468 6.939-6.468 2.409 0 4.166 1.248 5.417 3.48v-1.802z"/>
    </g>
</svg>
