<svg width="32" height="32" viewBox="0 0 32 32" xmlns="http://www.w3.org/2000/svg">
    <g fill-rule="evenodd">
        <circle fill-opacity=".15" cx="16" cy="14" r="9"/>
        <path d="M2 2.996A3.002 3.002 0 0 1 4.996 0h22.008A2.992 2.992 0 0 1 30 2.996v26.008A3.002 3.002 0 0 1 27.004 32H4.996A2.992 2.992 0 0 1 2 29.004V2.996zm2 0C4 2.447 4.447 2 5 2h22c.552 0 1 .44 1 .997v26.006c0 .55-.447.997-1 .997H5c-.552 0-1-.44-1-.997V2.997zM8 27h1v3H8v-3zm3 0h1v3h-1v-3zm3 0h1v3h-1v-3zm3 0h1v3h-1v-3zm3 0h1v3h-1v-3zm3 0h1v3h-1v-3zM4 26h24v1H4v-1zm12-3a9 9 0 1 1 0-18 9 9 0 0 1 0 18zm0-1a8 8 0 1 0 0-16 8 8 0 0 0 0 16zm0-5a3 3 0 1 1 0-6 3 3 0 0 1 0 6zm0-1a2 2 0 1 0 0-4 2 2 0 0 0 0 4zm9 8c0-.552.444-1 1-1 .552 0 1 .444 1 1 0 .552-.444 1-1 1-.552 0-1-.444-1-1zM5 24c0-.552.444-1 1-1 .552 0 1 .444 1 1 0 .552-.444 1-1 1-.552 0-1-.444-1-1zM25 4c0-.552.444-1 1-1 .552 0 1 .444 1 1 0 .552-.444 1-1 1-.552 0-1-.444-1-1zM5 4c0-.552.444-1 1-1 .552 0 1 .444 1 1 0 .552-.444 1-1 1-.552 0-1-.444-1-1z"/>
    </g>
</svg>
