<svg width="32" height="32" viewBox="0 0 32 32" xmlns="http://www.w3.org/2000/svg">
    <path d="M4.671 17c-1.736-2.47-2.67-4.647-2.67-6.356 0-3.594 3.177-6.63 6.937-6.63 2.732 0 5.07 2.099 6.266 3.397.447.426 1.113.473 1.651-.046C18.01 6.108 20.355 4 23.061 4c3.762 0 6.94 3.036 6.94 6.63 0 1.71-.917 3.875-2.68 6.37H21.5l.447.276-2-4-.54-1.08-.381 1.146-3 9 .961.046-3-13-.414-1.797-.55 1.76-2.5 8L11 17H4.671zm.734 1c2.259 2.953 5.573 6.272 9.735 9.689.31.259.641.31.866.31.314 0 .631-.115.873-.318l.295-.248c.709-.595 1.678-1.41 2.771-2.413 1.788-1.636 3.39-3.237 4.758-4.762A40.34 40.34 0 0 0 26.582 18H21.19l-.138-.276-2-4 .921-.066-3 9-.562 1.686-.4-1.732-3-13 .965.037-2.5 8-.11.351H5.406zm10.601 12a3.343 3.343 0 0 1-2.14-.77C8.69 24.984 0 16.914 0 10.644c0-4.678 4.092-8.63 8.938-8.63 3.03 0 5.554 1.88 7.067 3.354C17.489 3.916 20.032 2 23.06 2c4.846 0 8.94 3.952 8.94 8.63 0 2.957-1.955 6.645-5.808 10.962-1.415 1.575-3.062 3.224-4.898 4.903a83.529 83.529 0 0 1-2.834 2.469l-.294.249a3.37 3.37 0 0 1-2.16.787z" fill-rule="evenodd"/>
</svg>
