<svg width="32" height="32" viewBox="0 0 32 32" xmlns="http://www.w3.org/2000/svg">
    <path d="M16.006 30a3.343 3.343 0 0 1-2.14-.77C8.69 24.984 0 16.914 0 10.644c0-4.678 4.092-8.63 8.938-8.63 3.03 0 5.554 1.88 7.067 3.354C17.489 3.916 20.032 2 23.06 2c4.846 0 8.94 3.952 8.94 8.63 0 2.957-1.955 6.645-5.808 10.962-1.415 1.575-3.062 3.224-4.898 4.903a83.529 83.529 0 0 1-2.834 2.469l-.294.249a3.37 3.37 0 0 1-2.16.787zM8.938 4.014C5.178 4.014 2 7.05 2 10.644c0 3.92 4.912 10.292 13.14 17.045.31.259.641.31.866.31.314 0 .631-.115.873-.318l.295-.248c.709-.595 1.678-1.41 2.771-2.413 1.788-1.636 3.39-3.237 4.758-4.762C28.168 16.376 30 13.047 30 10.63 30 7.036 26.823 4 23.061 4c-2.706 0-5.05 2.108-6.206 3.365-.538.519-1.204.472-1.65.046-1.197-1.298-3.534-3.397-6.267-3.397z" fill-rule="evenodd"/>
</svg>
