<svg width="32" height="32" viewBox="0 0 32 32" xmlns="http://www.w3.org/2000/svg">
    <path d="M7.414 31H1v-6.414l10.594-10.595A10.456 10.456 0 0 1 11 10.5C11 4.71 15.71 0 21.5 0S32 4.71 32 10.5 27.29 21 21.5 21a10.44 10.44 0 0 1-3.492-.594L13.414 25H12v1.414L10.414 28H9v1.414L7.414 31zM3 29h3.586L7 28.586V26h2.586l.414-.414V23h2.586l4.948-4.948.622.266A8.443 8.443 0 0 0 21.5 19c4.687 0 8.5-3.813 8.5-8.5C30 5.813 26.187 2 21.5 2 16.813 2 13 5.813 13 10.5c0 1.161.229 2.286.683 3.343l.266.622L3 25.414V29zm20-17a3 3 0 1 1 0-6 3 3 0 0 1 0 6zm0-1a2 2 0 1 0 0-4 2 2 0 0 0 0 4z" fill-rule="evenodd"/>
</svg>
