<svg width="32" height="32" viewBox="0 0 32 32" xmlns="http://www.w3.org/2000/svg">
    <g fill-rule="evenodd">
        <path d="M24.488 19h5.19c.21-.966.322-1.97.322-3s-.111-2.034-.322-3h-5.19c.332.938.512 1.948.512 3s-.18 2.062-.512 3zM19 24.488v5.19c-.966.21-1.97.322-3 .322s-2.034-.111-3-.322v-5.19A8.985 8.985 0 0 0 16 25c1.052 0 2.062-.18 3-.512zM7.512 19h-5.19A14.052 14.052 0 0 1 2 16c0-1.03.111-2.034.322-3h5.19A8.985 8.985 0 0 0 7 16c0 1.052.18 2.062.512 3zM13 7.512v-5.19c.966-.21 1.97-.322 3-.322s2.034.111 3 .322v5.19A8.985 8.985 0 0 0 16 7c-1.052 0-2.062.18-3 .512z" fill-opacity=".15"/>
        <path d="M20 29.413v-5.36A9.016 9.016 0 0 0 24.053 20h5.36A14.02 14.02 0 0 1 20 29.413m-7 .256v-5.192c.94.332 1.946.523 3 .523s2.06-.19 3-.523v5.192c-.967.212-1.969.33-3 .33s-2.033-.117-3-.33M2.587 20h5.36A9.016 9.016 0 0 0 12 24.055v5.359A14.02 14.02 0 0 1 2.587 20M2 16c0-1.03.119-2.033.33-3h5.193A8.96 8.96 0 0 0 7 16c0 1.053.19 2.06.523 3H2.33A14.049 14.049 0 0 1 2 16M12 2.587v5.359a9.018 9.018 0 0 0-4.053 4.052h-5.36A14.021 14.021 0 0 1 12 2.587m7-.257v5.194A8.956 8.956 0 0 0 16 7c-1.054 0-2.06.19-3 .524V2.33A13.985 13.985 0 0 1 16 2c1.031 0 2.033.119 3 .33M16 23a7 7 0 1 1 0-14 7 7 0 0 1 0 14m13.413-11h-5.36A9.018 9.018 0 0 0 20 7.946v-5.36A14.021 14.021 0 0 1 29.413 12M30 16c0 1.031-.119 2.033-.33 3h-5.193A8.951 8.951 0 0 0 25 16a8.96 8.96 0 0 0-.523-3h5.193c.211.968.33 1.97.33 3M16 0C7.163 0 0 7.164 0 16c0 8.838 7.163 16 16 16s16-7.162 16-16c0-8.835-7.163-16-16-16"/>
    </g>
</svg>
