<svg width="32" height="32" viewBox="0 0 32 32" xmlns="http://www.w3.org/2000/svg">
    <g fill-rule="evenodd">
        <path fill-opacity=".15" d="M5 23h22v6H5z"/>
        <path d="M24 8A8 8 0 1 0 8 8h2a6 6 0 1 1 12 0h2zM8 8h2v4H8V8zm14 0h2v4h-2V8zM3 13.997C3 12.894 3.895 12 4.997 12h22.006c1.103 0 1.997.89 1.997 1.997v15.006A1.998 1.998 0 0 1 27.003 31H4.997A1.995 1.995 0 0 1 3 29.003V13.997zM5 14h22v15H5V14zm0 8h22v1H5v-1zm19 1h1l-2 6h-1l2-6zm-5 0h1l-2 6h-1l2-6zm-5 0h1l-2 6h-1l2-6zm-5 0h1l-2 6H7l2-6z"/>
    </g>
</svg>
