<svg width="32" height="32" viewBox="0 0 32 32" xmlns="http://www.w3.org/2000/svg">
    <g fill-rule="evenodd">
        <path d="M23 22a1 1 0 0 1 1.01-1h1.98c.558 0 1.01.444 1.01 1v3a1 1 0 0 1-1.01 1h-1.98c-.558 0-1.01-.444-1.01-1v-3zm-6 0a1 1 0 0 1 1.01-1h1.98c.558 0 1.01.444 1.01 1v3a1 1 0 0 1-1.01 1h-1.98c-.558 0-1.01-.444-1.01-1v-3zm-6 0a1 1 0 0 1 1.01-1h1.98c.558 0 1.01.444 1.01 1v3a1 1 0 0 1-1.01 1h-1.98c-.558 0-1.01-.444-1.01-1v-3zm-6 0a1 1 0 0 1 1.01-1h1.98c.558 0 1.01.444 1.01 1v3a1 1 0 0 1-1.01 1H6.01C5.451 26 5 25.556 5 25v-3zM23 5a1 1 0 0 1 1.01-1h1.98c.558 0 1.01.444 1.01 1v3a1 1 0 0 1-1.01 1h-1.98C23.451 9 23 8.556 23 8V5zm-6 0a1 1 0 0 1 1.01-1h1.98c.558 0 1.01.444 1.01 1v3a1 1 0 0 1-1.01 1h-1.98C17.451 9 17 8.556 17 8V5zm-6 0a1 1 0 0 1 1.01-1h1.98c.558 0 1.01.444 1.01 1v3a1 1 0 0 1-1.01 1h-1.98C11.451 9 11 8.556 11 8V5zM5 5a1 1 0 0 1 1.01-1h1.98C8.549 4 9 4.444 9 5v3a1 1 0 0 1-1.01 1H6.01C5.451 9 5 8.556 5 8V5z" fill-opacity=".15"/>
        <path d="M29.004 17H2.996A2.993 2.993 0 0 0 0 19.999v1.269a1.997 1.997 0 0 1 0 3.464v4.269A2.998 2.998 0 0 0 2.996 32h26.008A2.993 2.993 0 0 0 32 29.001v-4.269a1.997 1.997 0 0 1 0-3.464v-1.269A2.998 2.998 0 0 0 29.004 17zm0-17H2.996A2.993 2.993 0 0 0 0 2.999v1.269a1.997 1.997 0 0 1 0 3.464v4.269A2.998 2.998 0 0 0 2.996 15h26.008A2.993 2.993 0 0 0 32 12.001V7.732a1.997 1.997 0 0 1 0-3.464V2.999A2.998 2.998 0 0 0 29.004 0zm0 19c.549 0 .996.448.996.999v.357c-.634.721-1 1.66-1 2.644 0 .984.366 1.923 1 2.644v3.357a.999.999 0 0 1-.996.999H2.996A.999.999 0 0 1 2 29.001v-3.357c.634-.721 1-1.66 1-2.644 0-.984-.366-1.923-1-2.644v-.357c0-.551.447-.999.996-.999h26.008zm0-17c.549 0 .996.448.996.999v.357c-.634.721-1 1.66-1 2.644 0 .984.366 1.923 1 2.644v3.357a.999.999 0 0 1-.996.999H2.996A.999.999 0 0 1 2 12.001V8.644C2.634 7.923 3 6.984 3 6c0-.984-.366-1.923-1-2.644v-.357C2 2.448 2.447 2 2.996 2h26.008zM23 22a1 1 0 0 1 1.01-1h1.98c.558 0 1.01.444 1.01 1v3a1 1 0 0 1-1.01 1h-1.98c-.558 0-1.01-.444-1.01-1v-3zm-6 0a1 1 0 0 1 1.01-1h1.98c.558 0 1.01.444 1.01 1v3a1 1 0 0 1-1.01 1h-1.98c-.558 0-1.01-.444-1.01-1v-3zm-6 0a1 1 0 0 1 1.01-1h1.98c.558 0 1.01.444 1.01 1v3a1 1 0 0 1-1.01 1h-1.98c-.558 0-1.01-.444-1.01-1v-3zm-6 0a1 1 0 0 1 1.01-1h1.98c.558 0 1.01.444 1.01 1v3a1 1 0 0 1-1.01 1H6.01C5.451 26 5 25.556 5 25v-3zM23 5a1 1 0 0 1 1.01-1h1.98c.558 0 1.01.444 1.01 1v3a1 1 0 0 1-1.01 1h-1.98C23.451 9 23 8.556 23 8V5zm-6 0a1 1 0 0 1 1.01-1h1.98c.558 0 1.01.444 1.01 1v3a1 1 0 0 1-1.01 1h-1.98C17.451 9 17 8.556 17 8V5zm-6 0a1 1 0 0 1 1.01-1h1.98c.558 0 1.01.444 1.01 1v3a1 1 0 0 1-1.01 1h-1.98C11.451 9 11 8.556 11 8V5zM5 5a1 1 0 0 1 1.01-1h1.98C8.549 4 9 4.444 9 5v3a1 1 0 0 1-1.01 1H6.01C5.451 9 5 8.556 5 8V5zm1 0v3h1.99c.012 0 .01.002.01 0V5H6.01C5.997 5 6 4.998 6 5zm6 0v3h1.99c.012 0 .01.002.01 0V5h-1.99c-.012 0-.01-.002-.01 0zm6 0v3h1.99c.012 0 .01.002.01 0V5h-1.99c-.012 0-.01-.002-.01 0zm6 0v3h1.99c.012 0 .01.002.01 0V5h-1.99c-.012 0-.01-.002-.01 0zM6 22v3h1.99c.012 0 .01.002.01 0v-3H6.01c-.012 0-.01-.002-.01 0zm6 0v3h1.99c.012 0 .01.002.01 0v-3h-1.99c-.012 0-.01-.002-.01 0zm6 0v3h1.99c.012 0 .01.002.01 0v-3h-1.99c-.012 0-.01-.002-.01 0zm6 0v3h1.99c.012 0 .01.002.01 0v-3h-1.99c-.012 0-.01-.002-.01 0zm2 6h1v2h-1v-2zm-3 0h1v2h-1v-2zm-3 0h1v2h-1v-2zm-3 0h1v2h-1v-2zm-3 0h1v2h-1v-2zm-3 0h1v2h-1v-2zm-3 0h1v2H8v-2zm-3 0h1v2H5v-2zm21-17h1v2h-1v-2zm-3 0h1v2h-1v-2zm-3 0h1v2h-1v-2zm-3 0h1v2h-1v-2zm-3 0h1v2h-1v-2zm-3 0h1v2h-1v-2zm-3 0h1v2H8v-2zm-3 0h1v2H5v-2z"/>
    </g>
</svg>
