<svg width="32" height="32" viewBox="0 0 32 32" xmlns="http://www.w3.org/2000/svg">
    <g fill-rule="evenodd">
        <path d="M16 29.5a2.5 2.5 0 1 0 0-5 2.5 2.5 0 0 0 0 5zm11 0a2.5 2.5 0 1 0 0-5 2.5 2.5 0 0 0 0 5zm-22 0a2.5 2.5 0 1 0 0-5 2.5 2.5 0 0 0 0 5z" fill-opacity=".15"/>
        <path d="M15 9.9V16H6.991A2.999 2.999 0 0 0 4 19.003v3.609A4.502 4.502 0 0 0 5 31.5a4.5 4.5 0 0 0 1-8.888v-3.61C6 18.45 6.455 18 6.992 18H15v4.612a4.502 4.502 0 0 0 1 8.888 4.5 4.5 0 0 0 1-8.888V18h8.008c.548 0 .992.456.992 1.002v3.61a4.502 4.502 0 0 0 1 8.888 4.5 4.5 0 0 0 1-8.888v-3.609A2.996 2.996 0 0 0 25.009 16H17V9.9A5.002 5.002 0 0 0 16 0a5 5 0 0 0-1 9.9zm1 19.6a2.5 2.5 0 1 0 0-5 2.5 2.5 0 0 0 0 5zm11 0a2.5 2.5 0 1 0 0-5 2.5 2.5 0 0 0 0 5zm-22 0a2.5 2.5 0 1 0 0-5 2.5 2.5 0 0 0 0 5zM16 8a3 3 0 1 0 0-6 3 3 0 0 0 0 6z"/>
    </g>
</svg>
