<svg width="32" height="32" viewBox="0 0 32 32" xmlns="http://www.w3.org/2000/svg">
    <g fill-rule="evenodd">
        <path d="M5 19c0-1.105.887-2 2-2h6c1.105 0 2 .887 2 2v6c0 1.105-.887 2-2 2H7c-1.105 0-2-.887-2-2v-6zM17 7c0-1.105.887-2 2-2h6c1.105 0 2 .887 2 2v6c0 1.105-.887 2-2 2h-6c-1.105 0-2-.887-2-2V7zM5 7c0-1.105.887-2 2-2h6c1.105 0 2 .887 2 2v6c0 1.105-.887 2-2 2H7c-1.105 0-2-.887-2-2V7z" fill-opacity=".15"/>
        <path d="M1 4c0-1.657 1.347-3 3-3h24c1.657 0 3 1.347 3 3v24c0 1.657-1.347 3-3 3H4c-1.657 0-3-1.347-3-3V4zm2 0v24c0 .55.45 1 1 1h24c.55 0 1-.45 1-1V4c0-.55-.45-1-1-1H4c-.55 0-1 .45-1 1zm2 3c0-1.105.887-2 2-2h6c1.105 0 2 .887 2 2v6c0 1.105-.887 2-2 2H7c-1.105 0-2-.887-2-2V7zm1 0v6c0 .557.444 1 1 1h6c.557 0 1-.444 1-1V7c0-.557-.444-1-1-1H7c-.557 0-1 .444-1 1zm11 0c0-1.105.887-2 2-2h6c1.105 0 2 .887 2 2v6c0 1.105-.887 2-2 2h-6c-1.105 0-2-.887-2-2V7zm1 0v6c0 .557.444 1 1 1h6c.557 0 1-.444 1-1V7c0-.557-.444-1-1-1h-6c-.557 0-1 .444-1 1zM5 19c0-1.105.887-2 2-2h6c1.105 0 2 .887 2 2v6c0 1.105-.887 2-2 2H7c-1.105 0-2-.887-2-2v-6zm1 0v6c0 .557.444 1 1 1h6c.557 0 1-.444 1-1v-6c0-.557-.444-1-1-1H7c-.557 0-1 .444-1 1zm11 0c0-1.105.887-2 2-2h6c1.105 0 2 .887 2 2v6c0 1.105-.887 2-2 2h-6c-1.105 0-2-.887-2-2v-6zm1 0v6c0 .557.444 1 1 1h6c.557 0 1-.444 1-1v-6c0-.557-.444-1-1-1h-6c-.557 0-1 .444-1 1z"/>
    </g>
</svg>
