<svg width="32" height="32" viewBox="0 0 32 32" xmlns="http://www.w3.org/2000/svg">
    <g fill-rule="evenodd">
        <path d="M24 25h4V3H10v2h12.998C23.55 5 24 5.451 24 6.003V25z" fill-opacity=".2" opacity=".9"/>
        <path d="M12.008 20.182l-1.074-1.187 1.06-1.06 1.188 1.073a3.48 3.48 0 0 1 .988-.409L14.25 17h1.5l.08 1.599c.353.086.686.225.988.41l1.187-1.075 1.06 1.06-1.073 1.188c.184.302.323.635.409.988l1.599.08v1.5l-1.599.08a3.48 3.48 0 0 1-.41.988l1.075 1.187-1.06 1.06-1.188-1.073a3.48 3.48 0 0 1-.988.409L15.75 27h-1.5l-.08-1.599a3.48 3.48 0 0 1-.988-.41l-1.187 1.075-1.06-1.06 1.073-1.188a3.48 3.48 0 0 1-.409-.988L10 22.75v-1.5l1.599-.08a3.48 3.48 0 0 1 .41-.988zM28.998 1H9.002A.996.996 0 0 0 8 2.003V5H3.002A.996.996 0 0 0 2 6.003v23.994C2 30.549 2.449 31 3.002 31h19.996A.996.996 0 0 0 24 29.997V27h4.998A.996.996 0 0 0 30 25.997V2.003C30 1.451 29.551 1 28.998 1zM4 29h18V7H4v22zm24-4h-4V6.003C24 5.451 23.551 5 22.998 5H10V3h18v22zM6 13h14v1H6v-1zm0-3h14v1H6v-1zm9 14a2 2 0 1 0 0-4 2 2 0 0 0 0 4z"/>
    </g>
</svg>
