<svg width="32" height="32" viewBox="0 0 32 32" xmlns="http://www.w3.org/2000/svg">
    <g fill-rule="evenodd">
        <path d="M24 25h4V3H10v2h12.998C23.55 5 24 5.451 24 6.003V25z" fill-opacity=".2"/>
        <path d="M14 19h1v1h-.495a.494.494 0 0 0-.505.498V22h-.245a.495.495 0 0 0-.505.5c0 .268.226.5.505.5H14v1.502c0 .283.226.498.505.498H15v1h-1c-.552 0-1-.438-1-1.003V23h-1v-1h1v-1.997A1 1 0 0 1 14 19zm5 3h1v1h-1v1.997A.995.995 0 0 1 18 26h-1v-1h.495a.496.496 0 0 0 .505-.498V23h.245a.508.508 0 0 0 .505-.5c0-.276-.214-.5-.505-.5H18v-1.502a.494.494 0 0 0-.505-.498H17v-1h1a1 1 0 0 1 1 1.003V22zM6 11h14v-1H6v1zm0 3h14v-1H6v1zm22 11h-4V6.003C24 5.45 23.551 5 22.998 5H10V3h18v22zM4 29h18V7H4v22zM28.998 1H9.002A.996.996 0 0 0 8 2.003V5H3.002A.996.996 0 0 0 2 6.003v23.994C2 30.549 2.449 31 3.002 31h19.996A.996.996 0 0 0 24 29.997V27h4.998A.996.996 0 0 0 30 25.997V2.003C30 1.45 29.551 1 28.998 1z"/>
    </g>
</svg>
