<svg width="32" height="32" viewBox="0 0 32 32" xmlns="http://www.w3.org/2000/svg">
    <path d="M29 17V1H3v30h15v-2H5V3h22v14h2zM8 11h16v1H8v-1zm0-3h16v1H8V8zm15 18.5v4.002c0 .283.226.498.505.498H24v1h-2c-.552 0-1-.438-1-1.003V26h-.5a.505.505 0 0 1-.5-.5c0-.268.224-.5.5-.5h.5v-4.997A.999.999 0 0 1 22 19h2v1h-.495a.494.494 0 0 0-.505.498V24.5c-.556 0-1 .448-1 1 0 .556.448 1 1 1zm6 0v4.002a.496.496 0 0 1-.505.498H28v1h2c.552 0 1-.438 1-1.003V26h.5c.268 0 .5-.224.5-.5 0-.268-.224-.5-.5-.5H31v-4.997A.999.999 0 0 0 30 19h-2v1h.495c.291 0 .505.223.505.498V24.5c.556 0 1 .448 1 1 0 .556-.448 1-1 1z" fill-rule="evenodd"/>
</svg>
