<svg width="32" height="32" viewBox="0 0 32 32" xmlns="http://www.w3.org/2000/svg">
    <path d="M29 16V1H3v30h14v-2H5V3h22v13h2zM8 11h16v1H8v-1zm0-3h16v1H8V8zm17.362 15.952l2.125-2.125a1.004 1.004 0 0 0-.003-1.41l-2.122-2.122a.995.995 0 0 0-1.41-.003l-5.664 5.663a1.004 1.004 0 0 0 .003 1.41l2.122 2.122a.995.995 0 0 0 1.41.004l2.125-2.125 5.652 5.652a1.003 1.003 0 0 0 1.42.005 1.001 1.001 0 0 0-.006-1.42l-5.652-5.651zm-2.121-4.95l.707-.707 3.536 3.535-.707.708-3.536-3.536zm-4.95 4.95l.707-.707 3.536 3.535-.707.707-3.536-3.535z" fill-rule="evenodd"/>
</svg>
