<svg width="32" height="32" viewBox="0 0 32 32" xmlns="http://www.w3.org/2000/svg">
    <g fill-rule="evenodd">
        <path d="M24 25h4V3H10v2h12.998C23.55 5 24 5.451 24 6.003V25z" fill-opacity=".2" opacity=".9"/>
        <path d="M28.998 1H9.002A.996.996 0 0 0 8 2.003V5H3.002A.996.996 0 0 0 2 6.003v23.994C2 30.549 2.449 31 3.002 31h19.996A.996.996 0 0 0 24 29.997V27h4.998A.996.996 0 0 0 30 25.997V2.003C30 1.451 29.551 1 28.998 1zM4 29h18V7H4v22zm24-4h-4V6.003C24 5.451 23.551 5 22.998 5H10V3h18v22zM6 13h14v1H6v-1zm0-3h14v1H6v-1zm10.364 11.95l2.121-2.122L15.657 17 10 22.657l2.828 2.828 2.122-2.121 4.242 4.243 1.415-1.415-4.243-4.242z"/>
    </g>
</svg>
