<svg width="32" height="32" viewBox="0 0 32 32" xmlns="http://www.w3.org/2000/svg">
    <path d="M29 16V1H3v30h13v-2H5V3h22v13h2zM8 11h16v1H8v-1zm0-3h16v1H8V8zm21.34 14.514c.21.365.374.76.486 1.175l1.67.24c.278.04.504.285.504.576v.99a.595.595 0 0 1-.504.577l-1.67.238c-.112.416-.277.81-.487 1.176l1.012 1.35a.59.59 0 0 1-.05.763l-.702.701a.594.594 0 0 1-.763.052l-1.35-1.013c-.366.21-.76.375-1.176.487l-.238 1.67a.593.593 0 0 1-.577.504h-.99a.595.595 0 0 1-.577-.504l-.239-1.67a4.92 4.92 0 0 1-1.175-.487l-1.35 1.013a.593.593 0 0 1-.764-.052l-.7-.7a.594.594 0 0 1-.052-.764l1.013-1.35a4.989 4.989 0 0 1-.488-1.176l-1.67-.238a.592.592 0 0 1-.503-.577v-.99c0-.279.217-.536.503-.577l1.67-.239c.113-.415.278-.81.488-1.175l-1.013-1.35a.592.592 0 0 1 .052-.764l.7-.7a.596.596 0 0 1 .764-.052l1.35 1.013c.365-.21.76-.375 1.175-.488l.24-1.67a.592.592 0 0 1 .575-.503h.991c.28 0 .536.217.577.503l.238 1.67c.416.113.81.278 1.176.488l1.35-1.013a.59.59 0 0 1 .763.052l.701.7a.595.595 0 0 1 .051.764l-1.012 1.35zM25 28.5a3.5 3.5 0 1 0 0-7 3.5 3.5 0 0 0 0 7z" fill-rule="evenodd"/>
</svg>
