<svg width="32" height="32" viewBox="0 0 32 32" xmlns="http://www.w3.org/2000/svg">
    <path d="M3.272 28.728c-3.509-3.509-3.51-9.219 0-12.728L16 3.272c3.509-3.509 9.22-3.509 12.728 0 3.51 3.51 3.509 9.22 0 12.728l-1.414 1.414L25.899 16l1.415-1.414c2.73-2.73 2.728-7.171 0-9.9a7.008 7.008 0 0 0-9.9 0L4.686 17.414c-2.728 2.729-2.73 7.17 0 9.9 2.729 2.728 7.171 2.728 9.9 0l5.657-5.657a5.006 5.006 0 0 0 0-7.071 5.006 5.006 0 0 0-7.071 0l-4.95 4.95-1.414-1.415 4.95-4.95c2.729-2.729 7.17-2.728 9.899 0 2.729 2.73 2.73 7.17 0 9.9L16 28.728c-3.51 3.51-9.219 3.51-12.728 0" fill-rule="evenodd"/>
</svg>
