<svg width="32" height="32" viewBox="0 0 32 32" xmlns="http://www.w3.org/2000/svg">
    <path d="M17.414 16l4.95-4.95-1.414-1.414-4.95 4.95-4.95-4.95-1.414 1.414 4.95 4.95-4.95 4.95 1.414 1.414 4.95-4.95 4.95 4.95 1.414-1.414-4.95-4.95zM4.686 27.314c6.249 6.248 16.38 6.248 22.628 0 6.248-6.249 6.248-16.38 0-22.628-6.249-6.248-16.38-6.248-22.628 0-6.248 6.249-6.248 16.38 0 22.628zm1.415-1.415C.633 20.432.633 11.568 6.1 6.101 11.568.633 20.432.633 25.899 6.1c5.468 5.467 5.468 14.331 0 19.798-5.467 5.468-14.331 5.468-19.798 0z" fill-rule="evenodd"/>
</svg>
