<svg width="32" height="32" viewBox="0 0 32 32" xmlns="http://www.w3.org/2000/svg">
    <g fill-rule="evenodd">
        <path d="M6.003 15h9.99c.556 0 1.007.45 1.007 1.007V29H3V15h3.003z" fill-opacity=".15"/>
        <path d="M17 31h-4.5H28c1.653 0 3-1.343 3-3V4c0-1.653-1.343-3-3-3H4C2.347 1 1 2.343 1 4v15.5-5 13.507C1 29.647 2.34 31 3.993 31H17zM6.003 15h9.99c.556 0 1.007.45 1.007 1.007V29H3V15h3.003zM22.5 29h5.497c.552 0 1.003-.45 1.003-1.003V4.003C29 3.451 28.55 3 27.997 3H4.003C3.451 3 3 3.45 3 4.003v9.167c.311-.11.645-.17.993-.17h12.014A3.001 3.001 0 0 1 19 15.993v12.014c0 .348-.06.682-.17.993h3.67z"/>
    </g>
</svg>
