<svg width="32" height="32" viewBox="0 0 32 32" xmlns="http://www.w3.org/2000/svg">
    <path d="M0 5.007A2 2 0 0 1 2.002 3h27.996C31.104 3 32 3.898 32 5.007v22.986A2 2 0 0 1 29.998 30H2.002A2.004 2.004 0 0 1 0 27.993V5.007zM4 5h24v23H4V5zm25 16.503c0-.278.232-.503.5-.503.276 0 .5.233.5.503v5.994a.507.507 0 0 1-.5.503.507.507 0 0 1-.5-.503v-5.994zm-27 0c0-.278.232-.503.5-.503.276 0 .5.233.5.503v5.994a.507.507 0 0 1-.5.503.507.507 0 0 1-.5-.503v-5.994zM4 20h24v1H4v-1zm25-6.497c0-.278.232-.503.5-.503.276 0 .5.233.5.503v5.994a.507.507 0 0 1-.5.503.507.507 0 0 1-.5-.503v-5.994zm-27 0c0-.278.232-.503.5-.503.276 0 .5.233.5.503v5.994a.507.507 0 0 1-.5.503.507.507 0 0 1-.5-.503v-5.994zM4 12h24v1H4v-1zm25-6.497c0-.278.232-.503.5-.503.276 0 .5.233.5.503v5.994a.507.507 0 0 1-.5.503.507.507 0 0 1-.5-.503V5.503zm-27 0C2 5.225 2.232 5 2.5 5c.276 0 .5.233.5.503v5.994a.507.507 0 0 1-.5.503.507.507 0 0 1-.5-.503V5.503zM12 25h14v1H12v-1zm0-2h14v1H12v-1zm-6 0h2v2H6v-2zm6-6h14v1H12v-1zm0-2h14v1H12v-1zm-6 0h2v2H6v-2zm6-6h14v1H12V9zm0-2h14v1H12V7zM6 7h2v2H6V7z" fill-rule="evenodd"/>
</svg>
