<svg width="32" height="32" viewBox="0 0 32 32" xmlns="http://www.w3.org/2000/svg">
    <path d="M17 9V0h-2v9H2.002A2 2 0 0 0 0 11.006v9.988C0 22.103.896 23 2.002 23H15v9h2v-9h12.998A2 2 0 0 0 32 20.994v-9.988A2.003 2.003 0 0 0 29.998 9H17zM4 11h24v10H4V11zm25 .51a.51.51 0 0 1 .5-.51c.276 0 .5.228.5.51v8.98a.51.51 0 0 1-.5.51.505.505 0 0 1-.5-.51v-8.98zm-27 0a.51.51 0 0 1 .5-.51c.276 0 .5.228.5.51v8.98a.51.51 0 0 1-.5.51.505.505 0 0 1-.5-.51v-8.98zM12 15h14v1H12v-1zm0-2h14v1H12v-1zm-6 0h2v2H6v-2z" fill-rule="evenodd"/>
</svg>
