<svg width="32" height="32" viewBox="0 0 32 32" xmlns="http://www.w3.org/2000/svg">
    <g fill-rule="evenodd">
        <path d="M25 21h2.999A1 1 0 0 0 29 19.999V4A1 1 0 0 0 27.999 3H12A1 1 0 0 0 11 4.001V7h12.999A1 1 0 0 1 25 8.001V21zm-4 4h2.999A1 1 0 0 0 25 23.999V8A1 1 0 0 0 23.999 7H8A1 1 0 0 0 7 8.001V11h12.999A1 1 0 0 1 21 12.001V25z" fill-opacity=".15"/>
        <path d="M27 23h.999A3 3 0 0 0 31 19.999V4A3 3 0 0 0 27.999 1H12A3 3 0 0 0 9 4.001V5h2v-.999A1 1 0 0 1 12.001 3H28A1 1 0 0 1 29 4.001V20A1 1 0 0 1 27.999 21H27v2zm-4 4h.999A3 3 0 0 0 27 23.999V8A3 3 0 0 0 23.999 5H8A3 3 0 0 0 5 8.001V9h2v-.999A1 1 0 0 1 8.001 7H24A1 1 0 0 1 25 8.001V24A1 1 0 0 1 23.999 25H23v2zM1 12.001A3 3 0 0 1 4.001 9H20A3 3 0 0 1 23 12.001V28A3 3 0 0 1 19.999 31H4A3 3 0 0 1 1 27.999V12zm2 0V28A1 1 0 0 0 4.001 29H20A1 1 0 0 0 21 27.999V12A1 1 0 0 0 19.999 11H4A1 1 0 0 0 3 12.001z"/>
    </g>
</svg>
