<svg width="32" height="32" viewBox="0 0 32 32" xmlns="http://www.w3.org/2000/svg">
    <g fill-rule="evenodd">
        <path d="M21.894 19h6.105c.556 0 1.001-.448 1.001-1V4c0-.555-.448-1-1-1H14c-.555 0-1 .448-1 1v6.106A10.507 10.507 0 0 1 21.894 19z" fill-opacity=".15"/>
        <path d="M21.988 21h7.021C30.102 21 31 20.109 31 19.01V2.99C31 1.899 30.109 1 29.01 1H12.99C11.899 1 11 1.891 11 2.99v7.022c-5.567.26-10 4.857-10 10.488C1 26.299 5.701 31 11.5 31c5.631 0 10.227-4.433 10.488-10zm-.094-2h6.105c.556 0 1.001-.448 1.001-1V4c0-.555-.448-1-1-1H14c-.555 0-1 .448-1 1v6.106A10.507 10.507 0 0 1 21.894 19zM11.5 29a8.5 8.5 0 1 0 0-17 8.5 8.5 0 0 0 0 17z"/>
    </g>
</svg>
