<svg width="32" height="32" viewBox="0 0 32 32" xmlns="http://www.w3.org/2000/svg">
    <path d="M18 17.695c.245 0 .483.09.668.255.211.19.332.46.332.745v5.548l10.525-9.715-10.524-9.715-.001 5.82c0 .512-.387.94-.896.995-7.218.75-13.047 5.42-15.204 11.614 3.442-3.035 9.407-4.933 14.992-5.541a.977.977 0 0 1 .108-.006M1 29.528l-.038-.001A1 1 0 0 1 0 28.526C.021 19.105 7.266 11.179 17 9.75V3.529c0-.961.569-1.315.814-1.422.244-.108.891-.287 1.6.365l12.265 11.32a1.001 1.001 0 0 1 0 1.47l-12.264 11.32c-.71.657-1.356.476-1.6.37-.245-.107-.815-.46-.815-1.425v-5.701C8.658 20.979 2.289 24.66 1.997 28.602a1 1 0 0 1-.997.926" fill-rule="evenodd"/>
</svg>
