<svg width="32" height="32" viewBox="0 0 32 32" xmlns="http://www.w3.org/2000/svg">
    <g fill-rule="evenodd">
        <path d="M15 29.197c.165.084.332.165.5.244C23.11 25.862 28 17.731 28 8.593c0-1.32-.104-2.637-.309-3.93a11.14 11.14 0 0 1-4.09.77c-3.013 0-5.927-1.238-8.147-3.428-.148.145-.3.285-.454.422v26.77z" fill-opacity=".15"/>
        <path d="M15 29.197C7.678 25.502 3 17.53 3 8.593c0-1.344.107-2.684.32-3.998 1.303.512 2.67.771 4.08.771 2.772 0 5.464-1.055 7.6-2.94v26.771zm1 0c7.323-3.694 12-11.667 12-20.604 0-1.32-.104-2.637-.309-3.93a11.14 11.14 0 0 1-4.09.77c-2.772 0-5.46-1.048-7.601-2.92v26.685zM14.603 0C12.691 2.172 10.139 3.366 7.4 3.366a9.162 9.162 0 0 1-4.206-1.019l-.214-.109H1.744l-.168.794A27.01 27.01 0 0 0 1 8.593c0 10.09 5.532 19.064 14.094 22.861l.406.18.405-.18C24.467 27.657 30 18.682 30 8.594a27 27 0 0 0-.577-5.562l-.21-.794h-1.059l-.219.115a9.213 9.213 0 0 1-4.335 1.08c-2.777 0-5.36-1.218-7.288-3.433h-1.709z"/>
    </g>
</svg>
