<svg width="32" height="32" viewBox="0 0 32 32" xmlns="http://www.w3.org/2000/svg">
    <path d="M24 25c-3.116 0-6.792-2.145-8.319-4.86l-.034-.06 1.148-2.04.63 1.119C18.596 21.244 21.604 23 24 23v-4l8 5-8 5v-4zm0-16c-2.394 0-5.403 1.756-6.576 3.841L13.32 20.14C11.789 22.86 8.123 25 4.999 25H1v-2h4c2.401 0 5.4-1.752 6.576-3.841l4.105-7.298C17.208 9.145 20.884 7 24 7V3l8 5-8 5V9zm-11.795 4.96l-.63-1.119C10.402 10.752 7.402 9 5 9H1V7h4c3.123 0 6.79 2.141 8.319 4.86l.034.06-1.148 2.04z" fill-rule="evenodd"/>
</svg>
