<svg width="32" height="32" viewBox="0 0 32 32" xmlns="http://www.w3.org/2000/svg">
    <path d="M18.64 16.572a3.001 3.001 0 0 1-4.761 3.55 3 3 0 0 1 3.55-4.761l5.289-4.786.707.707-4.786 5.29zm6.527-9.153A13.94 13.94 0 0 0 17 4.035V3.01 3h3.005c.54 0 .995-.447.995-.999V.999A.994.994 0 0 0 20.005 0h-8.01c-.54 0-.995.447-.995.999v1.002c0 .556.446.999.995.999H15v1.035C7.735 4.548 2 10.605 2 18c0 7.732 6.268 14 14 14s14-6.268 14-14c0-3.506-1.289-6.711-3.419-9.167l.733-.732 1.414 1.414 2.121-2.122-4.242-4.242-2.122 2.121L25.9 6.686l-.732.733zM16 30C9.373 30 4 24.627 4 18S9.373 6 16 6s12 5.373 12 12-5.373 12-12 12zm-1.06-10.94a1.5 1.5 0 1 0 2.12-2.12 1.5 1.5 0 0 0-2.12 2.12z" fill-rule="evenodd"/>
</svg>
