<svg width="32" height="32" viewBox="0 0 32 32" xmlns="http://www.w3.org/2000/svg">
    <path d="M25.167 7.419A13.94 13.94 0 0 0 17 4.035V3.01 3h3.005c.54 0 .995-.447.995-.999V.999A.994.994 0 0 0 20.005 0h-8.01c-.54 0-.995.447-.995.999v1.002c0 .556.446.999.995.999H15v1.035C7.735 4.548 2 10.605 2 18c0 7.732 6.268 14 14 14s14-6.268 14-14c0-3.506-1.289-6.711-3.419-9.167l.733-.732 1.414 1.414 2.121-2.122-4.242-4.242-2.122 2.121L25.9 6.686l-.732.733zM16 30C9.373 30 4 24.627 4 18S9.373 6 16 6s12 5.373 12 12-5.373 12-12 12zM7.976 18A7.96 7.96 0 0 1 9.1 13.915l1.73.998-.465-4.194L6.5 12.413l1.732 1.001A8.958 8.958 0 0 0 6.976 18c0 4.971 3.891 9 8.862 9 1.052 0 1.862-.18 2.862-.512v-1.07c-1 .375-1.8.582-2.862.582-4.418 0-7.862-3.582-7.862-8zm15.793 4.499A8.954 8.954 0 0 0 24.977 18c0-4.971-4.168-9-9.14-9-1.051 0-2.137.18-3.137.512v1.069c1-.375 2.077-.581 3.138-.581 4.419 0 8.069 3.582 8.069 8 0 1.457-.36 2.821-1.041 3.998L21.155 21l.424 4.281 3.919-1.781-1.73-1.001z" fill-rule="evenodd"/>
</svg>
