<svg width="32" height="32" viewBox="0 0 32 32" xmlns="http://www.w3.org/2000/svg">
    <g fill-rule="evenodd">
        <circle fill-opacity=".15" cx="16" cy="16" r="3.5"/>
        <path d="M16 19a3 3 0 1 1 0-6 3 3 0 0 1 0 6m4-3a4 4 0 1 0-8 0 4 4 0 0 0 8 0m-4 14C8.268 30 2 23.732 2 16c0-2.701.772-5.218 2.097-7.357a3.497 3.497 0 0 0 4.546-4.546A13.922 13.922 0 0 1 16 2c7.732 0 14 6.268 14 14s-6.268 14-14 14M3.626 3.626A2.5 2.5 0 1 1 7.16 7.161a2.5 2.5 0 0 1-3.534-3.535M16 0a15.91 15.91 0 0 0-8.613 2.526 3.493 3.493 0 0 0-4.468.393 3.493 3.493 0 0 0-.393 4.468A15.91 15.91 0 0 0 0 16c0 8.837 7.163 16 16 16s16-7.163 16-16S24.837 0 16 0m5.75 25.959a2.499 2.499 0 1 1-2.5-4.33 2.5 2.5 0 0 1 2.5 4.33M8 16a8 8 0 0 1 16 0 7.96 7.96 0 0 1-1.643 4.846 3.487 3.487 0 0 0-3.607-.083 3.487 3.487 0 0 0-1.732 3.166A8.13 8.13 0 0 1 16 24a8 8 0 0 1-8-8m8-10C10.477 6 6 10.477 6 16s4.477 10 10 10c.576 0 1.137-.061 1.686-.154 1.041 1.428 3 1.882 4.564.979a3.486 3.486 0 0 0 1.434-4.44A9.947 9.947 0 0 0 26 16c0-5.523-4.477-10-10-10"/>
    </g>
</svg>
