<svg width="32" height="32" viewBox="0 0 32 32" xmlns="http://www.w3.org/2000/svg">
    <g fill-rule="evenodd">
        <path d="M28.846 21h-8.698c-1.145-1-2.582-2.496-4.207-3.186.01-.019.022-.035.032-.054a7.03 7.03 0 0 0 2.236-2.534C19.29 14.454 20.556 14 21.907 14c3.515 0 6.51 2.999 6.947 6.998-.002-.003-.005.002-.008.002zM22 4a4 4 0 0 1 0 8 3.983 3.983 0 0 1-3.195-1.615 6.956 6.956 0 0 0-.756-1.897C18.03 8.326 18 8.167 18 8a4 4 0 0 1 4-4z" fill-opacity=".15"/>
        <path d="M17.04 20.75C15.585 19.643 13.83 19 11.954 19c-4.61 0-8.49 3.883-8.954 8.979-.002.015.004.021.004.021h17.9s.005-.006.003-.021c-.261-2.87-1.607-5.355-3.555-6.979H17c.012-.084.025-.167.04-.25zm1.428-1.254c.611.523 1.174 1.062 1.68 1.504h8.698c.003 0 .006-.005.008-.002C28.416 16.999 25.422 14 21.907 14c-1.35 0-2.616.454-3.698 1.226a7.03 7.03 0 0 1-2.236 2.534c-.01.019-.023.035-.033.054.605.257 1.183.625 1.73 1.037.155-.302.332-.587.528-.851h1.333a4.84 4.84 0 0 0-1.063 1.496zm7.055-6.646A5.987 5.987 0 0 0 28 8a5.996 5.996 0 1 0-11.783-1.578A6.958 6.958 0 0 0 12.002 5a7 7 0 0 0-3.944 12.782c-3.815 1.577-6.627 5.396-7.049 10.015A2.013 2.013 0 0 0 3.005 30h17.9a2.013 2.013 0 0 0 1.995-2.203c-.159-1.74-.665-3.797-1.428-4.797h7.374a2.008 2.008 0 0 0 1.995-2.218c-.39-3.576-2.475-6.544-5.319-7.932zM22 4a4 4 0 0 1 0 8 3.983 3.983 0 0 1-3.195-1.615 6.956 6.956 0 0 0-.756-1.897C18.03 8.326 18 8.167 18 8a4 4 0 0 1 4-4zM7 12a5 5 0 1 1 10.002.001A5 5 0 0 1 7 12zm11.654 16a10.47 10.47 0 0 0-.999-3h-1.144a9.213 9.213 0 0 1 1.127 3h1.016zM5 28c.191-1.085.533-2.099.999-3h1.145a9.214 9.214 0 0 0-1.128 3H5zm21.862-7c-.158-1.136-.582-2.17-1.198-3h-1.333c.768.721 1.322 1.78 1.52 3h1.011z"/>
    </g>
</svg>
