<svg width="32" height="32" viewBox="0 0 32 32" xmlns="http://www.w3.org/2000/svg">
    <path d="M25.95 24c-1.76-4.138-5.62-7-9.989-7-5.672 0-10.487 4.824-10.96 10.982l2.55.002c.102-1.055.357-2.06.741-2.984h1.093a9.247 9.247 0 0 0-.828 2.985l11.443.01V30h3.46H5.003a1.997 1.997 0 0 1-1.465-.642 2.021 2.021 0 0 1-.532-1.53c.433-5.615 3.995-10.281 8.73-12.058a8 8 0 1 1 8.499.018C23.818 17.15 26.725 20.17 28.1 24h-2.15zM16 15a6 6 0 1 1 0-12 6 6 0 0 1 0 12zm16 11v2H22v-2h10z" fill-rule="evenodd"/>
</svg>
