<svg width="32" height="32" viewBox="0 0 32 32" xmlns="http://www.w3.org/2000/svg">
    <g fill-rule="evenodd">
        <path d="M24 21h-3.852c-1.145-1-2.582-2.496-4.207-3.186.01-.019.022-.035.032-.054a7.03 7.03 0 0 0 2.236-2.534C19.29 14.454 20.556 14 21.907 14c3.216 0 5.996 2.51 6.78 6H24v1zM22 4a4 4 0 0 1 0 8 3.983 3.983 0 0 1-3.195-1.615 6.956 6.956 0 0 0-.756-1.897C18.03 8.326 18 8.167 18 8a4 4 0 0 1 4-4z" fill-opacity=".15"/>
        <path d="M28 26v-4h-2v4h-4v2h4v4h2v-4h4v-2h-4zm-7.548 4H3.004a2.013 2.013 0 0 1-1.996-2.203c.422-4.619 3.234-8.438 7.048-10.015A7 7 0 0 1 12 5c1.586 0 3.043.533 4.217 1.422A5.996 5.996 0 0 1 28 8a5.987 5.987 0 0 1-2.478 4.85c2.634 1.285 4.617 3.926 5.206 7.15h-2.04c-.785-3.49-3.565-6-6.78-6-1.352 0-2.618.454-3.7 1.226a7.03 7.03 0 0 1-2.235 2.534c-.01.019-.023.035-.033.054.605.257 1.183.625 1.73 1.037.155-.302.332-.587.528-.851h1.333a4.84 4.84 0 0 0-1.063 1.496c.611.523 1.174 1.062 1.68 1.504H24v2h-4v1.51A9.85 9.85 0 0 0 17.353 21H17c.012-.084.025-.167.04-.25-1.454-1.107-3.21-1.75-5.086-1.75C7.345 19 3.465 22.883 3 27.979c-.002.015.004.021.004.021H20v2h.452zm6.196-10a6.355 6.355 0 0 0-.984-2h-1.333c.55.515.989 1.204 1.267 2h1.05zM22 4a4 4 0 0 1 0 8 3.983 3.983 0 0 1-3.195-1.615 6.956 6.956 0 0 0-.756-1.897C18.03 8.326 18 8.167 18 8a4 4 0 0 1 4-4zM7 12a5 5 0 1 1 10.002.001A5 5 0 0 1 7 12zm11.654 16a10.47 10.47 0 0 0-.999-3h-1.144a9.213 9.213 0 0 1 1.127 3h1.016zM5 28c.191-1.085.533-2.099.999-3h1.145a9.214 9.214 0 0 0-1.128 3H5z"/>
    </g>
</svg>
