<svg width="32" height="32" viewBox="0 0 32 32" xmlns="http://www.w3.org/2000/svg">
    <path d="M28 26v-4h-2v4h-4v2h4v4h2v-4h4v-2h-4zm-8 1.994l-11.443-.01c.112-1.068.399-2.075.828-2.984H8.292c-.384.924-.64 1.929-.74 2.984L5 27.982C5.474 21.824 10.29 17 15.961 17c3.14 0 6.016 1.478 8.039 3.844V20h1.891c-1.494-1.902-3.446-3.372-5.656-4.211a8 8 0 1 0-8.499-.018c-4.735 1.776-8.297 6.442-8.73 12.057-.044.561.15 1.119.532 1.53.377.409.911.642 1.465.642H22h-2v-2.006zM16 15a6 6 0 1 1 0-12 6 6 0 0 1 0 12z" fill-rule="evenodd"/>
</svg>
