<svg width="32" height="32" viewBox="0 0 32 32" xmlns="http://www.w3.org/2000/svg">
    <g fill-rule="evenodd">
        <path d="M28.846 21h-8.698c-1.145-1-2.582-2.496-4.207-3.186.01-.019.022-.035.032-.054a7.03 7.03 0 0 0 2.236-2.534C19.29 14.454 20.556 14 21.907 14c3.515 0 6.51 2.999 6.947 6.998-.002-.003-.005.002-.008.002zM22 4a4 4 0 0 1 0 8 3.983 3.983 0 0 1-3.195-1.615 6.956 6.956 0 0 0-.756-1.897C18.03 8.326 18 8.167 18 8a4 4 0 0 1 4-4z" fill-opacity=".15"/>
        <path d="M20 28H3.004s-.006-.006-.004-.021C3.465 22.883 7.345 19 11.954 19c1.877 0 3.632.643 5.085 1.75A7.077 7.077 0 0 0 17 21h.353A9.85 9.85 0 0 1 20 24.51V23h8.846a2.008 2.008 0 0 0 1.995-2.218c-.39-3.576-2.475-6.544-5.319-7.932A5.987 5.987 0 0 0 28 8a5.996 5.996 0 1 0-11.783-1.578A6.958 6.958 0 0 0 12 5a7 7 0 0 0-3.944 12.782c-3.814 1.577-6.626 5.396-7.048 10.015A2.013 2.013 0 0 0 3.004 30h17.448H20v-2zm-1.532-8.504c.611.523 1.174 1.062 1.68 1.504h8.698c.002 0 .006-.005.007-.002-.437-3.999-3.43-6.998-6.946-6.998-1.35 0-2.617.454-3.699 1.226a7.03 7.03 0 0 1-2.235 2.534c-.01.019-.023.035-.033.054.605.257 1.183.625 1.73 1.037.155-.302.332-.587.528-.851h1.333a4.84 4.84 0 0 0-1.063 1.496zM22 4a4 4 0 0 1 0 8 3.983 3.983 0 0 1-3.195-1.615 6.956 6.956 0 0 0-.756-1.897C18.03 8.326 18 8.167 18 8a4 4 0 0 1 4-4zM7 12a5 5 0 1 1 10.002.001A5 5 0 0 1 7 12zm11.654 16a10.47 10.47 0 0 0-.999-3h-1.144a9.213 9.213 0 0 1 1.127 3h1.016zM5 28c.191-1.085.533-2.099.999-3h1.145a9.214 9.214 0 0 0-1.128 3H5zm21.862-7c-.158-1.136-.582-2.17-1.198-3h-1.333c.768.721 1.322 1.78 1.52 3h1.011zM32 26v2H22v-2h10z"/>
    </g>
</svg>
