<svg width="32" height="32" viewBox="0 0 32 32" xmlns="http://www.w3.org/2000/svg">
    <path d="M20.235 15.789a8 8 0 1 0-8.499-.018c-4.735 1.776-8.297 6.442-8.73 12.057-.044.561.15 1.119.532 1.53.377.409.911.642 1.465.642H26.92c.554 0 1.088-.233 1.465-.642.382-.411.576-.969.532-1.53-.43-5.596-3.97-10.25-8.681-12.04zM16 15a6 6 0 1 1 0-12 6 6 0 0 1 0 12zm-.039 2c-5.672 0-10.487 4.824-10.96 10.982L26.92 28c-.473-6.176-5.288-11-10.96-11zm-7.669 8h1.093a9.249 9.249 0 0 0-.83 3H7.55c.1-1.061.356-2.071.742-3zm15.424 0h-1.093c.431.913.718 1.925.83 3h1.004a10.315 10.315 0 0 0-.741-3z" fill-rule="evenodd"/>
</svg>
