<svg width="32" height="32" viewBox="0 0 32 32" xmlns="http://www.w3.org/2000/svg">
    <g fill-rule="evenodd">
        <path d="M5 8h22v16H5V8zm8 10a2 2 0 1 0 0-4 2 2 0 0 0 0 4z" fill-opacity=".15"/>
        <path d="M15.708 14.707l2.237-2.238a1.003 1.003 0 0 0 .005-1.419 1.001 1.001 0 0 0-1.42.005l-2.237 2.237a3 3 0 0 0-4.001 4.001l-2.237 2.238a1.003 1.003 0 0 0-.005 1.419 1.001 1.001 0 0 0 1.42-.005l2.237-2.237a3 3 0 0 0 4.001-4.001zM5 29h4v2H5v-2zm18 0h4v2h-4v-2zM0 6.008A2.997 2.997 0 0 1 2.996 3h26.008A3 3 0 0 1 32 6.008v19.984A2.997 2.997 0 0 1 29.004 29H2.996A3 3 0 0 1 0 25.992V6.008zm2-.006C2 5.45 2.44 5 2.997 5h26.006c.55 0 .997.44.997 1.002v19.996A.995.995 0 0 1 29.003 27H2.997A.994.994 0 0 1 2 25.998V6.002zM4 7h24v18H4V7zm1 1h22v16H5V8zm8 10a2 2 0 1 0 0-4 2 2 0 0 0 0 4zm11-7h1v10h-1V11z"/>
    </g>
</svg>
