<svg width="32" height="32" viewBox="0 0 32 32" xmlns="http://www.w3.org/2000/svg">
    <path d="M13.146 2.98L1.118 24.027C-.36 26.615 1.025 29 4.004 29h23.992c2.982 0 4.365-2.385 2.886-4.972L18.854 2.98c-1.48-2.591-4.227-2.591-5.708 0zm1.736.992c.713-1.248 1.523-1.248 2.236 0L29.146 25.02c.716 1.254.296 1.979-1.15 1.979H4.004c-1.444 0-1.866-.726-1.15-1.98L14.882 3.973zM15 21.999A.997.997 0 0 1 16 21c.552 0 1 .443 1 .999v1.002A.997.997 0 0 1 16 24c-.552 0-1-.443-1-.999v-1.002zm0-11.001c0-.551.444-.998 1-.998.552 0 1 .446 1 .998v7.004c0 .551-.444.998-1 .998-.552 0-1-.446-1-.998v-7.004z" fill-rule="evenodd"/>
</svg>
