<svg width="16" height="16" viewBox="0 0 16 16" xmlns="http://www.w3.org/2000/svg">
    <path d="M8 0a8 8 0 1 1 0 16A8 8 0 0 1 8 0zm.485 11.503c.51-.464.765-.76.765-.886 0-.032-.027-.089-.081-.171-.054-.083-.105-.125-.152-.125-.054 0-.18.125-.38.373s-.374.372-.522.372a.12.12 0 0 1-.06-.018c-.021-.011-.031-.04-.031-.088 0-.04.013-.11.04-.213.027-.102.071-.236.132-.402l.77-1.974c.068-.142.112-.28.132-.414.02-.134.03-.26.03-.378A1.17 1.17 0 0 0 8.9 6.85c-.152-.2-.38-.301-.684-.301-.189 0-.407.079-.653.236a3.508 3.508 0 0 0-.634.509 4.811 4.811 0 0 0-.486.561c-.129.178-.193.306-.193.385 0 .023.027.078.081.165.054.087.108.13.162.13.047 0 .198-.156.451-.467.254-.311.424-.467.512-.467.034 0 .06.014.081.042.02.027.03.073.03.136a.81.81 0 0 1-.035.218 3.449 3.449 0 0 1-.116.325l-.963 2.33c-.04.118-.078.234-.112.348-.034.114-.05.239-.05.372 0 .213.064.404.192.574.129.17.335.254.618.254.413 0 .874-.233 1.384-.698zM9.83 5.274c.208-.213.313-.465.313-.757 0-.291-.105-.543-.313-.756a1.028 1.028 0 0 0-.763-.32c-.292 0-.544.107-.757.32-.212.213-.319.465-.319.756 0 .292.107.544.32.757.212.213.464.32.756.32.3 0 .554-.107.763-.32z" fill-rule="evenodd"/>
</svg>
