<svg width="16" height="16" viewBox="0 0 16 16" xmlns="http://www.w3.org/2000/svg">
    <path d="M8 1a7 7 0 1 0 0 14A7 7 0 0 0 8 1zm.485 10.503c-.51.465-.971.698-1.384.698-.283 0-.49-.085-.618-.254a.925.925 0 0 1-.192-.574c0-.133.016-.258.05-.372.034-.114.071-.23.112-.349l.963-2.329c.054-.134.092-.242.116-.325a.81.81 0 0 0 .036-.218c0-.063-.01-.109-.03-.136a.096.096 0 0 0-.082-.042c-.088 0-.258.156-.512.467-.253.311-.404.467-.45.467-.055 0-.109-.043-.163-.13a.488.488 0 0 1-.081-.165c0-.08.064-.207.193-.385.128-.177.29-.364.486-.561.176-.181.387-.35.633-.509.247-.157.465-.236.654-.236.304 0 .532.1.684.301.152.201.228.444.228.728 0 .118-.01.244-.03.378a1.46 1.46 0 0 1-.132.414l-.77 1.974c-.06.166-.105.3-.132.402a.997.997 0 0 0-.04.213c0 .047.01.077.03.088a.12.12 0 0 0 .06.018c.15 0 .323-.124.523-.372s.326-.373.38-.373c.047 0 .098.042.152.125.054.082.081.14.081.171 0 .126-.255.422-.765.886zM9.83 5.274c-.21.213-.464.32-.763.32-.292 0-.544-.107-.757-.32a1.034 1.034 0 0 1-.319-.757c0-.291.107-.543.32-.756a1.03 1.03 0 0 1 .756-.32c.3 0 .554.107.763.32.208.213.313.465.313.756 0 .292-.105.544-.313.757z" fill-rule="evenodd"/>
</svg>
