<svg width="16" height="16" viewBox="0 0 16 16" xmlns="http://www.w3.org/2000/svg">
    <g fill-rule="evenodd">
        <path d="M15 3.996v2.001C15 5.453 14.55 5 13.993 5H2.007C1.45 5 1 5.446 1 5.997V1.998A.997.997 0 0 1 2 1h3.502c.275 0 .598.2.72.444L7 3h7.003c.55 0 .997.445.997.996zM11.5 16a4.5 4.5 0 1 1 0-9 4.5 4.5 0 0 1 0 9zm2.5-5H9v1h5v-1z" fill-opacity=".4"/>
        <path d="M15 8.671V5.998C15 5.446 14.55 5 13.993 5H2.007C1.45 5 1 5.447 1 5.998v7.004c0 .552.45.998 1.007.998h5.75A4.5 4.5 0 0 1 15 8.671z"/>
    </g>
</svg>
