<svg width="16" height="16" viewBox="0 0 16 16" xmlns="http://www.w3.org/2000/svg">
    <g fill-rule="evenodd">
        <path d="M12 12h2v-1h-2V9h-1v2H9v1h2v2h1v-2zm3-8.004A.996.996 0 0 0 14.003 3H7l-.778-1.556A.88.88 0 0 0 5.502 1H2c-.556 0-1 .447-1 .998v3.999C1 5.447 1.45 5 2.007 5h11.986C14.55 5 15 5.453 15 5.997V3.996zM11.5 16a4.5 4.5 0 1 0 0-9 4.5 4.5 0 0 0 0 9z" fill-opacity=".3"/>
        <path d="M15 8.671V5.998C15 5.446 14.55 5 13.993 5H2.007C1.45 5 1 5.447 1 5.998v7.004c0 .552.45.998 1.007.998h5.75A4.5 4.5 0 0 1 15 8.671z"/>
    </g>
</svg>
