<svg width="16" height="16" viewBox="0 0 16 16" xmlns="http://www.w3.org/2000/svg">
    <path d="M14 9h-1.1a4.984 4.984 0 0 1-.728 1.757l.777.778a1 1 0 1 1-1.414 1.414l-.778-.777A4.984 4.984 0 0 1 9 12.9V14c0 .555-.448 1-1 1-.556 0-1-.448-1-1v-1.1a4.984 4.984 0 0 1-1.757-.728l-.778.777a1 1 0 1 1-1.414-1.414l.777-.778A4.984 4.984 0 0 1 3.1 9H2c-.555 0-1-.448-1-1 0-.556.448-1 1-1h1.1c.13-.638.381-1.233.728-1.757l-.777-.778a1 1 0 1 1 1.414-1.414l.778.777A4.984 4.984 0 0 1 7 3.1V2c0-.555.448-1 1-1 .556 0 1 .448 1 1v1.1c.638.13 1.233.381 1.757.728l.778-.777a1 1 0 1 1 1.414 1.414l-.777.778c.347.524.598 1.119.728 1.757H14c.555 0 1 .448 1 1 0 .556-.448 1-1 1zM5.25 8a2.75 2.75 0 1 0 5.5 0 2.75 2.75 0 0 0-5.5 0z" fill-rule="evenodd"/>
</svg>
