<svg width="16" height="16" viewBox="0 0 16 16" xmlns="http://www.w3.org/2000/svg">
    <path d="M14 9c.552 0 1-.444 1-1 0-.552-.445-1-1-1h-1.1a4.984 4.984 0 0 0-.728-1.757l.777-.778a1 1 0 1 0-1.414-1.414l-.778.777A4.984 4.984 0 0 0 9 3.1V2c0-.552-.444-1-1-1-.552 0-1 .445-1 1v1.1a4.984 4.984 0 0 0-1.757.728l-.778-.777a1 1 0 1 0-1.414 1.414l.777.778A4.984 4.984 0 0 0 3.1 7H2c-.552 0-1 .444-1 1 0 .552.445 1 1 1h1.1c.13.638.381 1.233.728 1.757l-.777.778a1 1 0 1 0 1.414 1.414l.778-.777A4.984 4.984 0 0 0 7 12.9V14c0 .552.444 1 1 1 .552 0 1-.445 1-1v-1.1a4.984 4.984 0 0 0 1.757-.728l.778.777a1 1 0 1 0 1.414-1.414l-.777-.778A4.984 4.984 0 0 0 12.9 9H14zM5.25 8a2.75 2.75 0 1 1 5.5 0 2.75 2.75 0 0 1-5.5 0z" fill-rule="evenodd"/>
</svg>
