<svg width="16" height="16" viewBox="0 0 16 16" xmlns="http://www.w3.org/2000/svg">
    <g fill-rule="nonzero">
        <path d="M10.475 5.525c-3.007-3.007-6.58-4.027-7.778-2.828-1.2 1.199-.179 4.771 2.828 7.778 3.007 3.007 6.58 4.027 7.778 2.828 1.2-1.199.179-4.771-2.828-7.778zm3.889 8.839c-1.953 1.953-6.385.686-9.9-2.828C.95 8.02-.316 3.589 1.636 1.636c1.953-1.953 6.385-.686 9.9 2.828 3.514 3.515 4.78 7.947 2.828 9.9z" fill-opacity=".4"/>
        <path d="M1.636 14.364c-1.953-1.953-.686-6.385 2.828-9.9 3.515-3.514 7.947-4.78 9.9-2.828 1.953 1.953.686 6.385-2.828 9.9-3.515 3.514-7.947 4.78-9.9 2.828zm1.06-1.06c1.2 1.198 4.772.178 7.779-2.83 3.007-3.006 4.027-6.578 2.828-7.777-1.199-1.2-4.771-.179-7.778 2.828-3.007 3.007-4.027 6.58-2.828 7.778zM8 10a2 2 0 1 1 0-4 2 2 0 0 1 0 4z"/>
    </g>
</svg>
