<svg width="16" height="16" viewBox="0 0 16 16" xmlns="http://www.w3.org/2000/svg">
        <path d="M4 14c0-.552.456-1 1.002-1h9.996a.999.999 0 1 1 0 2H5.002A.999.999 0 0 1 4 14zm0-6c0-.552.456-1 1.002-1h9.996a.999.999 0 1 1 0 2H5.002A.999.999 0 0 1 4 8zm0-6c0-.552.456-1 1.002-1h9.996a.999.999 0 1 1 0 2H5.002A.999.999 0 0 1 4 2zM0 2c0-.552.444-1 1-1 .552 0 1 .444 1 1 0 .552-.444 1-1 1-.552 0-1-.444-1-1zm0 6c0-.552.444-1 1-1 .552 0 1 .444 1 1 0 .552-.444 1-1 1-.552 0-1-.444-1-1zm0 6c0-.552.444-1 1-1 .552 0 1 .444 1 1 0 .552-.444 1-1 1-.552 0-1-.444-1-1z" id="a" fill-rule="evenodd"/>
</svg>
