<svg width="16" height="16" viewBox="0 0 16 16" xmlns="http://www.w3.org/2000/svg">
    <path d="M12 5.155c-1.086.314-2.213 1.072-2.74 1.917L7.436 9.988C6.38 11.678 4.003 13 2.009 13H1v-2h1.01c1.303 0 3.04-.965 3.73-2.072l1.823-2.916C8.452 4.591 10.261 3.437 12 3.1V1l2.667 2H15v.25L16 4l-1 .75V5h-.333L12 7V5.155zm0 5.69a5.566 5.566 0 0 1-2.041-1.118l-.826 1.32c-.08.13-.166.256-.256.38.903.724 2.027 1.26 3.123 1.473V15l2.667-2H15v-.25l1-.75-1-.75V11h-.333L12 9v1.845zM6.122 4.573C4.942 3.63 3.384 3 2.01 3H1v2h1.01c.974 0 2.19.54 3.03 1.274l.827-1.322a7.61 7.61 0 0 1 .255-.379z" fill-rule="evenodd"/>
</svg>
