<svg width="16" height="16" viewBox="0 0 16 16" xmlns="http://www.w3.org/2000/svg">
    <g fill-rule="evenodd">
        <path d="M12 11V9h-1v2H9v1h2v2h1v-2h2v-1h-2zm-1.13-3.956A4.5 4.5 0 1 1 7.027 12H5V8.802C6.159 7.705 7.968 7 10 7c.295 0 .586.015.87.044zM10 7a3 3 0 1 1 0-6 3 3 0 0 1 0 6z" fill-opacity=".4"/>
        <path d="M7.226 10.087A8.574 8.574 0 0 0 6 10c-2.032 0-3.841.705-5 1.802V15h7.671A4.491 4.491 0 0 1 7 11.5c0-.493.08-.968.226-1.413zM8.881 7.84A3.001 3.001 0 1 0 3 7a3 3 0 0 0 4.393 2.658A4.517 4.517 0 0 1 8.881 7.84z"/>
    </g>
</svg>
