<svg width="16" height="16" viewBox="0 0 16 16" xmlns="http://www.w3.org/2000/svg">
    <g fill-rule="evenodd">
        <path d="M12 11V9h-1v2H9v1h2v2h1v-2h2v-1h-2zm-4.973 1H5V8.802C6.159 7.705 7.968 7 10 7c.295 0 .586.015.87.044A4.5 4.5 0 1 1 7.027 12zM10 7a3 3 0 1 0 0-6 3 3 0 0 0 0 6z" fill-opacity=".3"/>
        <path d="M8.671 15H1v-3.198C2.159 10.705 3.968 10 6 10c.42 0 .83.03 1.226.087-.147.445-.226.92-.226 1.413 0 1.414.652 2.675 1.671 3.5zM7.393 9.658A3 3 0 1 1 8.88 7.84a4.517 4.517 0 0 0-1.487 1.817z"/>
    </g>
</svg>
