<?xml version="1.0" encoding="UTF-8" standalone="no"?>
<svg width="180px" height="200px" viewBox="0 0 180 200" version="1.1" xmlns="http://www.w3.org/2000/svg" xmlns:xlink="http://www.w3.org/1999/xlink">
    <!-- Generator: Sketch 3.6.1 (26313) - http://www.bohemiancoding.com/sketch -->
    <title>dcos-ee-logo-styled</title>
    <desc>Created with Sketch.</desc>
    <defs>
        <linearGradient x1="50%" y1="0%" x2="50%" y2="100%" id="linearGradient-1">
            <stop stop-color="#A873EA" offset="0%"></stop>
            <stop stop-color="#9351E5" offset="100%"></stop>
        </linearGradient>
        <linearGradient x1="50%" y1="0%" x2="50%" y2="100%" id="linearGradient-2">
            <stop stop-color="#7540B7" offset="0%"></stop>
            <stop stop-color="#9351E5" offset="100%"></stop>
        </linearGradient>
        <path id="path-3" d="M49.2930227,99.9571448 L0.292830232,50.9569523 C-0.0976434108,50.5664786 -0.0976434108,49.9335214 0.292830232,49.5430477 L49.2930227,0.542855232 C49.6834964,0.152381589 50.3164536,0.152381589 50.7069273,0.542855232 L99.7071198,49.5430477 C100.097593,49.9335214 100.097593,50.5664786 99.7071198,50.9569523 L50.7069273,99.9571448 C50.3164536,100.347618 49.6834964,100.347618 49.2930227,99.9571448"></path>
        <filter x="-50%" y="-50%" width="200%" height="200%" filterUnits="objectBoundingBox" id="filter-5">
            <feOffset dx="0" dy="4" in="SourceAlpha" result="shadowOffsetOuter1"></feOffset>
            <feGaussianBlur stdDeviation="2" in="shadowOffsetOuter1" result="shadowBlurOuter1"></feGaussianBlur>
            <feColorMatrix values="0 0 0 0 0   0 0 0 0 0   0 0 0 0 0  0 0 0 0.14 0" in="shadowBlurOuter1" type="matrix" result="shadowMatrixOuter1"></feColorMatrix>
            <feMerge>
                <feMergeNode in="shadowMatrixOuter1"></feMergeNode>
                <feMergeNode in="SourceGraphic"></feMergeNode>
            </feMerge>
        </filter>
        <filter x="-50%" y="-50%" width="200%" height="200%" filterUnits="objectBoundingBox" id="filter-6">
            <feOffset dx="0" dy="4" in="SourceAlpha" result="shadowOffsetOuter1"></feOffset>
            <feGaussianBlur stdDeviation="2" in="shadowOffsetOuter1" result="shadowBlurOuter1"></feGaussianBlur>
            <feColorMatrix values="0 0 0 0 0   0 0 0 0 0   0 0 0 0 0  0 0 0 0.14 0" in="shadowBlurOuter1" type="matrix" result="shadowMatrixOuter1"></feColorMatrix>
            <feMerge>
                <feMergeNode in="shadowMatrixOuter1"></feMergeNode>
                <feMergeNode in="SourceGraphic"></feMergeNode>
            </feMerge>
        </filter>
        <filter x="-50%" y="-50%" width="200%" height="200%" filterUnits="objectBoundingBox" id="filter-7">
            <feOffset dx="0" dy="4" in="SourceAlpha" result="shadowOffsetOuter1"></feOffset>
            <feGaussianBlur stdDeviation="2" in="shadowOffsetOuter1" result="shadowBlurOuter1"></feGaussianBlur>
            <feColorMatrix values="0 0 0 0 0   0 0 0 0 0   0 0 0 0 0  0 0 0 0.14 0" in="shadowBlurOuter1" type="matrix" result="shadowMatrixOuter1"></feColorMatrix>
            <feMerge>
                <feMergeNode in="shadowMatrixOuter1"></feMergeNode>
                <feMergeNode in="SourceGraphic"></feMergeNode>
            </feMerge>
        </filter>
        <filter x="-50%" y="-50%" width="200%" height="200%" filterUnits="objectBoundingBox" id="filter-8">
            <feOffset dx="0" dy="4" in="SourceAlpha" result="shadowOffsetOuter1"></feOffset>
            <feGaussianBlur stdDeviation="2" in="shadowOffsetOuter1" result="shadowBlurOuter1"></feGaussianBlur>
            <feColorMatrix values="0 0 0 0 0   0 0 0 0 0   0 0 0 0 0  0 0 0 0.14 0" in="shadowBlurOuter1" type="matrix" result="shadowMatrixOuter1"></feColorMatrix>
            <feMerge>
                <feMergeNode in="shadowMatrixOuter1"></feMergeNode>
                <feMergeNode in="SourceGraphic"></feMergeNode>
            </feMerge>
        </filter>
        <filter x="-50%" y="-50%" width="200%" height="200%" filterUnits="objectBoundingBox" id="filter-9">
            <feOffset dx="0" dy="4" in="SourceAlpha" result="shadowOffsetOuter1"></feOffset>
            <feGaussianBlur stdDeviation="2" in="shadowOffsetOuter1" result="shadowBlurOuter1"></feGaussianBlur>
            <feColorMatrix values="0 0 0 0 0   0 0 0 0 0   0 0 0 0 0  0 0 0 0.14 0" in="shadowBlurOuter1" type="matrix" result="shadowMatrixOuter1"></feColorMatrix>
            <feMerge>
                <feMergeNode in="shadowMatrixOuter1"></feMergeNode>
                <feMergeNode in="SourceGraphic"></feMergeNode>
            </feMerge>
        </filter>
        <filter x="-50%" y="-50%" width="200%" height="200%" filterUnits="objectBoundingBox" id="filter-10">
            <feOffset dx="0" dy="4" in="SourceAlpha" result="shadowOffsetOuter1"></feOffset>
            <feGaussianBlur stdDeviation="2" in="shadowOffsetOuter1" result="shadowBlurOuter1"></feGaussianBlur>
            <feColorMatrix values="0 0 0 0 0   0 0 0 0 0   0 0 0 0 0  0 0 0 0.14 0" in="shadowBlurOuter1" type="matrix" result="shadowMatrixOuter1"></feColorMatrix>
            <feMerge>
                <feMergeNode in="shadowMatrixOuter1"></feMergeNode>
                <feMergeNode in="SourceGraphic"></feMergeNode>
            </feMerge>
        </filter>
        <filter x="-50%" y="-50%" width="200%" height="200%" filterUnits="objectBoundingBox" id="filter-11">
            <feOffset dx="0" dy="4" in="SourceAlpha" result="shadowOffsetOuter1"></feOffset>
            <feGaussianBlur stdDeviation="2" in="shadowOffsetOuter1" result="shadowBlurOuter1"></feGaussianBlur>
            <feColorMatrix values="0 0 0 0 0   0 0 0 0 0   0 0 0 0 0  0 0 0 0.14 0" in="shadowBlurOuter1" type="matrix" result="shadowMatrixOuter1"></feColorMatrix>
            <feMerge>
                <feMergeNode in="shadowMatrixOuter1"></feMergeNode>
                <feMergeNode in="SourceGraphic"></feMergeNode>
            </feMerge>
        </filter>
        <filter x="-50%" y="-50%" width="200%" height="200%" filterUnits="objectBoundingBox" id="filter-12">
            <feOffset dx="0" dy="4" in="SourceAlpha" result="shadowOffsetOuter1"></feOffset>
            <feGaussianBlur stdDeviation="2" in="shadowOffsetOuter1" result="shadowBlurOuter1"></feGaussianBlur>
            <feColorMatrix values="0 0 0 0 0   0 0 0 0 0   0 0 0 0 0  0 0 0 0.14 0" in="shadowBlurOuter1" type="matrix" result="shadowMatrixOuter1"></feColorMatrix>
            <feMerge>
                <feMergeNode in="shadowMatrixOuter1"></feMergeNode>
                <feMergeNode in="SourceGraphic"></feMergeNode>
            </feMerge>
        </filter>
        <filter x="-50%" y="-50%" width="200%" height="200%" filterUnits="objectBoundingBox" id="filter-13">
            <feOffset dx="0" dy="4" in="SourceAlpha" result="shadowOffsetOuter1"></feOffset>
            <feGaussianBlur stdDeviation="2" in="shadowOffsetOuter1" result="shadowBlurOuter1"></feGaussianBlur>
            <feColorMatrix values="0 0 0 0 0   0 0 0 0 0   0 0 0 0 0  0 0 0 0.14 0" in="shadowBlurOuter1" type="matrix" result="shadowMatrixOuter1"></feColorMatrix>
            <feMerge>
                <feMergeNode in="shadowMatrixOuter1"></feMergeNode>
                <feMergeNode in="SourceGraphic"></feMergeNode>
            </feMerge>
        </filter>
        <linearGradient x1="50%" y1="100%" x2="50%" y2="0%" id="linearGradient-14">
            <stop stop-color="#E9DCF9" offset="0%"></stop>
            <stop stop-color="#FFFFFF" offset="100%"></stop>
        </linearGradient>
        <linearGradient x1="-63.2343769%" y1="100%" x2="-63.234375%" y2="0%" id="linearGradient-15">
            <stop stop-color="#DECBF7" offset="0%"></stop>
            <stop stop-color="#F4EDFC" offset="100%"></stop>
        </linearGradient>
        <linearGradient x1="50%" y1="0%" x2="50%" y2="100%" id="linearGradient-16">
            <stop stop-color="#D3B9F4" offset="0%"></stop>
            <stop stop-color="#BE96EF" offset="100%"></stop>
        </linearGradient>
        <linearGradient x1="50%" y1="0%" x2="50%" y2="100%" id="linearGradient-17">
            <stop stop-color="#BE96EF" offset="0%"></stop>
            <stop stop-color="#A873EA" offset="100%"></stop>
        </linearGradient>
    </defs>
    <g id="Logos" stroke="none" stroke-width="1" fill="none" fill-rule="evenodd">
        <g id="dcos-ee-logo-styled">
            <path d="M10.136,186.432 C10.136,186.224 10.056,186.128 9.848,186.128 L8.904,186.128 C8.76,186.128 8.68,186.16 8.632,186.272 L5.912,192.752 C5.8,193.024 5.576,193.632 5.56,193.696 C5.544,193.632 5.336,193.008 5.224,192.736 L2.456,186.304 C2.408,186.192 2.328,186.128 2.184,186.128 L1.288,186.128 C1.08,186.128 1,186.224 1,186.432 L1,196.704 C1,196.912 1.08,197.008 1.288,197.008 L2.184,197.008 C2.392,197.008 2.472,196.912 2.472,196.704 L2.472,189.392 C2.488,189.44 2.616,190 2.776,190.352 L4.76,195.04 C4.84,195.232 4.936,195.36 5.144,195.36 L5.976,195.36 C6.168,195.36 6.296,195.248 6.376,195.04 L8.232,190.544 C8.376,190.176 8.584,189.44 8.616,189.36 L8.616,196.704 C8.616,196.912 8.696,197.008 8.904,197.008 L9.848,197.008 C10.056,197.008 10.136,196.912 10.136,196.704 L10.136,186.432 Z M18.68,197.008 C18.888,197.008 18.984,196.928 18.984,196.704 L18.984,195.968 C18.984,195.744 18.888,195.68 18.68,195.68 L14.296,195.68 L14.296,191.984 L18.216,191.984 C18.44,191.984 18.536,191.888 18.536,191.68 L18.536,190.992 C18.536,190.768 18.44,190.688 18.216,190.688 L14.296,190.688 L14.296,187.456 L18.504,187.456 C18.712,187.456 18.808,187.376 18.808,187.152 L18.808,186.432 C18.808,186.208 18.712,186.128 18.504,186.128 L13.032,186.128 C12.824,186.128 12.744,186.224 12.744,186.448 L12.744,196.688 C12.744,196.912 12.824,197.008 13.032,197.008 L18.68,197.008 Z M26.296,189.168 C26.296,189.376 26.36,189.472 26.584,189.472 L27.528,189.472 C27.736,189.472 27.816,189.376 27.816,189.168 L27.816,188.464 C27.816,187.152 26.952,186 24.344,186 C21.736,186 20.904,187.152 20.904,188.464 L20.904,189.376 C20.904,190.368 21.624,191.088 22.328,191.36 L25.032,192.4 C25.656,192.64 26.376,192.912 26.376,193.712 L26.376,194.464 C26.376,195.328 25.752,195.824 24.312,195.824 C22.872,195.824 22.264,195.328 22.264,194.464 L22.264,193.744 C22.264,193.52 22.184,193.424 21.976,193.424 L21.032,193.424 C20.824,193.424 20.728,193.52 20.728,193.744 L20.728,194.672 C20.728,195.984 21.656,197.136 24.328,197.136 C27,197.136 27.912,195.984 27.912,194.672 L27.912,193.344 C27.912,192.16 27.112,191.536 26.152,191.168 L23.24,190.064 C22.904,189.936 22.424,189.728 22.424,188.992 L22.424,188.672 C22.424,187.808 22.952,187.312 24.36,187.312 C25.768,187.312 26.296,187.808 26.296,188.672 L26.296,189.168 Z M29.96,194.672 C29.96,195.984 30.856,197.136 33.592,197.136 C36.344,197.136 37.24,195.984 37.24,194.672 L37.24,188.464 C37.24,187.152 36.344,186 33.592,186 C30.856,186 29.96,187.152 29.96,188.464 L29.96,194.672 Z M35.672,194.416 C35.672,195.28 35.032,195.808 33.592,195.808 C32.168,195.808 31.528,195.28 31.528,194.416 L31.528,188.72 C31.528,187.856 32.168,187.328 33.592,187.328 C35.032,187.328 35.672,187.856 35.672,188.72 L35.672,194.416 Z M44.936,189.168 C44.936,189.376 45,189.472 45.224,189.472 L46.168,189.472 C46.376,189.472 46.456,189.376 46.456,189.168 L46.456,188.464 C46.456,187.152 45.592,186 42.984,186 C40.376,186 39.544,187.152 39.544,188.464 L39.544,189.376 C39.544,190.368 40.264,191.088 40.968,191.36 L43.672,192.4 C44.296,192.64 45.016,192.912 45.016,193.712 L45.016,194.464 C45.016,195.328 44.392,195.824 42.952,195.824 C41.512,195.824 40.904,195.328 40.904,194.464 L40.904,193.744 C40.904,193.52 40.824,193.424 40.616,193.424 L39.672,193.424 C39.464,193.424 39.368,193.52 39.368,193.744 L39.368,194.672 C39.368,195.984 40.296,197.136 42.968,197.136 C45.64,197.136 46.552,195.984 46.552,194.672 L46.552,193.344 C46.552,192.16 45.752,191.536 44.792,191.168 L41.88,190.064 C41.544,189.936 41.064,189.728 41.064,188.992 L41.064,188.672 C41.064,187.808 41.592,187.312 43,187.312 C44.408,187.312 44.936,187.808 44.936,188.672 L44.936,189.168 Z M52.312,192.96 C55.064,192.96 55.944,191.808 55.944,190.496 L55.944,188.592 C55.944,187.28 55.064,186.128 52.312,186.128 L49.064,186.128 C48.856,186.128 48.776,186.224 48.776,186.448 L48.776,196.688 C48.776,196.912 48.856,197.008 49.064,197.008 L50.04,197.008 C50.264,197.008 50.328,196.912 50.328,196.688 L50.328,192.96 L52.312,192.96 Z M52.312,187.456 C53.752,187.456 54.392,187.984 54.392,188.848 L54.392,190.24 C54.392,191.104 53.752,191.632 52.312,191.632 L50.328,191.632 L50.328,187.456 L52.312,187.456 Z M59.48,186.448 C59.48,186.224 59.416,186.128 59.192,186.128 L58.216,186.128 C58.008,186.128 57.928,186.224 57.928,186.448 L57.928,196.688 C57.928,196.912 58.008,197.008 58.216,197.008 L59.192,197.008 C59.416,197.008 59.48,196.912 59.48,196.688 L59.48,191.984 L63.64,191.984 L63.64,196.688 C63.64,196.912 63.72,197.008 63.928,197.008 L64.92,197.008 C65.128,197.008 65.208,196.912 65.208,196.688 L65.208,186.448 C65.208,186.224 65.128,186.128 64.92,186.128 L63.928,186.128 C63.72,186.128 63.64,186.224 63.64,186.448 L63.64,190.656 L59.48,190.656 L59.48,186.448 Z M73.768,197.008 C73.976,197.008 74.072,196.928 74.072,196.704 L74.072,195.968 C74.072,195.744 73.976,195.68 73.768,195.68 L69.384,195.68 L69.384,191.984 L73.304,191.984 C73.528,191.984 73.624,191.888 73.624,191.68 L73.624,190.992 C73.624,190.768 73.528,190.688 73.304,190.688 L69.384,190.688 L69.384,187.456 L73.592,187.456 C73.8,187.456 73.896,187.376 73.896,187.152 L73.896,186.432 C73.896,186.208 73.8,186.128 73.592,186.128 L68.12,186.128 C67.912,186.128 67.832,186.224 67.832,186.448 L67.832,196.688 C67.832,196.912 67.912,197.008 68.12,197.008 L73.768,197.008 Z M79.672,192.704 L79.944,192.704 L81.752,196.688 C81.848,196.88 81.88,197.008 82.104,197.008 L83.064,197.008 C83.288,197.008 83.432,196.88 83.352,196.688 L81.432,192.496 C82.808,192.112 83.304,191.232 83.304,190.256 L83.304,188.592 C83.304,187.28 82.424,186.128 79.672,186.128 L76.424,186.128 C76.216,186.128 76.136,186.224 76.136,186.448 L76.136,196.688 C76.136,196.912 76.216,197.008 76.424,197.008 L77.4,197.008 C77.624,197.008 77.688,196.912 77.688,196.688 L77.688,192.704 L79.672,192.704 Z M79.672,187.456 C81.112,187.456 81.752,187.984 81.752,188.848 L81.752,189.984 C81.752,190.864 81.112,191.376 79.672,191.376 L77.688,191.376 L77.688,187.456 L79.672,187.456 Z M91.576,197.008 C91.784,197.008 91.88,196.928 91.88,196.704 L91.88,195.968 C91.88,195.744 91.784,195.68 91.576,195.68 L87.192,195.68 L87.192,191.984 L91.112,191.984 C91.336,191.984 91.432,191.888 91.432,191.68 L91.432,190.992 C91.432,190.768 91.336,190.688 91.112,190.688 L87.192,190.688 L87.192,187.456 L91.4,187.456 C91.608,187.456 91.704,187.376 91.704,187.152 L91.704,186.432 C91.704,186.208 91.608,186.128 91.4,186.128 L85.928,186.128 C85.72,186.128 85.64,186.224 85.64,186.448 L85.64,196.688 C85.64,196.912 85.72,197.008 85.928,197.008 L91.576,197.008 Z M103.256,197.008 C103.464,197.008 103.56,196.928 103.56,196.704 L103.56,195.968 C103.56,195.744 103.464,195.68 103.256,195.68 L98.872,195.68 L98.872,191.984 L102.792,191.984 C103.016,191.984 103.112,191.888 103.112,191.68 L103.112,190.992 C103.112,190.768 103.016,190.688 102.792,190.688 L98.872,190.688 L98.872,187.456 L103.08,187.456 C103.288,187.456 103.384,187.376 103.384,187.152 L103.384,186.432 C103.384,186.208 103.288,186.128 103.08,186.128 L97.608,186.128 C97.4,186.128 97.32,186.224 97.32,186.448 L97.32,196.688 C97.32,196.912 97.4,197.008 97.608,197.008 L103.256,197.008 Z M112.888,186.432 C112.888,186.224 112.824,186.128 112.6,186.128 L111.72,186.128 C111.512,186.128 111.416,186.224 111.416,186.432 L111.416,194.016 C111.416,194.016 111.144,193.376 110.92,192.992 L107.064,186.256 C107.016,186.176 106.936,186.128 106.808,186.128 L105.912,186.128 C105.704,186.128 105.624,186.224 105.624,186.432 L105.624,196.704 C105.624,196.912 105.704,197.008 105.912,197.008 L106.808,197.008 C107.016,197.008 107.096,196.912 107.096,196.704 L107.096,189.12 C107.128,189.184 107.32,189.68 107.672,190.272 L111.432,196.864 C111.496,196.96 111.56,197.008 111.72,197.008 L112.6,197.008 C112.824,197.008 112.888,196.912 112.888,196.704 L112.888,186.432 Z M114.744,186.128 C114.52,186.128 114.44,186.208 114.44,186.432 L114.44,187.152 C114.44,187.376 114.52,187.456 114.744,187.456 L117.304,187.456 L117.304,196.688 C117.304,196.912 117.384,197.008 117.592,197.008 L118.584,197.008 C118.792,197.008 118.872,196.912 118.872,196.688 L118.872,187.456 L121.432,187.456 C121.64,187.456 121.736,187.376 121.736,187.152 L121.736,186.432 C121.736,186.208 121.64,186.128 121.432,186.128 L114.744,186.128 Z M129.24,197.008 C129.448,197.008 129.544,196.928 129.544,196.704 L129.544,195.968 C129.544,195.744 129.448,195.68 129.24,195.68 L124.856,195.68 L124.856,191.984 L128.776,191.984 C129,191.984 129.096,191.888 129.096,191.68 L129.096,190.992 C129.096,190.768 129,190.688 128.776,190.688 L124.856,190.688 L124.856,187.456 L129.064,187.456 C129.272,187.456 129.368,187.376 129.368,187.152 L129.368,186.432 C129.368,186.208 129.272,186.128 129.064,186.128 L123.592,186.128 C123.384,186.128 123.304,186.224 123.304,186.448 L123.304,196.688 C123.304,196.912 123.384,197.008 123.592,197.008 L129.24,197.008 Z M135.144,192.704 L135.416,192.704 L137.224,196.688 C137.32,196.88 137.352,197.008 137.576,197.008 L138.536,197.008 C138.76,197.008 138.904,196.88 138.824,196.688 L136.904,192.496 C138.28,192.112 138.776,191.232 138.776,190.256 L138.776,188.592 C138.776,187.28 137.896,186.128 135.144,186.128 L131.896,186.128 C131.688,186.128 131.608,186.224 131.608,186.448 L131.608,196.688 C131.608,196.912 131.688,197.008 131.896,197.008 L132.872,197.008 C133.096,197.008 133.16,196.912 133.16,196.688 L133.16,192.704 L135.144,192.704 Z M135.144,187.456 C136.584,187.456 137.224,187.984 137.224,188.848 L137.224,189.984 C137.224,190.864 136.584,191.376 135.144,191.376 L133.16,191.376 L133.16,187.456 L135.144,187.456 Z M144.648,192.96 C147.4,192.96 148.28,191.808 148.28,190.496 L148.28,188.592 C148.28,187.28 147.4,186.128 144.648,186.128 L141.4,186.128 C141.192,186.128 141.112,186.224 141.112,186.448 L141.112,196.688 C141.112,196.912 141.192,197.008 141.4,197.008 L142.376,197.008 C142.6,197.008 142.664,196.912 142.664,196.688 L142.664,192.96 L144.648,192.96 Z M144.648,187.456 C146.088,187.456 146.728,187.984 146.728,188.848 L146.728,190.24 C146.728,191.104 146.088,191.632 144.648,191.632 L142.664,191.632 L142.664,187.456 L144.648,187.456 Z M153.8,192.704 L154.072,192.704 L155.88,196.688 C155.976,196.88 156.008,197.008 156.232,197.008 L157.192,197.008 C157.416,197.008 157.56,196.88 157.48,196.688 L155.56,192.496 C156.936,192.112 157.432,191.232 157.432,190.256 L157.432,188.592 C157.432,187.28 156.552,186.128 153.8,186.128 L150.552,186.128 C150.344,186.128 150.264,186.224 150.264,186.448 L150.264,196.688 C150.264,196.912 150.344,197.008 150.552,197.008 L151.528,197.008 C151.752,197.008 151.816,196.912 151.816,196.688 L151.816,192.704 L153.8,192.704 Z M153.8,187.456 C155.24,187.456 155.88,187.984 155.88,188.848 L155.88,189.984 C155.88,190.864 155.24,191.376 153.8,191.376 L151.816,191.376 L151.816,187.456 L153.8,187.456 Z M161.32,186.448 C161.32,186.224 161.256,186.128 161.032,186.128 L160.056,186.128 C159.848,186.128 159.768,186.224 159.768,186.448 L159.768,196.688 C159.768,196.912 159.848,197.008 160.056,197.008 L161.032,197.008 C161.256,197.008 161.32,196.912 161.32,196.688 L161.32,186.448 Z M169.192,189.168 C169.192,189.376 169.256,189.472 169.48,189.472 L170.424,189.472 C170.632,189.472 170.712,189.376 170.712,189.168 L170.712,188.464 C170.712,187.152 169.848,186 167.24,186 C164.632,186 163.8,187.152 163.8,188.464 L163.8,189.376 C163.8,190.368 164.52,191.088 165.224,191.36 L167.928,192.4 C168.552,192.64 169.272,192.912 169.272,193.712 L169.272,194.464 C169.272,195.328 168.648,195.824 167.208,195.824 C165.768,195.824 165.16,195.328 165.16,194.464 L165.16,193.744 C165.16,193.52 165.08,193.424 164.872,193.424 L163.928,193.424 C163.72,193.424 163.624,193.52 163.624,193.744 L163.624,194.672 C163.624,195.984 164.552,197.136 167.224,197.136 C169.896,197.136 170.808,195.984 170.808,194.672 L170.808,193.344 C170.808,192.16 170.008,191.536 169.048,191.168 L166.136,190.064 C165.8,189.936 165.32,189.728 165.32,188.992 L165.32,188.672 C165.32,187.808 165.848,187.312 167.256,187.312 C168.664,187.312 169.192,187.808 169.192,188.672 L169.192,189.168 Z M178.968,197.008 C179.176,197.008 179.272,196.928 179.272,196.704 L179.272,195.968 C179.272,195.744 179.176,195.68 178.968,195.68 L174.584,195.68 L174.584,191.984 L178.504,191.984 C178.728,191.984 178.824,191.888 178.824,191.68 L178.824,190.992 C178.824,190.768 178.728,190.688 178.504,190.688 L174.584,190.688 L174.584,187.456 L178.792,187.456 C179,187.456 179.096,187.376 179.096,187.152 L179.096,186.432 C179.096,186.208 179,186.128 178.792,186.128 L173.32,186.128 C173.112,186.128 173.032,186.224 173.032,186.448 L173.032,196.688 C173.032,196.912 173.112,197.008 173.32,197.008 L178.968,197.008 Z" id="MESOSPHERE-ENTERPRIS" fill="#9351E5"></path>
            <g id="logotype-styled" transform="translate(40.000000, 140.000000)">
                <path d="M97.6070529,10.9151973 C97.6070529,11.2510495 97.7329975,11.4189757 98.0688497,11.4189757 L99.286314,11.4189757 C99.6641478,11.4189757 99.7900924,11.2510495 99.7900924,10.9151973 L99.7900924,8.85810243 C99.7900924,5.58354324 97.9009236,2.93870697 91.3518052,2.93870697 C84.7607053,2.93870697 82.9135181,5.58354324 82.9135181,8.85810243 L82.9135181,11.125105 C82.9135181,13.7699412 84.8446683,15.4492024 86.5239295,16.0789253 L94.3324937,19.1015953 C95.9697733,19.7313182 97.8169605,20.7388749 97.8169605,23.0058774 L97.8169605,25.9865659 C97.8169605,28.5054576 96.2216625,30.2686818 91.2678421,30.2686818 C86.3560034,30.2686818 84.8026868,28.5054576 84.8026868,25.9865659 L84.8026868,24.0554156 C84.8026868,23.6775819 84.6347607,23.5096558 84.2989085,23.5096558 L83.0814442,23.5096558 C82.7455919,23.5096558 82.5776658,23.6775819 82.5776658,24.0554156 L82.5776658,26.2384551 C82.5776658,29.5130143 84.6347607,32.1578505 91.3098237,32.1578505 C97.9848866,32.1578505 100,29.5130143 100,26.2384551 L100,22.5440806 C100,19.6893367 97.9009236,18.0940386 95.8018472,17.2963896 L87.7413938,14.231738 C86.6078925,13.8119228 85.0965575,12.8043661 85.0965575,10.6633081 L85.0965575,9.1099916 C85.0965575,6.59109992 86.4819479,4.82787573 91.3518052,4.82787573 C96.2216625,4.82787573 97.6070529,6.59109992 97.6070529,9.1099916 L97.6070529,10.9151973 Z M61.3350126,26.3224181 C61.3350126,29.5969773 63.3501259,32.2418136 70.0671704,32.2418136 C76.8261965,32.2418136 78.8832914,29.5969773 78.8832914,26.3224181 L78.8832914,8.94206549 C78.8832914,5.6675063 76.8261965,3.02267003 70.0671704,3.02267003 C63.3501259,3.02267003 61.3350126,5.6675063 61.3350126,8.94206549 L61.3350126,26.3224181 Z M76.6162888,25.9865659 C76.6162888,28.5474391 74.9790092,30.3106633 70.0671704,30.3106633 C65.1973132,30.3106633 63.5600336,28.5474391 63.5600336,25.9865659 L63.5600336,9.27791772 C63.5600336,6.7170445 65.1973132,4.95382032 70.0671704,4.95382032 C74.9790092,4.95382032 76.6162888,6.7170445 76.6162888,9.27791772 L76.6162888,25.9865659 Z M44.0806045,22.7959698 C44.0806045,22.0403023 43.8287154,21.7464316 43.1150294,21.7464316 L39.6305626,21.7464316 C38.874895,21.7464316 38.5810243,22.0403023 38.5810243,22.7959698 L38.5810243,24.3912678 C38.5810243,26.4903442 37.1116709,27.5398825 34.2989085,27.5398825 C31.4861461,27.5398825 30.0587741,26.4903442 30.0587741,24.3912678 L30.0587741,10.8732158 C30.0587741,8.77413938 31.4861461,7.72460118 34.2989085,7.72460118 C37.1116709,7.72460118 38.5810243,8.77413938 38.5810243,10.8732158 L38.5810243,11.8807725 C38.5810243,12.63644 38.874895,12.9303107 39.6305626,12.9303107 L43.1150294,12.9303107 C43.8287154,12.9303107 44.0806045,12.63644 44.0806045,11.8807725 L44.0806045,9.86565911 C44.0806045,6.33921075 41.813602,3.02267003 34.2149454,3.02267003 C26.6162888,3.02267003 24.3492863,6.33921075 24.3492863,9.86565911 L24.3492863,25.3988245 C24.3492863,28.9252729 26.6162888,32.2418136 34.2149454,32.2418136 C41.813602,32.2418136 44.0806045,28.9252729 44.0806045,25.3988245 L44.0806045,22.7959698 Z M10.1595298,31.7800168 C17.7581864,31.7800168 20.4030227,28.4634761 20.4030227,24.9370277 L20.4030227,10.0755668 C20.4030227,6.54911839 17.7581864,3.23257767 10.1595298,3.23257767 L1.00755668,3.23257767 C0.251889169,3.23257767 0,3.56842989 0,4.3240974 L0,30.6884971 C0,31.402183 0.209907641,31.7800168 0.881612091,31.7800168 L10.1595298,31.7800168 Z M10.1595298,7.93450882 C13.0142737,7.93450882 14.7355164,8.98404702 14.7355164,11.0831234 L14.7355164,23.929471 C14.7355164,26.0285474 13.0142737,27.0780856 10.1595298,27.0780856 L5.6675063,27.0780856 L5.6675063,7.93450882 L10.1595298,7.93450882 Z" id="DCOS" fill="#323A4E"></path>
                <path d="M58.0005994,0 C58.2793375,0 58.4474085,0.2144315 58.37532,0.481451442 L49.1861888,34.5185486 C49.1144032,34.7844468 48.8282984,35 48.5515095,35 L47.4312482,35 C47.15251,35 46.9844391,34.7855685 47.0565275,34.5185486 L56.2456587,0.481451442 C56.3174443,0.215553153 56.6035491,0 56.8803381,0 L58.0005994,0 L58.0005994,0 Z" id="Combined-Shape" fill="url(#linearGradient-1)"></path>
            </g>
            <g id="logomark-styled" transform="translate(40.000000, 0.000000)">
                <g id="DC/OS" transform="translate(0.000000, 24.500000)">
                    <mask id="mask-4" fill="white">
                        <use xlink:href="#path-3"></use>
                    </mask>
                    <use fill="url(#linearGradient-2)" xlink:href="#path-3"></use>
                    <g id="Shadow" mask="url(#mask-4)" fill="white">
                        <g transform="translate(0.000000, -24.500000)">
                            <path d="M50.713,75.41755 C50.319,75.02355 49.681,75.02355 49.287,75.41755 L35.5875,89.11705 C35.194,89.51055 35.194,90.14905 35.5875,90.54305 L49.287,104.24205 C49.681,104.63605 50.319,104.63605 50.713,104.24205 L64.4125,90.54305 C64.806,90.14905 64.806,89.51055 64.4125,89.11705 L50.713,75.41755 Z" id="Fill-11" filter="url(#filter-5)"></path>
                            <path d="M68.359,57.77155 C67.9655,57.37755 67.327,57.37755 66.933,57.77155 L53.234,71.47055 C52.84,71.86455 52.84,72.50305 53.234,72.89655 L66.933,86.59605 C67.327,86.98955 67.9655,86.98955 68.359,86.59605 L82.0585,72.89655 C82.4525,72.50305 82.4525,71.86455 82.0585,71.47055 L68.359,57.77155 Z" id="Path" filter="url(#filter-6)"></path>
                            <path d="M46.766,71.47055 L33.067,57.77155 C32.673,57.37755 32.0345,57.37755 31.641,57.77155 L17.9415,71.47055 C17.5475,71.86455 17.5475,72.50305 17.9415,72.89655 L31.641,86.59605 C32.0345,86.98955 32.673,86.98955 33.067,86.59605 L46.766,72.89655 C47.16,72.50305 47.16,71.86455 46.766,71.47055 L46.766,71.47055 Z" id="Path" filter="url(#filter-7)"></path>
                            <path d="M99.7045,53.82455 L86.0055,40.12505 C85.6115,39.73155 84.973,39.73155 84.5795,40.12505 L70.88,53.82455 C70.4865,54.21805 70.4865,54.85655 70.88,55.25055 L84.5795,68.94955 C84.973,69.34355 85.6115,69.34355 86.0055,68.94955 L99.7045,55.25055 C100.0985,54.85655 100.0985,54.21805 99.7045,53.82455 L99.7045,53.82455 Z" id="Path" filter="url(#filter-8)"></path>
                            <path d="M49.287,40.12505 L35.5875,53.82455 C35.194,54.21805 35.194,54.85655 35.5875,55.25055 L49.287,68.94955 C49.681,69.34355 50.319,69.34355 50.713,68.94955 L64.4125,55.25055 C64.806,54.85655 64.806,54.21805 64.4125,53.82455 L50.713,40.12505 C50.319,39.73155 49.681,39.73155 49.287,40.12505 L49.287,40.12505 Z" id="Path" filter="url(#filter-9)"></path>
                            <path d="M29.12,55.25055 L15.4205,68.94955 C15.027,69.34355 14.3885,69.34355 13.9945,68.94955 L0.2955,55.25055 C-0.0985,54.85655 -0.0985,54.21805 0.2955,53.82455 L13.9945,40.12505 C14.3885,39.73155 15.027,39.73155 15.4205,40.12505 L29.12,53.82455 C29.5135,54.21805 29.5135,54.85655 29.12,55.25055 L29.12,55.25055 Z" id="Path" filter="url(#filter-10)"></path>
                            <path d="M53.234,35.59155 L66.933,49.29105 C67.327,49.68505 67.9655,49.68505 68.359,49.29105 L82.0585,35.59155 C82.4525,35.19805 82.4525,34.55955 82.0585,34.16555 L68.359,20.46655 C67.9655,20.07255 67.327,20.07255 66.933,20.46655 L53.234,34.16555 C52.84,34.55955 52.84,35.19805 53.234,35.59155 L53.234,35.59155 Z" id="Path" filter="url(#filter-11)"></path>
                            <path d="M31.641,49.29105 C32.0345,49.68505 32.673,49.68505 33.067,49.29105 L46.766,35.59155 C47.16,35.19805 47.16,34.55955 46.766,34.16555 L33.067,20.46655 C32.673,20.07255 32.0345,20.07255 31.641,20.46655 L17.9415,34.16555 C17.5475,34.55955 17.5475,35.19805 17.9415,35.59155 L31.641,49.29105 Z" id="Path" filter="url(#filter-12)"></path>
                            <path d="M49.287,29.11955 C49.681,29.51355 50.319,29.51355 50.713,29.11955 L64.4125,15.42055 C64.806,15.02655 64.806,14.38805 64.4125,13.99455 L50.713,0.29505 C50.319,-0.09845 49.681,-0.09845 49.287,0.29505 L35.5875,13.99455 C35.194,14.38805 35.194,15.02655 35.5875,15.42055 L49.287,29.11955 Z" id="Path" filter="url(#filter-13)"></path>
                        </g>
                    </g>
                </g>
                <g id="Services">
                    <path d="M50.713,75.41755 C50.319,75.02355 49.681,75.02355 49.287,75.41755 L35.5875,89.11705 C35.194,89.51055 35.194,90.14905 35.5875,90.54305 L49.287,104.24205 C49.681,104.63605 50.319,104.63605 50.713,104.24205 L64.4125,90.54305 C64.806,90.14905 64.806,89.51055 64.4125,89.11705 L50.713,75.41755 Z" id="Fill-11" fill="url(#linearGradient-14)"></path>
                    <path d="M68.359,57.77155 C67.9655,57.37755 67.327,57.37755 66.933,57.77155 L53.234,71.47055 C52.84,71.86455 52.84,72.50305 53.234,72.89655 L66.933,86.59605 C67.327,86.98955 67.9655,86.98955 68.359,86.59605 L82.0585,72.89655 C82.4525,72.50305 82.4525,71.86455 82.0585,71.47055 L68.359,57.77155 Z" id="Path" fill="url(#linearGradient-15)"></path>
                    <path d="M46.766,71.47055 L33.067,57.77155 C32.673,57.37755 32.0345,57.37755 31.641,57.77155 L17.9415,71.47055 C17.5475,71.86455 17.5475,72.50305 17.9415,72.89655 L31.641,86.59605 C32.0345,86.98955 32.673,86.98955 33.067,86.59605 L46.766,72.89655 C47.16,72.50305 47.16,71.86455 46.766,71.47055 L46.766,71.47055 Z" id="Path" fill="url(#linearGradient-15)"></path>
                    <path d="M99.7045,53.82455 L86.0055,40.12505 C85.6115,39.73155 84.973,39.73155 84.5795,40.12505 L70.88,53.82455 C70.4865,54.21805 70.4865,54.85655 70.88,55.25055 L84.5795,68.94955 C84.973,69.34355 85.6115,69.34355 86.0055,68.94955 L99.7045,55.25055 C100.0985,54.85655 100.0985,54.21805 99.7045,53.82455 L99.7045,53.82455 Z" id="Path" fill="url(#linearGradient-16)"></path>
                    <path d="M49.287,40.12505 L35.5875,53.82455 C35.194,54.21805 35.194,54.85655 35.5875,55.25055 L49.287,68.94955 C49.681,69.34355 50.319,69.34355 50.713,68.94955 L64.4125,55.25055 C64.806,54.85655 64.806,54.21805 64.4125,53.82455 L50.713,40.12505 C50.319,39.73155 49.681,39.73155 49.287,40.12505 L49.287,40.12505 Z" id="Path" fill="url(#linearGradient-16)"></path>
                    <path d="M29.12,55.25055 L15.4205,68.94955 C15.027,69.34355 14.3885,69.34355 13.9945,68.94955 L0.2955,55.25055 C-0.0985,54.85655 -0.0985,54.21805 0.2955,53.82455 L13.9945,40.12505 C14.3885,39.73155 15.027,39.73155 15.4205,40.12505 L29.12,53.82455 C29.5135,54.21805 29.5135,54.85655 29.12,55.25055 L29.12,55.25055 Z" id="Path" fill="url(#linearGradient-16)"></path>
                    <path d="M53.234,35.59155 L66.933,49.29105 C67.327,49.68505 67.9655,49.68505 68.359,49.29105 L82.0585,35.59155 C82.4525,35.19805 82.4525,34.55955 82.0585,34.16555 L68.359,20.46655 C67.9655,20.07255 67.327,20.07255 66.933,20.46655 L53.234,34.16555 C52.84,34.55955 52.84,35.19805 53.234,35.59155 L53.234,35.59155 Z" id="Path" fill="url(#linearGradient-17)"></path>
                    <path d="M31.641,49.29105 C32.0345,49.68505 32.673,49.68505 33.067,49.29105 L46.766,35.59155 C47.16,35.19805 47.16,34.55955 46.766,34.16555 L33.067,20.46655 C32.673,20.07255 32.0345,20.07255 31.641,20.46655 L17.9415,34.16555 C17.5475,34.55955 17.5475,35.19805 17.9415,35.59155 L31.641,49.29105 Z" id="Path" fill="url(#linearGradient-17)"></path>
                    <path d="M49.287,29.11955 C49.681,29.51355 50.319,29.51355 50.713,29.11955 L64.4125,15.42055 C64.806,15.02655 64.806,14.38805 64.4125,13.99455 L50.713,0.29505 C50.319,-0.09845 49.681,-0.09845 49.287,0.29505 L35.5875,13.99455 C35.194,14.38805 35.194,15.02655 35.5875,15.42055 L49.287,29.11955 Z" id="Path" fill="url(#linearGradient-1)"></path>
                </g>
            </g>
        </g>
    </g>
</svg>