<svg width="16" height="16" viewBox="0 0 16 16" xmlns="http://www.w3.org/2000/svg">
    <path d="M9 5.968a1.011 1.011 0 0 1 0 .064V7H7V5h2v.968zM1 1.001C1 .448 1.45 0 2.007 0h11.986C14.55 0 15 .445 15 1v14c0 .552-.45 1-1.007 1H2.007A1.002 1.002 0 0 1 1 15V1zM3 2h10v12H3V2zm12 8h1v3h-1v-3zm0-4h1v3h-1V6zm0-4h1v3h-1V2zm-5 4c0-1.103-.898-2-2-2-1.103 0-2 .897-2 2 0 .587.258 1.11.662 1.476C5.672 8.204 5 9.706 5 11.5v.5h6v-.5c0-1.794-.672-3.296-1.662-4.024C9.742 7.11 10 6.587 10 6zm-3.979 5c.144-2.505.992-3 1.98-3 .987 0 1.834.495 1.978 3H6.022z" fill-rule="evenodd"/>
</svg>
