<svg width="16" height="16" viewBox="0 0 16 16" xmlns="http://www.w3.org/2000/svg">
    <path d="M2.65 12.267C1.247 11.19.277 9.693 0 8c.555-3.392 3.889-6 7.919-6 .217 0 .432.008.645.022L7.412 4.018C4.777 4.205 2.57 5.835 2.04 8c.238.974.817 1.84 1.62 2.515l-1.01 1.752zm4.78 1.72c.162.009.325.013.489.013 4.03 0 7.364-2.608 7.919-6-.27-1.648-1.195-3.111-2.538-4.18l-1.015 1.758c.748.66 1.286 1.492 1.513 2.422-.518 2.118-2.642 3.724-5.202 3.968l-1.166 2.02zm1.905-3.3a3 3 0 0 0 1.66-2.873l-1.66 2.873zm-2.67-5.374a3 3 0 0 0-1.66 2.873l1.66-2.873zM11.134.572l1.732 1-8 13.856-1.732-1 8-13.856z" fill-rule="evenodd"/>
</svg>
