<svg width="16" height="16" viewBox="0 0 16 16" xmlns="http://www.w3.org/2000/svg">
    <path d="M15 9V7h-2.1a4.984 4.984 0 0 0-.728-1.757l1.485-1.486-1.414-1.414-1.486 1.485A4.984 4.984 0 0 0 9 3.1V1H7v2.1a4.984 4.984 0 0 0-1.757.728L3.757 2.343 2.343 3.757l1.485 1.486A4.984 4.984 0 0 0 3.1 7H1v2h2.1c.13.638.381 1.233.728 1.757l-1.485 1.486 1.414 1.414 1.486-1.485A4.984 4.984 0 0 0 7 12.9V15h2v-2.1a4.984 4.984 0 0 0 1.757-.728l1.486 1.485 1.414-1.414-1.485-1.486A4.984 4.984 0 0 0 12.9 9H15zm-7 1.75a2.75 2.75 0 1 1 0-5.5 2.75 2.75 0 0 1 0 5.5z" fill-rule="evenodd"/>
</svg>
