<svg width="16" height="16" viewBox="0 0 16 16" xmlns="http://www.w3.org/2000/svg">
    <path d="M14.48 13.69a2.983 2.983 0 0 1-.79.79l.36 1-1.039.43-.453-.962c-.363.069-.741.072-1.116 0l-.453.963-1.04-.43.361-1.001a2.983 2.983 0 0 1-.79-.79l-1 .36-.43-1.039.962-.453a2.983 2.983 0 0 1 0-1.116l-.963-.453.43-1.04 1.001.361c.215-.316.485-.581.79-.79l-.36-1 1.039-.43.453.962c.363-.069.741-.072 1.116 0l.453-.963 1.04.43-.361 1.001c.316.215.581.485.79.79l1-.36.43 1.039-.962.453c.069.363.072.741 0 1.116l.963.453-.43 1.04-1.001-.361zm-3.245.158a2 2 0 1 0 1.53-3.696 2 2 0 0 0-1.53 3.696zM8.466 9.765a4.474 4.474 0 0 1-1.548.64L6.844 12H5.156l-.074-1.594a4.474 4.474 0 0 1-1.548-.64l-1.18 1.073-1.193-1.193 1.074-1.18a4.474 4.474 0 0 1-.64-1.548L0 6.844V5.156l1.594-.074a4.474 4.474 0 0 1 .64-1.548l-1.073-1.18 1.193-1.193 1.18 1.074a4.474 4.474 0 0 1 1.548-.64L5.156 0h1.688l.074 1.594a4.474 4.474 0 0 1 1.548.64l1.18-1.073 1.193 1.193-1.074 1.18c.315.479.528 1.005.64 1.548L12 5.156v1.688l-1.594.074a4.474 4.474 0 0 1-.64 1.548l1.073 1.18-1.193 1.193-1.18-1.074zM4.341 7.66A2.346 2.346 0 1 0 7.66 4.342 2.346 2.346 0 0 0 4.34 7.66z" fill-rule="evenodd"/>
</svg>
