<svg width="16" height="16" viewBox="0 0 16 16" xmlns="http://www.w3.org/2000/svg">
    <path d="M1 3.006C1 1.898 1.897 1 3.006 1h9.988C14.102 1 15 1.897 15 3.006v9.988A2.005 2.005 0 0 1 12.994 15H3.006A2.005 2.005 0 0 1 1 12.994V3.006zm2 .99c0-.55.456-.996.995-.996h8.01c.55 0 .995.456.995.995v8.01c0 .55-.456.995-.995.995h-8.01c-.55 0-.995-.456-.995-.995v-8.01zm0 4.869c.383.556.784 1.054 1.887 1.054C7.284 9.919 7.97 5 11.51 5c.576 0 1.069.13 1.49.35v1.207A2.168 2.168 0 0 0 11.51 6c-1.09 0-1.834.571-2.937 2.056-.016.021-.525.716-.676.914-1 1.313-1.814 1.949-3.01 1.949-.826 0-1.4-.18-1.887-.564v-1.49z" fill-rule="evenodd"/>
</svg>
