<svg width="16" height="16" viewBox="0 0 16 16" xmlns="http://www.w3.org/2000/svg">
    <path d="M3.038 8C2.365 7.026 2 6.178 2 5.527c0-1.366 1.239-2.52 2.705-2.52 1.114 0 2.129.961 2.557 1.42.203.193.467.3.742.3l.488-.026.296-.319C9.268 3.866 10.233 3 11.296 3 12.762 3 14 4.154 14 5.522c0 .49-.21 1.28-1.043 2.478H11.5l.447.276-1-2-.447-.894-.447.894-2 4 .911.038-2-5-.507-1.267-.431 1.295-1 3L5.5 8H3.038zm.763 1c1.014 1.224 2.422 2.587 4.133 3.975l.07.025a.117.117 0 0 0 .068-.025l.153-.127c.317-.264.763-.634 1.26-1.086A31.334 31.334 0 0 0 11.668 9.6c.188-.208.361-.408.521-.6h-.998l-.138-.276-1-2h.894l-2 4-.498.995-.413-1.033-2-5 .938-.028-1 3L5.86 9H3.8zm4.203 6c-.488 0-.963-.169-1.336-.476C4.18 12.505 0 8.645 0 5.527c0-2.45 2.155-4.52 4.705-4.52 1.36 0 2.509.695 3.297 1.362C8.776 1.71 9.932 1 11.296 1 13.846 1 16 3.07 16 5.522c0 1.524-.931 3.297-2.85 5.421a33.819 33.819 0 0 1-2.322 2.302c-.522.472-.99.862-1.325 1.14l-.151.127A2.112 2.112 0 0 1 8.004 15z" fill-rule="evenodd"/>
</svg>
