<svg width="16" height="16" viewBox="0 0 16 16" xmlns="http://www.w3.org/2000/svg">
    <path d="M8.004 15c-.488 0-.963-.169-1.336-.476C4.18 12.505 0 8.645 0 5.527c0-2.45 2.155-4.52 4.705-4.52 1.36 0 2.509.695 3.297 1.362C8.776 1.71 9.932 1 11.296 1 13.846 1 16 3.07 16 5.522c0 1.524-.931 3.297-2.85 5.421a33.819 33.819 0 0 1-2.322 2.302c-.522.472-.99.862-1.325 1.14l-.151.127A2.112 2.112 0 0 1 8.004 15zm-3.3-11.994C3.24 3.006 2 4.161 2 5.527c0 1.623 2.274 4.477 5.934 7.448l.07.025a.117.117 0 0 0 .068-.025l.153-.127c.317-.264.763-.634 1.26-1.086A31.334 31.334 0 0 0 11.668 9.6C13.595 7.466 14 6.204 14 5.522 14 4.154 12.762 3 11.296 3c-1.063 0-2.027.866-2.508 1.382l-.296.32-.488.024c-.275 0-.54-.106-.742-.3-.428-.458-1.443-1.42-2.557-1.42z" fill-rule="evenodd"/>
</svg>
