<svg width="16" height="16" viewBox="0 0 16 16" xmlns="http://www.w3.org/2000/svg">
    <path d="M11.5 4a.5.5 0 1 0 .002 1.002A.5.5 0 0 0 11.5 4zm0 2c-.827 0-1.5-.673-1.5-1.5S10.673 3 11.5 3s1.5.673 1.5 1.5S12.327 6 11.5 6zM2 14h1.107L4 13.171V12h1.261L6 11.313V10h1.415l1.451-1.349.559.181A3.504 3.504 0 0 0 14 5.5C14 3.57 12.43 2 10.5 2a3.504 3.504 0 0 0-3.335 4.564l.178.561L2 12.797V14zm1.893 2H0v-3.996l5.106-5.422A5.506 5.506 0 0 1 10.5 0C13.532 0 16 2.467 16 5.5a5.506 5.506 0 0 1-6.604 5.389L8.201 12H8v.187L3.893 16z" fill-rule="evenodd"/>
</svg>
