<svg width="16" height="16" viewBox="0 0 16 16" xmlns="http://www.w3.org/2000/svg">
    <path d="M10 4.535V2.341A6.017 6.017 0 0 1 13.659 6h-2.194A4.02 4.02 0 0 0 10 4.535zm-1-.409V2.083a6.04 6.04 0 0 0-2 0v2.043a4.007 4.007 0 0 1 2 0zm-3 .41V2.34A6.017 6.017 0 0 0 2.341 6h2.194A4.02 4.02 0 0 1 6 4.535zM4.126 7H2.083a6.04 6.04 0 0 0 0 2h2.043a4.007 4.007 0 0 1 0-2zm.41 3H2.34A6.017 6.017 0 0 0 6 13.659v-2.194A4.02 4.02 0 0 1 4.535 10zM7 11.874v2.043a6.04 6.04 0 0 0 2 0v-2.043a4.007 4.007 0 0 1-2 0zm3-.41v2.195A6.017 6.017 0 0 0 13.659 10h-2.194A4.02 4.02 0 0 1 10 11.465zM11.874 9h2.043a6.04 6.04 0 0 0 0-2h-2.043a4.007 4.007 0 0 1 0 2zM8 16A8 8 0 1 0 8 0a8 8 0 0 0 0 16zm0-6a2 2 0 1 0 0-4 2 2 0 0 0 0 4z" fill-rule="evenodd"/>
</svg>
