<svg width="16" height="16" viewBox="0 0 16 16" xmlns="http://www.w3.org/2000/svg">
    <path d="M10.48 10.69a2.983 2.983 0 0 1-.79.79l.36 1-1.039.43-.453-.962c-.363.069-.741.072-1.116 0l-.453.963-1.04-.43.361-1.001a2.983 2.983 0 0 1-.79-.79l-1 .36-.43-1.039.962-.453a2.983 2.983 0 0 1 0-1.116l-.963-.453.43-1.04 1.001.361c.215-.316.485-.581.79-.79l-.36-1 1.039-.43.453.962c.363-.069.741-.072 1.116 0l.453-.963 1.04.43L9.69 6.52c.316.215.581.485.79.79l1-.36.43 1.039-.962.453c.069.363.072.741 0 1.116l.963.453-.43 1.04-1.001-.361zM1 0v16h14V4.001L11 0H1zm2 2h7v3h3v9H3V2zm4.235 8.848a2 2 0 1 0 1.53-3.696 2 2 0 0 0-1.53 3.696z" fill-rule="evenodd"/>
</svg>
