<svg width="16" height="16" viewBox="0 0 16 16" xmlns="http://www.w3.org/2000/svg">
    <path d="M7 7.05V6H6v1.05a2.506 2.506 0 0 0-1.372.792l-.91-.525-.5.866.91.525a2.489 2.489 0 0 0 0 1.584l-.91.525.5.866.91-.525a2.49 2.49 0 0 0 1.372.79V13h1v-1.052a2.506 2.506 0 0 0 1.37-.79l.911.525.5-.866-.911-.526a2.489 2.489 0 0 0 0-1.582l.911-.526-.5-.866-.91.525A2.49 2.49 0 0 0 7 7.05zM13 13h2V0H4v2h9v11zM1 3h11v13H1V3zm2 2h7v9H3V5zm2.926 5.885a1.5 1.5 0 1 0 1.147-2.771 1.5 1.5 0 0 0-1.147 2.77z" fill-rule="evenodd"/>
</svg>
