<svg width="16" height="16" viewBox="0 0 16 16" xmlns="http://www.w3.org/2000/svg">
    <path d="M8 3.55a5.877 5.877 0 0 0 3.987.756c.009.169.013.339.013.508 0 3.216-1.537 6.107-4 7.679V3.55zm-1 8.943C4.537 10.921 3 8.03 3 4.814c0-.179.005-.358.015-.536A5.875 5.875 0 0 0 7 3.517v8.976zM8.023 1H6.94c-.793.875-1.843 1.356-2.968 1.356-.382 0-.755-.055-1.115-.164v.064h-1.58l-.021.107C1.086 3.163 1 3.987 1 4.814c0 4.447 2.455 8.403 6.254 10.077L7.5 15l.246-.109C11.546 13.217 14 9.261 14 4.814c0-.827-.086-1.651-.256-2.451l-.026-.107h-1.575v-.035c-.36.109-.733.164-1.114.164-1.142 0-2.205-.491-3.006-1.385z" fill-rule="evenodd"/>
</svg>
