<svg width="16" height="16" viewBox="0 0 16 16" xmlns="http://www.w3.org/2000/svg">
    <path d="M15.77 10a2.065 2.065 0 0 0-.056-.486c-.385-1.648-1.375-2.985-2.67-3.765.516-.61.84-1.39.84-2.25 0-1.928-1.57-3.5-3.5-3.5a3.506 3.506 0 0 0-3.496 3.34A3.478 3.478 0 0 0 5.384 3a3.505 3.505 0 0 0-3.5 3.5c0 .86.324 1.64.841 2.25-1.296.78-2.286 2.117-2.67 3.765a2.03 2.03 0 0 0 .385 1.733c.38.479.948.753 1.56.753h6v-2.004l-5.998-.027c.408-1.748 1.798-2.97 3.382-2.97 1.023 0 1.966.51 2.616 1.35V10h7.77zM8.742 7.468A3.148 3.148 0 0 1 10.384 7c1.583 0 2.975 1.22 3.386 3l-4.3-.02A5.624 5.624 0 0 0 8.043 8.75c.314-.371.557-.805.699-1.281zM8.884 3.5c0-.827.673-1.5 1.5-1.5s1.5.673 1.5 1.5-.673 1.5-1.5 1.5-1.5-.673-1.5-1.5zm-5 3c0-.827.673-1.5 1.5-1.5s1.5.673 1.5 1.5S6.211 8 5.384 8s-1.5-.673-1.5-1.5zM10 12h6v2h-6v-2z" fill-rule="evenodd"/>
</svg>
