<svg width="16" height="16" viewBox="0 0 16 16" xmlns="http://www.w3.org/2000/svg">
    <path d="M6.888 3.34A3.506 3.506 0 0 1 10.384 0c1.93 0 3.5 1.57 3.5 3.5 0 .86-.324 1.639-.84 2.249 1.295.78 2.285 2.117 2.67 3.765a2.03 2.03 0 0 1-.384 1.733 1.98 1.98 0 0 1-1.56.753h-3.199c.055.167.102.339.143.514a2.03 2.03 0 0 1-.384 1.733A1.98 1.98 0 0 1 8.77 15H2c-.612 0-1.18-.274-1.56-.753a2.03 2.03 0 0 1-.385-1.733c.384-1.648 1.374-2.985 2.67-3.765a3.467 3.467 0 0 1-.84-2.25c0-1.928 1.57-3.5 3.5-3.5.537 0 1.047.123 1.503.34zm1.855 4.128A3.148 3.148 0 0 1 10.384 7c1.583 0 2.975 1.22 3.386 3l-4.3-.02A5.624 5.624 0 0 0 8.043 8.75c.314-.371.557-.805.699-1.281zM8.884 3.5c0-.827.673-1.5 1.5-1.5s1.5.673 1.5 1.5-.673 1.5-1.5 1.5-1.5-.673-1.5-1.5zm-6.882 9.469c.408-1.748 1.798-2.97 3.382-2.97 1.583 0 2.975 1.222 3.386 3l-6.768-.03zm1.882-6.47c0-.826.673-1.5 1.5-1.5s1.5.674 1.5 1.5c0 .828-.673 1.5-1.5 1.5s-1.5-.672-1.5-1.5z" fill-rule="evenodd"/>
</svg>
